<?xml version="1.0" standalone="no"?>
<!DOCTYPE svg PUBLIC "-//W3C//DTD SVG 1.1//EN" "http://www.w3.org/Graphics/SVG/1.1/DTD/svg11.dtd" >
<svg xmlns="http://www.w3.org/2000/svg" xmlns:xlink="http://www.w3.org/1999/xlink" version="1.1">
<metadata>
Created by FontForge 20190801 at Tue Apr 24 10:21:24 2012
 By Jimmy Wärting
Copyright (c) 2003 - 2012 Linotype GmbH, www.linotype.com. All rights reserved. This font software may not be reproduced, modified, disclosed or transferred without the express written approval of Linotype GmbH. Avenir is a trademark of Linotype GmbH registered in the U.S. Patent and Trademark Office and may be registered in certain other jurisdictions. This typeface is original artwork of Adrian Frutiger and Akira Kobayashi. The design may be protected in certain jurisdictions.
</metadata>
<defs>
<font id="AvenirNextCyr-HeavyItalic" horiz-adv-x="360" >
  <font-face 
    font-family="Avenir Next Cyr Heavy"
    font-weight="800"
    font-style="italic"
    font-stretch="normal"
    units-per-em="1000"
    panose-1="2 11 9 3 2 2 2 9 2 4"
    ascent="756"
    descent="-244"
    x-height="526"
    cap-height="708"
    bbox="-230 -250 1228 969"
    underline-thickness="50"
    underline-position="-200"
    slope="-12"
    unicode-range="U+000D-FB04"
  />
<missing-glyph horiz-adv-x="512" 
d="M278 117h-56v67h56v-67zM271 234h-46l-2 17q0 56 13 81q15 28 46 59q31 29 40.5 46t9.5 37q0 36 -22.5 60.5t-53.5 24.5q-71 0 -82 -95l-50 8q7 69 43 103t92 34q54 0 89 -36t35 -95q0 -34 -13 -60t-50 -60q-37 -33 -43 -52q-6 -20 -6 -72zM50 50h412v617h-412v-617z
M0 718h512v-718h-512v718z" />
    <glyph glyph-name="napostrophe" unicode="&#x22;n" horiz-adv-x="800" 
d="M207 423q10 50 15 103h216q0 -9 -7 -68h4q24 34 66.5 57t89.5 23q82 0 121.5 -44t39.5 -111q0 -35 -6 -67l-55 -316h-225l49 279q3 18 3 34q0 45 -46 45q-23 0 -40.5 -21t-24.5 -59l-50 -278h-224zM313 708l-131 -182h-161l107 182h185z" />
    <glyph glyph-name="f_f" unicode="ff" horiz-adv-x="794" 
d="M869 770l-36 -168q-20 9 -43 9q-33 0 -47.5 -18.5t-21.5 -54.5l-2 -12h111l-28 -161h-108l-65 -365h-223l65 365h-153l-65 -365h-223l65 365h-90l28 161h87l3 16q9 54 25.5 94t46.5 75.5t80 54.5t118 19q66 0 100 -15l-36 -168q-20 9 -43 9q-33 0 -47.5 -18.5
t-21.5 -54.5l-2 -12h153l3 16q9 54 25.5 94t46.5 75.5t80 54.5t118 19q66 0 100 -15z" />
    <glyph glyph-name="fi" unicode="fi" horiz-adv-x="747" 
d="M493 770l-36 -168q-20 9 -43 9q-33 0 -47.5 -18.5t-21.5 -54.5l-2 -12h111l-28 -161h-108l-65 -365h-223l65 365h-90l28 161h87l3 16q9 54 25.5 94t46.5 75.5t80 54.5t118 19q66 0 100 -15zM631 0h-224l93 526h224zM625 565q-49 0 -80 28.5t-31 68.5q0 54 35.5 91.5
t91.5 37.5q48 0 79 -29t31 -68q0 -54 -35.5 -91.5t-90.5 -37.5z" />
    <glyph glyph-name="fl" unicode="fl" horiz-adv-x="750" 
d="M635 0h-229l133 756h229zM493 770l-36 -168q-20 9 -43 9q-33 0 -47.5 -18.5t-21.5 -54.5l-2 -12h111l-28 -161h-108l-65 -365h-223l65 365h-90l28 161h87l3 16q9 54 25.5 94t46.5 75.5t80 54.5t118 19q66 0 100 -15z" />
    <glyph glyph-name="f_f_i" unicode="ffi" horiz-adv-x="1123" 
d="M869 770l-36 -168q-20 9 -43 9q-33 0 -47.5 -18.5t-21.5 -54.5l-2 -12h111l-28 -161h-108l-65 -365h-223l65 365h-153l-65 -365h-223l65 365h-90l28 161h87l3 16q9 54 25.5 94t46.5 75.5t80 54.5t118 19q66 0 100 -15l-36 -168q-20 9 -43 9q-33 0 -47.5 -18.5
t-21.5 -54.5l-2 -12h153l3 16q9 54 25.5 94t46.5 75.5t80 54.5t118 19q66 0 100 -15zM1007 0h-224l93 526h224zM1001 565q-49 0 -80 28.5t-31 68.5q0 54 35.5 91.5t91.5 37.5q48 0 79 -29t31 -68q0 -54 -35.5 -91.5t-90.5 -37.5z" />
    <glyph glyph-name="f_f_l" unicode="ffl" horiz-adv-x="1126" 
d="M869 770l-36 -168q-20 9 -43 9q-33 0 -47.5 -18.5t-21.5 -54.5l-2 -12h111l-28 -161h-108l-65 -365h-223l65 365h-153l-65 -365h-223l65 365h-90l28 161h87l3 16q9 54 25.5 94t46.5 75.5t80 54.5t118 19q66 0 100 -15l-36 -168q-20 9 -43 9q-33 0 -47.5 -18.5
t-21.5 -54.5l-2 -12h153l3 16q9 54 25.5 94t46.5 75.5t80 54.5t118 19q66 0 100 -15zM1011 0h-229l133 756h229z" />
    <glyph glyph-name=".notdef" horiz-adv-x="512" 
d="M278 117h-56v67h56v-67zM271 234h-46l-2 17q0 56 13 81q15 28 46 59q31 29 40.5 46t9.5 37q0 36 -22.5 60.5t-53.5 24.5q-71 0 -82 -95l-50 8q7 69 43 103t92 34q54 0 89 -36t35 -95q0 -34 -13 -60t-50 -60q-37 -33 -43 -52q-6 -20 -6 -72zM50 50h412v617h-412v-617z
M0 718h512v-718h-512v718z" />
    <glyph glyph-name=".null" horiz-adv-x="500" 
 />
    <glyph glyph-name=".null" horiz-adv-x="500" 
 />
    <glyph glyph-name="nonmarkingreturn" horiz-adv-x="333" 
 />
    <glyph glyph-name="CR" unicode="&#xd;" horiz-adv-x="0" 
 />
    <glyph glyph-name="space" unicode=" " horiz-adv-x="250" 
 />
    <glyph glyph-name="exclam" unicode="!" horiz-adv-x="439" 
d="M321 258h-233l80 450h233zM179 -13q-52 0 -84 30t-32 72q0 56 37.5 95t95.5 39q50 0 82.5 -30t32.5 -72q0 -56 -37 -95t-95 -39z" />
    <glyph glyph-name="quotedbl" unicode="&#x22;" horiz-adv-x="550" 
d="M480 427h-167l49 281h168zM262 427h-169l50 281h169z" />
    <glyph glyph-name="numbersign" unicode="#" horiz-adv-x="618" 
d="M582 389h-95l-23 -70h78l-23 -131h-95l-61 -188h-141l59 188h-44l-60 -188h-141l59 188h-77l23 131h95l24 70h-78l23 131h95l60 188h142l-60 -188h45l60 188h141l-60 -188h77zM346 389h-46l-22 -70h45z" />
    <glyph glyph-name="dollar" unicode="$" horiz-adv-x="695" 
d="M340 716l14 70h103l-14 -70q61 -4 116.5 -26.5t87.5 -55.5l-145 -140q-37 44 -104 44q-29 0 -50.5 -12t-21.5 -35q0 -18 17 -29.5t57 -23.5q94 -31 142 -79t48 -124q0 -108 -77 -170t-182 -71l-14 -77h-102l14 76q-69 5 -133.5 30.5t-105.5 65.5l155 143
q22 -26 61.5 -42.5t72.5 -16.5q34 0 54.5 11.5t20.5 32.5q0 18 -18 31.5t-63 28.5q-87 28 -132.5 70t-45.5 122q0 96 68 165t177 82z" />
    <glyph glyph-name="percent" unicode="%" horiz-adv-x="915" 
d="M234 344q-81 0 -131.5 42.5t-50.5 118.5q0 91 60 153t153 62q82 0 133 -43t51 -119q0 -90 -61.5 -152t-153.5 -62zM309 546q0 22 -13.5 36t-37.5 14q-29 0 -47.5 -22.5t-18.5 -54.5q0 -23 13 -37t37 -14q30 0 48.5 22.5t18.5 55.5zM677 -11q-81 0 -131.5 42.5
t-50.5 118.5q0 91 60 153t153 62q82 0 133 -43t51 -119q0 -90 -61 -152t-154 -62zM752 191q0 22 -13.5 36t-37.5 14q-29 0 -47.5 -22.5t-18.5 -54.5q0 -23 13 -37t37 -14q30 0 48.5 22.5t18.5 55.5zM782 683l-547 -722l-86 58l546 720z" />
    <glyph glyph-name="ampersand" unicode="&#x26;" horiz-adv-x="834" 
d="M361 181l-76 95q-58 -17 -58 -69q0 -24 18.5 -38.5t43.5 -14.5q45 0 72 27zM440 535q0 21 -12 33t-34 12q-24 0 -39.5 -15.5t-15.5 -39.5q0 -36 29 -62q32 11 52 30t20 42zM193 399q-47 52 -47 123q0 84 71 145t181 61q103 0 165.5 -47t62.5 -135q0 -128 -166 -192
l41 -46l62 79h244l-181 -205l158 -182h-276l-38 47q-87 -62 -195 -62q-73 0 -130 18.5t-96 65t-39 115.5q0 151 183 215z" />
    <glyph glyph-name="quotesingle" unicode="'" horiz-adv-x="330" 
d="M260 427h-167l49 281h168z" />
    <glyph glyph-name="parenleft" unicode="(" 
d="M233 -134l-150 -46q-87 147 -87 343q0 163 65.5 318.5t177.5 274.5l135 -71q-105 -119 -160.5 -253t-55.5 -269q0 -76 19.5 -155.5t55.5 -141.5z" />
    <glyph glyph-name="parenright" unicode=")" 
d="M103 710l150 46q87 -147 87 -343q0 -163 -65.5 -318.5t-177.5 -274.5l-135 71q105 119 160.5 253t55.5 269q0 169 -75 297z" />
    <glyph glyph-name="asterisk" unicode="*" horiz-adv-x="523" 
d="M424 467l72 -93l-121 -83l-74 95l-71 -90l-120 83l74 89l-117 37l48 130l114 -38v111h149v-112l116 35l44 -130z" />
    <glyph glyph-name="plus" unicode="+" horiz-adv-x="666" 
d="M49 378h204v198h158v-198h206v-150h-204v-198h-158v198h-206v150z" />
    <glyph glyph-name="comma" unicode="," horiz-adv-x="354" 
d="M282 190l-168 -310h-180l136 310h212z" />
    <glyph glyph-name="hyphen" unicode="-" horiz-adv-x="335" 
d="M279 199h-273l30 168h273z" />
    <glyph glyph-name="period" unicode="." horiz-adv-x="354" 
d="M132 -12q-54 0 -87.5 31t-33.5 75q0 59 39 99.5t100 40.5q52 0 86 -31.5t34 -74.5q0 -59 -39 -99.5t-99 -40.5z" />
    <glyph glyph-name="slash" unicode="/" horiz-adv-x="451" 
d="M521 719l-442 -777l-144 47l440 777z" />
    <glyph glyph-name="zero" unicode="0" horiz-adv-x="695" 
d="M398 726q76 0 133 -23.5t88.5 -63.5t46.5 -86.5t15 -98.5q0 -63 -12 -126t-39.5 -126t-68.5 -111.5t-105 -78.5t-142 -30q-77 0 -134.5 23.5t-89.5 63.5t-47.5 86.5t-15.5 98.5q0 63 12 126t40 126t69.5 111.5t106 78.5t143.5 30zM379 534q-37 0 -66 -42t-43 -98.5
t-14 -110.5q0 -46 17 -75.5t51 -29.5q36 0 64.5 39.5t42.5 96t14 115.5q0 105 -66 105z" />
    <glyph glyph-name="one" unicode="1" horiz-adv-x="695" 
d="M460 0h-233l82 465l-134 -72l-68 175l265 140h213z" />
    <glyph glyph-name="two" unicode="2" horiz-adv-x="695" 
d="M589 0h-583l33 183l322 226q56 40 56 69q0 49 -53 49q-67 0 -87 -84l-213 31q27 117 112.5 185.5t209.5 68.5q71 0 131 -21t101.5 -70.5t41.5 -120.5q0 -47 -13.5 -84t-43.5 -68t-50 -46.5t-61 -42.5l-121 -81h252z" />
    <glyph glyph-name="three" unicode="3" horiz-adv-x="695" 
d="M626 227q0 -50 -18.5 -92t-49.5 -70t-71.5 -47.5t-83.5 -28.5t-87 -9q-118 0 -200.5 54t-104.5 161l212 51q9 -34 34.5 -53t62.5 -19q28 0 50.5 13.5t22.5 38.5q0 33 -25.5 45t-76.5 12h-66l27 158h76q44 0 73.5 13.5t29.5 42.5q0 44 -56 44q-29 0 -53 -15t-33 -40
l-203 54q37 93 119.5 140.5t185.5 47.5q51 0 96 -9.5t86 -31t65 -62t24 -96.5q0 -61 -41.5 -102t-92.5 -52l-1 -4q47 -17 73 -55t26 -89z" />
    <glyph glyph-name="four" unicode="4" horiz-adv-x="695" 
d="M643 126h-97l-22 -126h-210l22 126h-335l34 189l322 393h288l-71 -401h101zM367 307l33 188h-4l-153 -188h124z" />
    <glyph glyph-name="five" unicode="5" horiz-adv-x="695" 
d="M627 255q0 -69 -28 -124t-73.5 -87t-97.5 -48t-106 -16q-118 0 -199 55t-108 156l215 58q8 -33 33 -53t59 -20q28 0 50 14.5t22 45.5q0 36 -27.5 50t-79.5 14q-83 0 -197 -22l100 430h477l-34 -193h-281l-14 -57q27 5 54 5q46 0 86 -10.5t74.5 -33.5t54.5 -65t20 -99z
" />
    <glyph glyph-name="six" unicode="6" horiz-adv-x="695" 
d="M422 479q6 1 19 1q94 0 149.5 -60.5t55.5 -142.5q0 -124 -90 -209.5t-243 -85.5q-129 0 -211 60.5t-82 184.5q0 123 116 251l208 230h301l-207 -212zM249 236q0 -31 21.5 -50t50.5 -19q42 0 66 26t24 68q0 31 -20.5 50t-48.5 19q-43 0 -68 -26.5t-25 -67.5z" />
    <glyph glyph-name="seven" unicode="7" horiz-adv-x="695" 
d="M674 543l-355 -543h-276l366 515h-299l34 193h559z" />
    <glyph glyph-name="eight" unicode="8" horiz-adv-x="695" 
d="M255 215q0 -28 17 -43.5t40 -15.5q38 0 58 19.5t20 49.5q0 24 -17 42t-42 18q-33 0 -54.5 -20t-21.5 -50zM505 371v-3q42 -17 74.5 -58t32.5 -93q0 -115 -82 -175t-225 -60q-48 0 -93 10t-86.5 32t-66 62.5t-24.5 94.5q0 77 48.5 128.5t111.5 67.5v4q-41 18 -64 52.5
t-23 78.5q0 69 44.5 119t109 72.5t138.5 22.5q106 0 178 -45.5t72 -135.5q0 -72 -43 -115.5t-102 -58.5zM311 495q0 -22 14.5 -38t40.5 -16q30 0 48.5 18t18.5 45q0 26 -14.5 41t-39.5 15q-31 0 -49.5 -18t-18.5 -47z" />
    <glyph glyph-name="nine" unicode="9" horiz-adv-x="695" 
d="M269 229q-6 -1 -19 -1q-94 0 -149.5 60.5t-55.5 142.5q0 124 90 209.5t243 85.5q129 0 211 -60.5t82 -184.5q0 -123 -116 -251l-208 -230h-301l207 212zM442 472q0 31 -21.5 50t-50.5 19q-42 0 -66 -26t-24 -68q0 -31 20.5 -50t48.5 -19q43 0 68 26.5t25 67.5z" />
    <glyph glyph-name="colon" unicode=":" horiz-adv-x="375" 
d="M136 -5q-50 0 -81.5 29.5t-31.5 70.5q0 55 36.5 93t93.5 38q49 0 81 -29.5t32 -69.5q0 -55 -36.5 -93.5t-93.5 -38.5zM192 295q-50 0 -81.5 29.5t-31.5 70.5q0 55 36.5 93t93.5 38q49 0 81 -29.5t32 -69.5q0 -55 -36.5 -93.5t-93.5 -38.5z" />
    <glyph glyph-name="semicolon" unicode=";" horiz-adv-x="375" 
d="M304 190l-167 -310h-182l137 310h212zM192 295q-50 0 -81.5 29.5t-31.5 70.5q0 55 36.5 93t93.5 38q49 0 81 -29.5t32 -69.5q0 -55 -36.5 -93.5t-93.5 -38.5z" />
    <glyph glyph-name="less" unicode="&#x3c;" horiz-adv-x="666" 
d="M588 32l-510 203v134l510 203v-162q-45 -19 -136.5 -55.5t-137.5 -55.5l274 -103v-164z" />
    <glyph glyph-name="equal" unicode="=" horiz-adv-x="666" 
d="M56 472h554v-144h-554v144zM56 282h554v-144h-554v144z" />
    <glyph glyph-name="greater" unicode="&#x3e;" horiz-adv-x="666" 
d="M78 572l510 -203v-134l-510 -203v164l274 103q-45 19 -137 55.5t-137 55.5v162z" />
    <glyph glyph-name="question" unicode="?" horiz-adv-x="583" 
d="M441 330q-42 -24 -48 -55l-4 -26h-207l6 37q10 54 39 86.5t85 70.5l21 14q25 16 34 27.5t9 27.5q0 33 -41 33q-32 0 -50.5 -22.5t-24.5 -57.5l-202 36q26 114 110 170.5t194 56.5q109 0 177 -44t68 -142q0 -75 -38.5 -118.5t-127.5 -93.5zM267 -13q-52 0 -84 30t-32 72
q0 56 37.5 95t95.5 39q50 0 82.5 -30t32.5 -72q0 -56 -37 -95t-95 -39z" />
    <glyph glyph-name="at" unicode="@" horiz-adv-x="800" 
d="M546 160q-41 0 -71 16t-34 44h-2q-15 -24 -47 -42t-66 -18q-64 0 -98 38t-34 101q0 99 63 180.5t165 81.5q39 0 60 -15.5t24 -36.5h2l9 25h133l-40 -113q-37 -107 -37 -125q0 -16 22 -16q38 0 62 40t24 107q0 195 -223 195q-130 0 -219.5 -82t-89.5 -219q0 -111 70 -171
t191 -60q109 0 204 70l60 -83q-116 -95 -275 -95q-169 0 -273.5 86.5t-104.5 240.5q0 126 62.5 222.5t162 145.5t217.5 49q88 0 163 -31.5t123 -97t48 -152.5q0 -53 -14.5 -101.5t-43.5 -90.5t-79 -67.5t-114 -25.5zM457 406q0 17 -10.5 28t-28.5 11q-28 0 -52.5 -42.5
t-24.5 -80.5q0 -41 38 -41q31 0 54.5 42t23.5 83z" />
    <glyph glyph-name="A" unicode="A" horiz-adv-x="775" 
d="M720 0h-240l-16 108h-230l-59 -108h-258l435 708h244zM445 285l-21 182l-101 -182h122z" />
    <glyph glyph-name="B" unicode="B" horiz-adv-x="690" 
d="M456 708q85 0 146.5 -38t61.5 -117q0 -70 -39 -116.5t-104 -64.5v-2q50 -9 84.5 -50t34.5 -101q0 -105 -83.5 -162t-220.5 -57h-329l125 708h324zM372 529h-58l-16 -97h64q76 0 76 54q0 43 -66 43zM341 287h-68l-19 -107h59q98 0 98 59q0 48 -70 48z" />
    <glyph glyph-name="C" unicode="C" horiz-adv-x="686" 
d="M655 81q-113 -101 -286 -101q-158 0 -248 84.5t-90 228.5q0 183 121 309t305 126q88 0 159 -28t110 -71l-161 -166q-36 51 -114 51q-74 0 -121 -56.5t-47 -137.5q0 -54 34 -89t96 -35q69 0 128 55z" />
    <glyph glyph-name="D" unicode="D" horiz-adv-x="787" 
d="M7 0l125 708h293q63 0 121 -17t108 -51.5t80.5 -95t30.5 -138.5q0 -184 -121.5 -295t-310.5 -111h-326zM324 512l-56 -313h75q85 0 133.5 54t48.5 128q0 58 -35 94.5t-104 36.5h-62z" />
    <glyph glyph-name="E" unicode="E" horiz-adv-x="592" 
d="M499 0h-492l125 708h463l-34 -193h-245l-12 -68h234l-32 -180h-234l-13 -74h274z" />
    <glyph glyph-name="F" unicode="F" horiz-adv-x="569" 
d="M554 514h-230l-15 -82h218l-33 -188h-217l-43 -244h-227l125 708h456z" />
    <glyph glyph-name="G" unicode="G" horiz-adv-x="763" 
d="M726 629l-156 -164q-38 58 -119 58q-73 0 -126 -57t-53 -149q0 -62 35.5 -99t106.5 -37q36 0 63 11l11 62h-116l32 182h321l-68 -386q-131 -70 -272 -70q-162 0 -258 82.5t-96 230.5q0 184 118.5 309.5t302.5 125.5q91 0 163 -26.5t111 -72.5z" />
    <glyph glyph-name="H" unicode="H" horiz-adv-x="798" 
d="M671 0h-231l48 272h-202l-48 -272h-231l125 708h230l-43 -243h202l43 243h232z" />
    <glyph glyph-name="I" unicode="I" horiz-adv-x="367" 
d="M240 0h-233l125 708h233z" />
    <glyph glyph-name="J" unicode="J" horiz-adv-x="562" 
d="M489 255q-8 -44 -17.5 -77t-30.5 -72.5t-49.5 -65t-76 -43t-109.5 -17.5q-98 0 -163.5 47t-90.5 132l212 75q3 -19 15 -31t30 -12q38 0 48 60l81 457h232z" />
    <glyph glyph-name="K" unicode="K" horiz-adv-x="740" 
d="M718 0h-277l-155 298h-2l-52 -298h-225l125 708h224l-48 -271h3l224 271h282l-318 -342z" />
    <glyph glyph-name="L" unicode="L" horiz-adv-x="547" 
d="M479 0h-472l125 708h233l-90 -510h239z" />
    <glyph glyph-name="M" unicode="M" horiz-adv-x="1003" 
d="M876 0h-225l79 410h-6l-209 -410h-163l-63 410h-5l-61 -410h-216l125 708h295l62 -388h5l184 388h323z" />
    <glyph glyph-name="N" unicode="N" horiz-adv-x="791" 
d="M664 0h-233l-140 351h-4l-55 -351h-225l125 708h227l143 -369h4l58 369h225z" />
    <glyph glyph-name="O" unicode="O" horiz-adv-x="833" 
d="M382 -18q-167 0 -259 88.5t-92 233.5q0 180 119.5 301t310.5 121q168 0 260 -88t92 -234q0 -180 -119.5 -301t-311.5 -121zM572 387q0 56 -34.5 92.5t-95.5 36.5q-75 0 -122.5 -58t-47.5 -135q0 -56 34.5 -92.5t96.5 -36.5q75 0 122 57.5t47 135.5z" />
    <glyph glyph-name="P" unicode="P" horiz-adv-x="680" 
d="M279 231l-42 -231h-230l125 708h264q135 0 208.5 -56.5t73.5 -157.5q0 -133 -86 -198t-245 -65h-68zM346 405q102 0 102 66q0 56 -82 56h-35l-22 -122h37z" />
    <glyph glyph-name="Q" unicode="Q" horiz-adv-x="863" 
d="M813 423q0 -82 -33.5 -149.5t-71.5 -94.5l-1 -4l116 7l-32 -182h-409q-160 0 -255.5 80.5t-95.5 219.5q0 180 121 303t309 123q161 0 256.5 -82t95.5 -221zM572 391q0 55 -34.5 90.5t-95.5 35.5q-75 0 -122.5 -57t-47.5 -132q0 -55 34 -92t97 -37q77 0 123 57.5t46 134.5
z" />
    <glyph glyph-name="R" unicode="R" horiz-adv-x="704" 
d="M659 0h-260l-97 259h-28l-44 -259h-223l125 708h291q117 0 185 -51.5t68 -144.5q0 -86 -41 -144t-114 -79zM348 406q98 0 98 65q0 54 -80 54h-43l-21 -119h46z" />
    <glyph glyph-name="S" unicode="S" horiz-adv-x="601" 
d="M621 640l-148 -143q-40 45 -107 45q-30 0 -51.5 -13t-21.5 -36q0 -18 17 -29.5t58 -24.5q96 -32 145.5 -81t49.5 -126q0 -65 -29.5 -115.5t-77 -79t-101.5 -43t-110 -14.5q-85 0 -166 27t-130 75l158 146q22 -26 63 -43t74 -17q35 0 56 12t21 33q0 18 -18.5 32t-64.5 29
q-89 29 -135.5 72t-46.5 125q0 111 87 184t225 73q76 0 145.5 -24t107.5 -64z" />
    <glyph glyph-name="T" unicode="T" horiz-adv-x="583" 
d="M613 513h-173l-90 -513h-232l90 513h-179l35 195h584z" />
    <glyph glyph-name="U" unicode="U" horiz-adv-x="771" 
d="M696 260q-23 -131 -111 -204.5t-241 -73.5q-138 0 -221 59.5t-83 161.5q0 26 6 66l75 439h229l-73 -409q-2 -11 -2 -33q0 -36 21.5 -59.5t66.5 -23.5q55 0 77.5 30.5t32.5 81.5l75 413h225z" />
    <glyph glyph-name="V" unicode="V" horiz-adv-x="720" 
d="M820 708l-405 -708h-258l-102 708h249l32 -444h4l213 444h267z" />
    <glyph glyph-name="W" unicode="W" horiz-adv-x="1050" 
d="M1136 708l-334 -708h-238l-20 408h-4l-186 -408h-235l-55 708h245v-405h4l166 405h238l8 -405h4l166 405h241z" />
    <glyph glyph-name="X" unicode="X" horiz-adv-x="766" 
d="M720 0h-267l-89 211l-168 -211h-284l331 369l-173 339h263l77 -189l146 189h280l-306 -336z" />
    <glyph glyph-name="Y" unicode="Y" horiz-adv-x="677" 
d="M789 708l-349 -417l-51 -291h-231l51 291l-187 417h258l76 -219l151 219h282z" />
    <glyph glyph-name="Z" unicode="Z" horiz-adv-x="668" 
d="M565 0h-582l34 194l330 322h-262l34 192h563l-30 -168l-348 -343h296z" />
    <glyph glyph-name="bracketleft" unicode="[" 
d="M203 -156h-249l157 888h249l-23 -133h-87l-110 -622h87z" />
    <glyph glyph-name="backslash" unicode="\" horiz-adv-x="455" 
d="M301 -59l-304 778l158 48l303 -778z" />
    <glyph glyph-name="bracketright" unicode="]" 
d="M227 -156h-248l24 133h87l110 622h-87l23 133h248z" />
    <glyph glyph-name="asciicircum" unicode="^" horiz-adv-x="714" 
d="M255 343h-178l203 365h154q34 -61 100.5 -182.5t100.5 -182.5h-178l-101 187z" />
    <glyph glyph-name="underscore" unicode="_" horiz-adv-x="500" 
d="M0 -185v110h500v-110h-500z" />
    <glyph glyph-name="grave" unicode="`" 
d="M3 728h208l126 -144h-165z" />
    <glyph glyph-name="a" unicode="a" horiz-adv-x="588" 
d="M328 199l3 17h-13q-122 0 -122 -56q0 -36 46 -36q33 0 56.5 21t29.5 54zM504 81q-7 -41 -7 -81h-192q0 22 2 48h-2q-55 -62 -148 -62q-63 0 -110 35t-47 104q0 205 337 205q1 5 1 11q0 20 -17 30.5t-46 10.5q-63 0 -117 -46l-98 112q47 44 114.5 69t130.5 25
q118 0 179.5 -48.5t61.5 -136.5q0 -37 -8 -83z" />
    <glyph glyph-name="b" unicode="b" horiz-adv-x="690" 
d="M443 538q100 0 156 -63.5t56 -161.5q0 -136 -84 -231t-209 -95q-50 0 -91.5 19t-62.5 50h-2l-10 -56h-202l133 756h224l-48 -276h2q24 26 62 42t76 16zM437 283q0 33 -21 54.5t-59 21.5q-45 0 -73.5 -33.5t-28.5 -81.5q0 -34 21 -55t58 -21q47 0 75 33t28 82z" />
    <glyph glyph-name="c" unicode="c" horiz-adv-x="504" 
d="M529 472l-127 -139q-19 28 -67 28q-49 0 -80 -32.5t-31 -79.5q0 -32 22 -54.5t63 -22.5q47 0 77 30l89 -151q-85 -67 -207 -67q-117 0 -188 64t-71 171q0 133 91.5 228t233.5 95q137 0 195 -70z" />
    <glyph glyph-name="d" unicode="d" horiz-adv-x="690" 
d="M221 -13q-100 0 -156 63.5t-56 161.5q0 136 84 231t209 95q40 0 78 -16t56 -42h2l48 276h223l-133 -756h-201l10 56h-2q-52 -69 -162 -69zM227 244q0 -33 21 -54.5t59 -21.5q45 0 73.5 33.5t28.5 81.5q0 34 -21 55t-58 21q-47 0 -75 -33t-28 -82z" />
    <glyph glyph-name="e" unicode="e" horiz-adv-x="622" 
d="M573 211h-358q-1 -3 -1 -7q0 -29 27.5 -42.5t58.5 -13.5q56 0 92 35l151 -104q-94 -95 -258 -95q-119 0 -197.5 62.5t-78.5 176.5q0 136 92.5 227.5t236.5 91.5q115 0 182 -63t67 -172q0 -51 -14 -96zM392 330q1 4 1 12q0 25 -18.5 40t-51.5 15q-37 0 -63.5 -21.5
t-32.5 -45.5h165z" />
    <glyph glyph-name="f" unicode="f" horiz-adv-x="418" 
d="M493 770l-36 -168q-20 9 -43 9q-33 0 -47.5 -18.5t-21.5 -54.5l-2 -12h111l-28 -161h-108l-65 -365h-223l65 365h-90l28 161h87l3 16q9 54 25.5 94t46.5 75.5t80 54.5t118 19q66 0 100 -15z" />
    <glyph glyph-name="g" unicode="g" horiz-adv-x="693" 
d="M230 0q-107 0 -164 59t-57 154q0 137 82.5 231t210.5 94q41 0 80.5 -17.5t62.5 -51.5h3l9 57h211l-83 -473q-27 -153 -112.5 -223t-235.5 -70q-78 0 -152.5 21.5t-120.5 60.5l106 154q31 -30 75.5 -46.5t84.5 -16.5q116 0 133 98l5 26h-3q-18 -21 -55 -39t-80 -18z
M224 242q0 -31 18.5 -54t62.5 -23q47 0 76 36t29 84q0 34 -21.5 54.5t-58.5 20.5q-49 0 -77.5 -36t-28.5 -82z" />
    <glyph glyph-name="h" unicode="h" horiz-adv-x="661" 
d="M552 0h-225l49 279q3 18 3 34q0 45 -46 45q-23 0 -40.5 -21t-24.5 -59l-49 -278h-225l133 756h225l-51 -291h2q26 31 66 52t83 21q82 0 121.5 -44t39.5 -111q0 -35 -6 -67z" />
    <glyph glyph-name="i" unicode="i" horiz-adv-x="335" 
d="M219 0h-224l93 526h224zM213 565q-49 0 -80 28.5t-31 68.5q0 54 35.5 91.5t91.5 37.5q48 0 79 -29t31 -68q0 -54 -35.5 -91.5t-90.5 -37.5z" />
    <glyph glyph-name="j" unicode="j" horiz-adv-x="341" 
d="M227 1q-10 -55 -26 -96t-45.5 -78t-79.5 -56.5t-120 -19.5q-55 0 -92 12l38 182q18 -5 36 -5q55 0 66 67l92 519h224zM220 565q-49 0 -80 28.5t-31 68.5q0 54 35.5 91.5t91.5 37.5q48 0 79 -29t31 -68q0 -54 -35.5 -91.5t-90.5 -37.5z" />
    <glyph glyph-name="k" unicode="k" horiz-adv-x="650" 
d="M260 229h-3l-39 -229h-224l133 756h225l-78 -431h3l148 201h273l-216 -250l130 -276h-262z" />
    <glyph glyph-name="l" unicode="l" horiz-adv-x="338" 
d="M223 0h-229l133 756h229z" />
    <glyph glyph-name="m" unicode="m" horiz-adv-x="971" 
d="M68 423q10 50 15 103h216q0 -9 -7 -68h4q25 34 65 57t89 23q107 0 144 -78q62 78 158 78q85 0 128 -50.5t43 -117.5q0 -24 -5 -51l-56 -319h-225l49 279q3 17 3 33q0 46 -41 46q-45 0 -60 -80l-49 -278h-224l49 277q3 15 3 30q0 51 -41 51q-20 0 -36 -20t-23 -60
l-49 -278h-224z" />
    <glyph glyph-name="n" unicode="n" horiz-adv-x="661" 
d="M68 423q10 50 15 103h216q0 -9 -7 -68h4q24 34 66.5 57t89.5 23q82 0 121.5 -44t39.5 -111q0 -35 -6 -67l-55 -316h-225l49 279q3 18 3 34q0 45 -46 45q-23 0 -40.5 -21t-24.5 -59l-50 -278h-224z" />
    <glyph glyph-name="o" unicode="o" horiz-adv-x="660" 
d="M295 -16q-125 0 -205.5 62t-80.5 173q0 138 88 230.5t238 92.5q128 0 209 -62t81 -173q0 -138 -88.5 -230.5t-241.5 -92.5zM407 283q0 34 -20.5 55t-58.5 21q-45 0 -73 -33.5t-28 -81.5q0 -34 20.5 -55t57.5 -21q47 0 74.5 33t27.5 82z" />
    <glyph glyph-name="p" unicode="p" horiz-adv-x="690" 
d="M439 538q103 0 159.5 -63.5t56.5 -161.5q0 -136 -84 -231t-209 -95q-41 0 -79.5 15t-56.5 40h-2l-51 -282h-223l136 766h212l-10 -57h2q58 69 149 69zM437 283q0 33 -21 54.5t-59 21.5q-45 0 -73.5 -33.5t-28.5 -81.5q0 -34 21 -55t58 -21q47 0 75 33t28 82z" />
    <glyph glyph-name="q" unicode="q" horiz-adv-x="690" 
d="M222 -13q-100 0 -157 64t-57 161q0 136 84.5 231t209.5 95q44 0 82 -18t58 -51h4l11 57h211l-134 -766h-222l49 282h-2q-48 -55 -137 -55zM225 244q0 -33 21 -54.5t59 -21.5q45 0 73.5 33.5t28.5 81.5q0 34 -21 55t-58 21q-47 0 -75 -33t-28 -82z" />
    <glyph glyph-name="r" unicode="r" horiz-adv-x="440" 
d="M69 423q10 50 15 103h215q-3 -33 -9 -64h3q54 75 134 75q27 0 42 -5l-42 -190q-16 5 -47 5q-49 0 -79.5 -26.5t-37.5 -65.5l-45 -255h-224z" />
    <glyph glyph-name="s" unicode="s" horiz-adv-x="494" 
d="M-45 54l114 136q52 -52 123 -52q43 0 43 23q0 20 -55 35q-75 22 -112.5 56.5t-37.5 95.5q0 93 74 144t174 51q63 0 120.5 -17.5t92.5 -49.5l-115 -132q-17 18 -47 30.5t-59 12.5q-45 0 -45 -23q0 -10 10 -15.5t37 -12.5q81 -20 123.5 -57.5t42.5 -103.5
q0 -67 -40.5 -112.5t-95 -63t-116.5 -17.5q-145 0 -231 72z" />
    <glyph glyph-name="t" unicode="t" horiz-adv-x="401" 
d="M389 365h-98l-27 -148q-2 -16 -2 -27q0 -21 11 -29.5t33 -8.5q24 0 44 6l-27 -154q-31 -18 -110 -18q-178 0 -178 135q0 24 5 51l35 193h-78l28 161h74l21 119h217l-21 -119h101z" />
    <glyph glyph-name="u" unicode="u" horiz-adv-x="658" 
d="M562 103q-10 -50 -15 -103h-216q0 9 7 68h-4q-24 -34 -66.5 -57t-89.5 -23q-82 0 -121.5 44t-39.5 111q0 35 6 67l55 316h225l-49 -279q-3 -18 -3 -34q0 -45 46 -45q23 0 40.5 21t24.5 59l50 278h224z" />
    <glyph glyph-name="v" unicode="v" horiz-adv-x="622" 
d="M666 526l-308 -526h-244l-89 526h236l20 -291h4l133 291h248z" />
    <glyph glyph-name="w" unicode="w" horiz-adv-x="963" 
d="M1000 526l-289 -526h-223l-27 274h-2l-137 -274h-222l-72 526h234l11 -279h4l127 279h217l18 -279h3l123 279h235z" />
    <glyph glyph-name="x" unicode="x" horiz-adv-x="620" 
d="M580 0h-245l-61 125l-111 -125h-259l260 271l-139 255h244l55 -116l99 116h252l-243 -255z" />
    <glyph glyph-name="y" unicode="y" horiz-adv-x="631" 
d="M144 -4l6 11l-126 519h248l32 -288h4l123 288h240l-305 -558q-60 -111 -120.5 -159.5t-168.5 -48.5q-65 0 -115 16l38 177q27 -12 53 -12q62 0 91 55z" />
    <glyph glyph-name="z" unicode="z" horiz-adv-x="552" 
d="M458 0h-485l28 158l237 202h-196l29 166h474l-26 -147l-254 -212h222z" />
    <glyph glyph-name="braceleft" unicode="{" 
d="M220 -156h-95q-62 0 -92 34.5t-30 90.5q0 24 4 44l24 135q2 8 2 23q0 28 -13.5 38t-40.5 10l24 138q32 0 51 15t26 55l24 136q13 73 58.5 121t119.5 48h95l-24 -134h-36q-49 0 -59 -60l-24 -138q-9 -52 -41.5 -79.5t-64.5 -31.5v-2q25 -4 46.5 -25.5t21.5 -59.5
q0 -10 -3 -30l-23 -133q-3 -14 -3 -25q0 -36 41 -36h36z" />
    <glyph glyph-name="bar" unicode="|" horiz-adv-x="269" 
d="M49 -250v1000h172v-1000h-172z" />
    <glyph glyph-name="braceright" unicode="}" 
d="M119 732h95q62 0 92 -34.5t30 -90.5q0 -24 -4 -44l-24 -135q-2 -8 -2 -23q0 -28 13.5 -38t40.5 -10l-24 -138q-32 0 -51 -15t-26 -55l-24 -136q-13 -73 -58.5 -121t-119.5 -48h-95l24 134h36q49 0 59 60l24 138q9 52 41.5 79.5t64.5 31.5v2q-25 4 -46.5 25.5t-21.5 59.5
q0 10 3 30l23 133q3 13 3 25q0 36 -41 36h-36z" />
    <glyph glyph-name="asciitilde" unicode="~" horiz-adv-x="666" 
d="M355 384q39 -25 54.5 -30t39.5 -5q49 0 84 67l74 -135q-65 -106 -159 -106q-61 0 -121 38q-55 34 -93 34q-25 0 -54.5 -17t-46.5 -49l-74 135q34 56 82 81t94 25q62 0 120 -38z" />
    <glyph glyph-name="uni00A0" unicode="&#xa0;" horiz-adv-x="250" 
 />
    <glyph glyph-name="exclamdown" unicode="&#xa1;" horiz-adv-x="439" 
d="M92 271h233l-80 -450h-233zM234 542q52 0 84 -30t32 -72q0 -56 -37.5 -95t-95.5 -39q-50 0 -82.5 30t-32.5 72q0 56 37 95t95 39z" />
    <glyph glyph-name="cent" unicode="&#xa2;" horiz-adv-x="695" 
d="M487 535q85 -13 126 -63l-127 -139q-19 28 -67 28q-49 0 -80 -32.5t-31 -79.5q0 -32 22 -54.5t63 -22.5q47 0 77 30l89 -151q-75 -58 -167 -65l-11 -59h-106l12 63q-89 17 -141.5 77.5t-52.5 151.5q0 124 81 216t209 105l11 59h106z" />
    <glyph glyph-name="sterling" unicode="&#xa3;" horiz-adv-x="695" 
d="M698 653l-129 -149q-25 29 -67 29t-63.5 -24.5t-27.5 -55.5l-3 -14h149l-27 -157h-146l-17 -94h252l-33 -188h-567l33 188h92l17 94h-92l27 157h89l8 35q59 254 293 254q64 0 123.5 -21.5t88.5 -53.5z" />
    <glyph glyph-name="currency" unicode="&#xa4;" horiz-adv-x="1000" 
d="M756 454q37 -63 37 -145q0 -84 -39 -150l92 -92l-107 -108l-97 97q-62 -32 -140 -32q-71 0 -142 34l-99 -99l-107 108l95 95q-36 63 -36 147q0 79 34 142l-93 93l108 107l96 -95q66 34 144 34q77 0 143 -32l93 93l108 -107zM502 410q-41 0 -68.5 -30t-27.5 -71
q0 -43 27 -73t69 -30t69 30t27 73q0 41 -28 71t-68 30z" />
    <glyph glyph-name="yen" unicode="&#xa5;" horiz-adv-x="695" 
d="M763 708l-205 -254h100l-24 -137h-184l-9 -48h184l-24 -137h-184l-23 -132h-210l23 132h-181l24 137h181l9 48h-181l24 137h112l-110 254h229l62 -221l140 221h247z" />
    <glyph glyph-name="brokenbar" unicode="&#xa6;" horiz-adv-x="269" 
d="M49 718h172v-406h-172v406zM49 200h172v-406h-172v406z" />
    <glyph glyph-name="section" unicode="&#xa7;" horiz-adv-x="625" 
d="M585 300q0 -95 -91 -144q33 -33 33 -89q0 -52 -19.5 -92.5t-48.5 -64t-68 -38.5t-72.5 -20t-67.5 -5q-85 0 -164.5 32.5t-125.5 92.5l156 123q24 -35 64 -51.5t78 -16.5q45 0 45 26q0 15 -19 26t-78 30q-41 13 -68.5 25.5t-55 32t-41 48.5t-13.5 67q0 51 28 88.5t71 59.5
q-24 29 -24 76q0 48 18.5 87.5t48 63.5t67 40.5t73 23t69.5 6.5q90 0 156.5 -32.5t93.5 -82.5l-168 -109q-11 21 -38 33t-53 12q-46 0 -46 -25q0 -14 16.5 -23.5t74.5 -28.5q38 -13 64 -25.5t52.5 -32t39.5 -48t13 -65.5zM389 261q0 21 -15 32.5t-49 24.5l-78 30
q-23 -8 -23 -33q0 -17 14 -27.5t54 -25.5l77 -29q20 8 20 28z" />
    <glyph glyph-name="dieresis" unicode="&#xa8;" 
d="M94 583q-41 0 -67 24t-26 58q0 45 30 76.5t77 31.5q40 0 66 -24.5t26 -57.5q0 -45 -30 -76.5t-76 -31.5zM345 583q-41 0 -67 24t-26 58q0 45 30 76.5t77 31.5q40 0 66 -24.5t26 -57.5q0 -45 -30 -76.5t-76 -31.5z" />
    <glyph glyph-name="copyright" unicode="&#xa9;" horiz-adv-x="800" 
d="M596 515l-98 -80q-26 36 -81 36q-45 0 -71.5 -35t-26.5 -82t27.5 -82.5t76.5 -35.5q53 0 80 33l92 -88q-67 -67 -174 -67q-106 0 -177 64.5t-71 174.5q0 107 72 172.5t176 65.5q52 0 99.5 -20t75.5 -56zM20 353q0 157 111.5 267t269.5 110q157 0 268 -110t111 -267
q0 -156 -111 -265.5t-268 -109.5q-158 0 -269.5 109.5t-111.5 265.5zM80 353q0 -132 92.5 -225.5t224.5 -93.5t227.5 93.5t95.5 225.5q0 133 -93.5 227t-225.5 94q-133 0 -227 -94t-94 -227z" />
    <glyph glyph-name="ordfeminine" unicode="&#xaa;" horiz-adv-x="390" 
d="M262 538l2 9h-7q-66 0 -66 -30q0 -20 25 -20q18 0 30.5 11.5t15.5 29.5zM358 474q-4 -32 -4 -44h-104q0 19 1 26h-1q-30 -33 -80 -33q-34 0 -59.5 19t-25.5 56q0 111 183 111v6q0 22 -34 22q-35 0 -63 -25l-54 61q56 51 133 51q64 0 97.5 -26.5t33.5 -73.5q0 -18 -5 -45z
" />
    <glyph glyph-name="guillemotleft" unicode="&#xab;" horiz-adv-x="583" 
d="M6 282l217 243l110 -81l-151 -171l86 -166l-131 -72zM239 270l217 243l112 -81l-151 -171l83 -154l-133 -72z" />
    <glyph glyph-name="logicalnot" unicode="&#xac;" horiz-adv-x="666" 
d="M447 143v171h-410v144h568v-315h-158z" />
    <glyph glyph-name="uni00AD" unicode="&#xad;" horiz-adv-x="335" 
d="M279 199h-273l30 168h273z" />
    <glyph glyph-name="registered" unicode="&#xae;" horiz-adv-x="600" 
d="M319 521h26q12 0 20 6.5t8 16.5q0 8 -8.5 13t-19.5 5h-26v-41zM479 365h-100l-44 94h-16v-94h-88v266h114q50 0 85.5 -20t35.5 -66q0 -55 -48 -74zM112 492q0 94 67 160.5t162 66.5q94 0 160.5 -66.5t66.5 -160.5t-66.5 -159.5t-160.5 -65.5q-95 0 -162 65.5t-67 159.5z
M148 492q0 -79 56.5 -135.5t136.5 -56.5q79 0 135 56.5t56 135.5q0 80 -56 136t-135 56q-80 0 -136.5 -56t-56.5 -136z" />
    <glyph glyph-name="macron" unicode="&#xaf;" 
d="M404 611h-358l16 95h358z" />
    <glyph glyph-name="degree" unicode="&#xb0;" horiz-adv-x="440" 
d="M439 554q0 -77 -51 -128t-128 -51t-128 51t-51 128t51 128t128 51t128 -51t51 -128zM357 554q0 40 -28.5 68.5t-68.5 28.5t-68.5 -28.5t-28.5 -68.5t28.5 -68.5t68.5 -28.5t68.5 28.5t28.5 68.5z" />
    <glyph glyph-name="plusminus" unicode="&#xb1;" horiz-adv-x="666" 
d="M251 485v121h164v-121h220v-152h-220v-121h-164v121h-220v152h220zM31 30v152h604v-152h-604z" />
    <glyph glyph-name="twosuperior" unicode="&#xb2;" horiz-adv-x="450" 
d="M428 439h-367l20 114l202 141q37 26 37 47q0 29 -34 29q-42 0 -54 -53l-134 20q18 72 73 115.5t134 43.5q71 0 119 -33.5t48 -97.5q0 -38 -18.5 -69.5t-37.5 -47t-52 -36.5l-81 -50h166z" />
    <glyph glyph-name="threesuperior" unicode="&#xb3;" horiz-adv-x="450" 
d="M445 581q0 -75 -58.5 -114t-133.5 -39q-73 0 -124 34t-65 100l131 32q5 -21 21 -33.5t39 -12.5q19 0 32 9t13 25q0 37 -63 37h-41l17 98h47q64 0 64 36q0 28 -35 28q-18 0 -33 -10t-20 -25l-126 33q23 58 74 87.5t115 29.5q69 0 118.5 -29.5t49.5 -95.5q0 -37 -24.5 -63
t-57.5 -35q28 -11 44 -35.5t16 -56.5z" />
    <glyph glyph-name="acute" unicode="&#xb4;" 
d="M463 728l-178 -144h-165l135 144h208z" />
    <glyph glyph-name="mu" unicode="&#xb5;" horiz-adv-x="759" 
d="M436 68h-4q-10 -28 -37 -54t-64 -26q-43 0 -59 22h-2l-45 -250h-223l136 766h225l-47 -267q-5 -30 -5 -45q0 -46 45 -46q27 0 43.5 23t22.5 57l50 278h224l-56 -319q-10 -55 34 -55q6 0 30 6l-28 -154q-40 -18 -99 -18q-120 0 -141 82z" />
    <glyph glyph-name="paragraph" unicode="&#xb6;" horiz-adv-x="643" 
d="M501 -133h-151l124 703h-56l-124 -703h-150l81 463q-87 5 -135 43.5t-48 105.5q0 115 78.5 172t216.5 57h312z" />
    <glyph glyph-name="periodcentered" unicode="&#xb7;" horiz-adv-x="354" 
d="M158 168q-54 0 -87.5 31t-33.5 75q0 59 39 99.5t100 40.5q52 0 86 -31.5t34 -74.5q0 -59 -39 -99.5t-99 -40.5z" />
    <glyph glyph-name="cedilla" unicode="&#xb8;" 
d="M235 -130q0 -56 -48 -82.5t-116 -26.5q-75 0 -136 23l41 76q35 -16 85 -16q39 0 39 22q0 19 -34 19q-24 0 -43 -6l-36 34l90 88h113l-59 -54q6 1 17 1q31 0 59 -18t28 -60z" />
    <glyph glyph-name="onesuperior" unicode="&#xb9;" horiz-adv-x="450" 
d="M361 439h-147l52 293l-84 -45l-43 110l167 88h134z" />
    <glyph glyph-name="ordmasculine" unicode="&#xba;" horiz-adv-x="390" 
d="M221 424q-67 0 -111 33.5t-44 93.5q0 75 48 125t129 50q69 0 113 -33.5t44 -93.5q0 -75 -48 -125t-131 -50zM282 586q0 18 -11.5 29.5t-31.5 11.5q-24 0 -39.5 -18.5t-15.5 -43.5q0 -18 11.5 -30t31.5 -12q25 0 40 18.5t15 44.5z" />
    <glyph glyph-name="guillemotright" unicode="&#xbb;" horiz-adv-x="583" 
d="M562 270l-217 -243l-110 81l151 171l-86 166l131 72zM329 282l-217 -243l-112 81l151 171l-83 154l133 72z" />
    <glyph glyph-name="onequarter" unicode="&#xbc;" horiz-adv-x="1000" 
d="M917 80h-61l-14 -80h-132l14 80h-210l21 118l202 247h181l-44 -252h63zM744 193l20 118h-2l-96 -118h78zM329 263h-147l52 292l-84 -45l-43 110l167 88h134zM790 687l-485 -722l-85 54l484 720z" />
    <glyph glyph-name="onehalf" unicode="&#xbd;" horiz-adv-x="1000" 
d="M914 0h-367l20 114l202 141q37 26 37 45q0 31 -34 31q-42 0 -54 -53l-134 20q18 72 73 115.5t134 43.5q71 0 119 -33.5t48 -97.5q0 -38 -18.5 -69.5t-37.5 -47t-52 -36.5l-81 -50h166zM329 263h-147l52 292l-84 -45l-43 110l167 88h134zM790 687l-485 -722l-85 54
l484 720z" />
    <glyph glyph-name="threequarters" unicode="&#xbe;" horiz-adv-x="1000" 
d="M912 79h-59l-14 -79h-133l14 79h-214l21 119l213 247h177l-44 -251h59zM741 194l20 115h-1l-97 -115h78zM410 409q0 -75 -58.5 -114t-133.5 -39q-73 0 -124 33.5t-65 99.5l131 32q11 -45 60 -45q17 0 31 8.5t14 24.5q0 35 -63 35h-41l17 98h47q64 0 64 34q0 28 -35 28
q-18 0 -33 -9.5t-20 -24.5l-126 33q23 58 74 87t115 29q70 0 119 -28.5t49 -94.5q0 -37 -24.5 -63t-57.5 -35q60 -23 60 -89zM790 687l-485 -722l-85 54l484 720z" />
    <glyph glyph-name="questiondown" unicode="&#xbf;" horiz-adv-x="583" 
d="M126 199q42 24 48 55l4 26h207l-6 -37q-10 -54 -39 -86.5t-85 -70.5l-21 -14q-25 -16 -34 -27.5t-9 -27.5q0 -33 41 -33q32 0 50.5 22.5t24.5 57.5l202 -36q-26 -114 -110 -170.5t-194 -56.5q-109 0 -177 44t-68 142q0 75 38.5 118.5t127.5 93.5zM300 542q52 0 84 -30
t32 -72q0 -56 -37.5 -95t-95.5 -39q-50 0 -82.5 30t-32.5 72q0 56 37 95t95 39z" />
    <glyph glyph-name="Agrave" unicode="&#xc0;" horiz-adv-x="775" 
d="M720 0h-240l-16 108h-230l-59 -108h-258l435 708h244zM445 285l-21 182l-101 -182h122zM257 908h208l126 -144h-165z" />
    <glyph glyph-name="Aacute" unicode="&#xc1;" horiz-adv-x="775" 
d="M720 0h-240l-16 108h-230l-59 -108h-258l435 708h244zM445 285l-21 182l-101 -182h122zM717 908l-178 -144h-165l135 144h208z" />
    <glyph glyph-name="Acircumflex" unicode="&#xc2;" horiz-adv-x="775" 
d="M720 0h-240l-16 108h-230l-59 -108h-258l435 708h244zM445 285l-21 182l-101 -182h122zM697 764h-152l-55 69l-79 -69h-150l161 144h167z" />
    <glyph glyph-name="Atilde" unicode="&#xc3;" horiz-adv-x="775" 
d="M720 0h-240l-16 108h-230l-59 -108h-258l435 708h244zM445 285l-21 182l-101 -182h122zM688 900q-15 -61 -52 -100t-87 -39q-39 0 -77 23q-38 22 -59 22q-31 0 -44 -36h-79q14 59 50.5 97t86.5 38q32 0 78 -24q41 -21 62 -21q27 0 43 40h78z" />
    <glyph glyph-name="Adieresis" unicode="&#xc4;" horiz-adv-x="775" 
d="M720 0h-240l-16 108h-230l-59 -108h-258l435 708h244zM445 285l-21 182l-101 -182h122zM359 763q-41 0 -67 24t-26 58q0 45 30 76.5t77 31.5q40 0 66 -24.5t26 -57.5q0 -45 -30 -76.5t-76 -31.5zM610 763q-41 0 -67 24t-26 58q0 45 30 76.5t77 31.5q40 0 66 -24.5
t26 -57.5q0 -45 -30 -76.5t-76 -31.5z" />
    <glyph glyph-name="Aring" unicode="&#xc5;" horiz-adv-x="775" 
d="M720 0h-240l-16 108h-230l-59 -108h-258l435 708h244zM445 285l-21 182l-101 -182h122zM478 745q-44 0 -71.5 26t-27.5 66q0 55 36 93.5t90 38.5q44 0 72 -25.5t28 -66.5q0 -55 -36 -93.5t-91 -38.5zM554 872q0 22 -14.5 37t-38.5 15q-30 0 -50.5 -24t-20.5 -57
q0 -23 14 -37.5t38 -14.5q31 0 51.5 23.5t20.5 57.5z" />
    <glyph glyph-name="AE" unicode="&#xc6;" horiz-adv-x="1012" 
d="M1015 708l-34 -193h-245l-12 -68h234l-32 -180h-234l-13 -74h274l-34 -193h-485l19 109h-179l-72 -109h-260l483 708h590zM485 287l40 228h-4l-148 -228h112z" />
    <glyph glyph-name="Ccedilla" unicode="&#xc7;" horiz-adv-x="686" 
d="M477 -130q0 -56 -48 -82.5t-116 -26.5q-75 0 -136 23l41 76q35 -16 85 -16q39 0 39 22q0 19 -34 19q-24 0 -43 -6l-36 34l73 72q-128 17 -199.5 99t-71.5 209q0 183 121 309t305 126q88 0 159 -28t110 -71l-161 -166q-36 51 -114 51q-74 0 -121 -56.5t-47 -137.5
q0 -54 34 -89t96 -35q69 0 128 55l114 -170q-100 -88 -244 -99l-38 -35q6 1 17 1q31 0 59 -18t28 -60z" />
    <glyph glyph-name="Egrave" unicode="&#xc8;" horiz-adv-x="592" 
d="M499 0h-492l125 708h463l-34 -193h-245l-12 -68h234l-32 -180h-234l-13 -74h274zM154 908h208l126 -144h-165z" />
    <glyph glyph-name="Eacute" unicode="&#xc9;" horiz-adv-x="592" 
d="M499 0h-492l125 708h463l-34 -193h-245l-12 -68h234l-32 -180h-234l-13 -74h274zM617 908l-178 -144h-165l135 144h208z" />
    <glyph glyph-name="Ecircumflex" unicode="&#xca;" horiz-adv-x="592" 
d="M499 0h-492l125 708h463l-34 -193h-245l-12 -68h234l-32 -180h-234l-13 -74h274zM596 764h-152l-55 69l-79 -69h-150l161 144h167z" />
    <glyph glyph-name="Edieresis" unicode="&#xcb;" horiz-adv-x="592" 
d="M499 0h-492l125 708h463l-34 -193h-245l-12 -68h234l-32 -180h-234l-13 -74h274zM259 763q-41 0 -67 24t-26 58q0 45 30 76.5t77 31.5q40 0 66 -24.5t26 -57.5q0 -45 -30 -76.5t-76 -31.5zM510 763q-41 0 -67 24t-26 58q0 45 30 76.5t77 31.5q40 0 66 -24.5t26 -57.5
q0 -45 -30 -76.5t-76 -31.5z" />
    <glyph glyph-name="Igrave" unicode="&#xcc;" horiz-adv-x="367" 
d="M240 0h-233l125 708h233zM32 908h208l126 -144h-165z" />
    <glyph glyph-name="Iacute" unicode="&#xcd;" horiz-adv-x="367" 
d="M240 0h-233l125 708h233zM480 908l-178 -144h-165l135 144h208z" />
    <glyph glyph-name="Icircumflex" unicode="&#xce;" horiz-adv-x="367" 
d="M240 0h-233l125 708h233zM476 764h-152l-55 69l-79 -69h-150l161 144h167z" />
    <glyph glyph-name="Idieresis" unicode="&#xcf;" horiz-adv-x="367" 
d="M240 0h-233l125 708h233zM134 763q-41 0 -67 24t-26 58q0 45 30 76.5t77 31.5q40 0 66 -24.5t26 -57.5q0 -45 -30 -76.5t-76 -31.5zM385 763q-41 0 -67 24t-26 58q0 45 30 76.5t77 31.5q40 0 66 -24.5t26 -57.5q0 -45 -30 -76.5t-76 -31.5z" />
    <glyph glyph-name="Eth" unicode="&#xd0;" horiz-adv-x="787" 
d="M57 286h-46l25 142h47l49 280h293q63 0 121 -17t108 -51.5t80.5 -95t30.5 -138.5q0 -184 -121.5 -295t-310.5 -111h-326zM309 428h113l-25 -142h-113l-16 -87h75q85 0 133.5 54t48.5 128q0 58 -35 94.5t-104 36.5h-62z" />
    <glyph glyph-name="Ntilde" unicode="&#xd1;" horiz-adv-x="791" 
d="M664 0h-233l-140 351h-4l-55 -351h-225l125 708h227l143 -369h4l58 369h225zM680 900q-15 -61 -52 -100t-87 -39q-39 0 -77 23q-38 22 -59 22q-31 0 -44 -36h-79q14 59 50.5 97t86.5 38q32 0 78 -24q41 -21 62 -21q27 0 43 40h78z" />
    <glyph glyph-name="Ograve" unicode="&#xd2;" horiz-adv-x="833" 
d="M382 -18q-167 0 -259 88.5t-92 233.5q0 180 119.5 301t310.5 121q168 0 260 -88t92 -234q0 -180 -119.5 -301t-311.5 -121zM572 387q0 56 -34.5 92.5t-95.5 36.5q-75 0 -122.5 -58t-47.5 -135q0 -56 34.5 -92.5t96.5 -36.5q75 0 122 57.5t47 135.5zM271 908h208l126 -144
h-165z" />
    <glyph glyph-name="Oacute" unicode="&#xd3;" horiz-adv-x="833" 
d="M382 -18q-167 0 -259 88.5t-92 233.5q0 180 119.5 301t310.5 121q168 0 260 -88t92 -234q0 -180 -119.5 -301t-311.5 -121zM572 387q0 56 -34.5 92.5t-95.5 36.5q-75 0 -122.5 -58t-47.5 -135q0 -56 34.5 -92.5t96.5 -36.5q75 0 122 57.5t47 135.5zM730 908l-178 -144
h-165l135 144h208z" />
    <glyph glyph-name="Ocircumflex" unicode="&#xd4;" horiz-adv-x="833" 
d="M382 -18q-167 0 -259 88.5t-92 233.5q0 180 119.5 301t310.5 121q168 0 260 -88t92 -234q0 -180 -119.5 -301t-311.5 -121zM572 387q0 56 -34.5 92.5t-95.5 36.5q-75 0 -122.5 -58t-47.5 -135q0 -56 34.5 -92.5t96.5 -36.5q75 0 122 57.5t47 135.5zM711 764h-152l-55 69
l-79 -69h-150l161 144h167z" />
    <glyph glyph-name="Otilde" unicode="&#xd5;" horiz-adv-x="833" 
d="M382 -18q-167 0 -259 88.5t-92 233.5q0 180 119.5 301t310.5 121q168 0 260 -88t92 -234q0 -180 -119.5 -301t-311.5 -121zM572 387q0 56 -34.5 92.5t-95.5 36.5q-75 0 -122.5 -58t-47.5 -135q0 -56 34.5 -92.5t96.5 -36.5q75 0 122 57.5t47 135.5zM702 900
q-15 -61 -52 -100t-87 -39q-39 0 -77 23q-38 22 -59 22q-31 0 -44 -36h-79q14 59 50.5 97t86.5 38q32 0 78 -24q41 -21 62 -21q27 0 43 40h78z" />
    <glyph glyph-name="Odieresis" unicode="&#xd6;" horiz-adv-x="833" 
d="M382 -18q-167 0 -259 88.5t-92 233.5q0 180 119.5 301t310.5 121q168 0 260 -88t92 -234q0 -180 -119.5 -301t-311.5 -121zM572 387q0 56 -34.5 92.5t-95.5 36.5q-75 0 -122.5 -58t-47.5 -135q0 -56 34.5 -92.5t96.5 -36.5q75 0 122 57.5t47 135.5zM375 763q-41 0 -67 24
t-26 58q0 45 30 76.5t77 31.5q40 0 66 -24.5t26 -57.5q0 -45 -30 -76.5t-76 -31.5zM626 763q-41 0 -67 24t-26 58q0 45 30 76.5t77 31.5q40 0 66 -24.5t26 -57.5q0 -45 -30 -76.5t-76 -31.5z" />
    <glyph glyph-name="multiply" unicode="&#xd7;" horiz-adv-x="666" 
d="M164 575l171 -163l166 162l112 -104l-167 -165q29 -27 86.5 -82t86.5 -82l-114 -112q-28 28 -85 82.5t-86 82.5l-171 -165q-18 18 -56 52.5t-56 52.5l169 168l-172 162z" />
    <glyph glyph-name="Oslash" unicode="&#xd8;" horiz-adv-x="833" 
d="M157 43l-108 -98l-80 80l109 99q-47 77 -47 180q0 180 119.5 301t310.5 121q129 0 221 -57l102 96l80 -81l-103 -93q52 -78 52 -187q0 -180 -119.5 -301t-311.5 -121q-134 0 -225 61zM392 188q90 0 138 59t48 141q0 10 -4 30l-240 -220q23 -10 58 -10zM449 519
q-90 0 -138 -59.5t-48 -141.5q0 -13 3 -28l240 220q-21 9 -57 9z" />
    <glyph glyph-name="Ugrave" unicode="&#xd9;" horiz-adv-x="771" 
d="M696 260q-23 -131 -111 -204.5t-241 -73.5q-138 0 -221 59.5t-83 161.5q0 26 6 66l75 439h229l-73 -409q-2 -11 -2 -33q0 -36 21.5 -59.5t66.5 -23.5q55 0 77.5 30.5t32.5 81.5l75 413h225zM233 908h208l126 -144h-165z" />
    <glyph glyph-name="Uacute" unicode="&#xda;" horiz-adv-x="771" 
d="M696 260q-23 -131 -111 -204.5t-241 -73.5q-138 0 -221 59.5t-83 161.5q0 26 6 66l75 439h229l-73 -409q-2 -11 -2 -33q0 -36 21.5 -59.5t66.5 -23.5q55 0 77.5 30.5t32.5 81.5l75 413h225zM702 908l-178 -144h-165l135 144h208z" />
    <glyph glyph-name="Ucircumflex" unicode="&#xdb;" horiz-adv-x="771" 
d="M696 260q-23 -131 -111 -204.5t-241 -73.5q-138 0 -221 59.5t-83 161.5q0 26 6 66l75 439h229l-73 -409q-2 -11 -2 -33q0 -36 21.5 -59.5t66.5 -23.5q55 0 77.5 30.5t32.5 81.5l75 413h225zM678 764h-152l-55 69l-79 -69h-150l161 144h167z" />
    <glyph glyph-name="Udieresis" unicode="&#xdc;" horiz-adv-x="771" 
d="M696 260q-23 -131 -111 -204.5t-241 -73.5q-138 0 -221 59.5t-83 161.5q0 26 6 66l75 439h229l-73 -409q-2 -11 -2 -33q0 -36 21.5 -59.5t66.5 -23.5q55 0 77.5 30.5t32.5 81.5l75 413h225zM343 763q-41 0 -67 24t-26 58q0 45 30 76.5t77 31.5q40 0 66 -24.5t26 -57.5
q0 -45 -30 -76.5t-76 -31.5zM594 763q-41 0 -67 24t-26 58q0 45 30 76.5t77 31.5q40 0 66 -24.5t26 -57.5q0 -45 -30 -76.5t-76 -31.5z" />
    <glyph glyph-name="Yacute" unicode="&#xdd;" horiz-adv-x="677" 
d="M789 708l-349 -417l-51 -291h-231l51 291l-187 417h258l76 -219l151 219h282zM668 908l-178 -144h-165l135 144h208z" />
    <glyph glyph-name="Thorn" unicode="&#xde;" horiz-adv-x="690" 
d="M261 127l-24 -127h-230l125 708h231l-18 -104h33q135 0 208.5 -56.5t73.5 -157.5q0 -133 -86 -198t-245 -65h-68zM328 301q102 0 102 66q0 56 -82 56h-35l-22 -122h37z" />
    <glyph glyph-name="germandbls" unicode="&#xdf;" horiz-adv-x="712" 
d="M354 -12q-55 0 -96 11l28 164q19 -7 48 -7q95 0 95 90q0 34 -25.5 52.5t-64.5 18.5h-9l27 161h10q35 0 60.5 17t25.5 54q0 54 -59 54q-67 0 -85 -99l-89 -504h-227l90 509q8 44 20.5 79.5t37 70t58.5 58t87 37.5t120 14q37 0 72 -5.5t70.5 -19t61.5 -33.5t42.5 -53
t16.5 -74q0 -75 -40.5 -119t-103.5 -57v-2q52 -14 90.5 -57.5t38.5 -111.5q0 -121 -77 -184.5t-223 -63.5z" />
    <glyph glyph-name="agrave" unicode="&#xe0;" horiz-adv-x="588" 
d="M329 199l3 17h-13q-122 0 -122 -56q0 -36 46 -36q33 0 56.5 21t29.5 54zM505 81q-7 -41 -7 -81h-192q0 22 2 48h-2q-55 -62 -148 -62q-63 0 -110 35t-47 104q0 205 337 205q1 5 1 11q0 20 -17 30.5t-46 10.5q-63 0 -117 -46l-98 112q47 44 114.5 69t130.5 25
q118 0 179.5 -48.5t61.5 -136.5q0 -37 -8 -83zM119 728h208l126 -144h-165z" />
    <glyph glyph-name="aacute" unicode="&#xe1;" horiz-adv-x="588" 
d="M328 199l3 17h-13q-122 0 -122 -56q0 -36 46 -36q33 0 56.5 21t29.5 54zM504 81q-7 -41 -7 -81h-192q0 22 2 48h-2q-55 -62 -148 -62q-63 0 -110 35t-47 104q0 205 337 205q1 5 1 11q0 20 -17 30.5t-46 10.5q-63 0 -117 -46l-98 112q47 44 114.5 69t130.5 25
q118 0 179.5 -48.5t61.5 -136.5q0 -37 -8 -83zM575 728l-178 -144h-165l135 144h208z" />
    <glyph glyph-name="acircumflex" unicode="&#xe2;" horiz-adv-x="588" 
d="M328 199l3 17h-13q-122 0 -122 -56q0 -36 46 -36q33 0 56.5 21t29.5 54zM504 81q-7 -41 -7 -81h-192q0 22 2 48h-2q-55 -62 -148 -62q-63 0 -110 35t-47 104q0 205 337 205q1 5 1 11q0 20 -17 30.5t-46 10.5q-63 0 -117 -46l-98 112q47 44 114.5 69t130.5 25
q118 0 179.5 -48.5t61.5 -136.5q0 -37 -8 -83zM551 584h-152l-55 69l-79 -69h-150l161 144h167z" />
    <glyph glyph-name="atilde" unicode="&#xe3;" horiz-adv-x="588" 
d="M328 199l3 17h-13q-122 0 -122 -56q0 -36 46 -36q33 0 56.5 21t29.5 54zM504 81q-7 -41 -7 -81h-192q0 22 2 48h-2q-55 -62 -148 -62q-63 0 -110 35t-47 104q0 205 337 205q1 5 1 11q0 20 -17 30.5t-46 10.5q-63 0 -117 -46l-98 112q47 44 114.5 69t130.5 25
q118 0 179.5 -48.5t61.5 -136.5q0 -37 -8 -83zM541 720q-15 -61 -52 -100t-87 -39q-39 0 -77 23q-38 22 -59 22q-31 0 -44 -36h-79q14 59 50.5 97t86.5 38q32 0 78 -24q41 -21 62 -21q27 0 43 40h78z" />
    <glyph glyph-name="adieresis" unicode="&#xe4;" horiz-adv-x="588" 
d="M328 199l3 17h-13q-122 0 -122 -56q0 -36 46 -36q33 0 56.5 21t29.5 54zM504 81q-7 -41 -7 -81h-192q0 22 2 48h-2q-55 -62 -148 -62q-63 0 -110 35t-47 104q0 205 337 205q1 5 1 11q0 20 -17 30.5t-46 10.5q-63 0 -117 -46l-98 112q47 44 114.5 69t130.5 25
q118 0 179.5 -48.5t61.5 -136.5q0 -37 -8 -83zM215 583q-41 0 -67 24t-26 58q0 45 30 76.5t77 31.5q40 0 66 -24.5t26 -57.5q0 -45 -30 -76.5t-76 -31.5zM466 583q-41 0 -67 24t-26 58q0 45 30 76.5t77 31.5q40 0 66 -24.5t26 -57.5q0 -45 -30 -76.5t-76 -31.5z" />
    <glyph glyph-name="aring" unicode="&#xe5;" horiz-adv-x="588" 
d="M328 199l3 17h-13q-122 0 -122 -56q0 -36 46 -36q33 0 56.5 21t29.5 54zM504 81q-7 -41 -7 -81h-192q0 22 2 48h-2q-55 -62 -148 -62q-63 0 -110 35t-47 104q0 205 337 205q1 5 1 11q0 20 -17 30.5t-46 10.5q-63 0 -117 -46l-98 112q47 44 114.5 69t130.5 25
q118 0 179.5 -48.5t61.5 -136.5q0 -37 -8 -83zM333 565q-44 0 -71.5 26t-27.5 66q0 55 36 93.5t90 38.5q44 0 72 -25.5t28 -66.5q0 -55 -36 -93.5t-91 -38.5zM409 692q0 22 -14.5 37t-38.5 15q-30 0 -50.5 -24t-20.5 -57q0 -23 14 -37.5t38 -14.5q31 0 51.5 23.5t20.5 57.5z
" />
    <glyph glyph-name="ae" unicode="&#xe6;" horiz-adv-x="922" 
d="M328 199l3 17h-13q-122 0 -122 -56q0 -36 46 -36q33 0 56.5 21t29.5 54zM638 542q115 0 182 -63t67 -172q0 -51 -14 -96h-358q-1 -3 -1 -7q0 -29 27.5 -42.5t58.5 -13.5q56 0 92 35l151 -104q-94 -95 -258 -95q-61 0 -112.5 19t-77.5 60q-58 -77 -196 -77
q-87 0 -143 33.5t-56 105.5q0 205 337 205q1 5 1 11q0 20 -17 30.5t-46 10.5q-63 0 -117 -46l-98 112q47 44 114.5 69t130.5 25q122 0 165 -61q59 61 168 61zM692 330q1 4 1 12q0 25 -18.5 40t-51.5 15q-37 0 -63.5 -21.5t-32.5 -45.5h165z" />
    <glyph glyph-name="ccedilla" unicode="&#xe7;" horiz-adv-x="504" 
d="M367 -130q0 -56 -48 -82.5t-116 -26.5q-75 0 -136 23l41 76q35 -16 85 -16q39 0 39 22q0 19 -34 19q-24 0 -43 -6l-36 34l79 78q-88 17 -138.5 77.5t-50.5 150.5q0 133 91.5 228t233.5 95q137 0 195 -70l-127 -139q-19 28 -67 28q-49 0 -80 -32.5t-31 -79.5
q0 -32 22 -54.5t63 -22.5q47 0 77 30l89 -151q-72 -57 -170 -65l-42 -39q6 1 17 1q31 0 59 -18t28 -60z" />
    <glyph glyph-name="egrave" unicode="&#xe8;" horiz-adv-x="622" 
d="M573 211h-358q-1 -3 -1 -7q0 -29 27.5 -42.5t58.5 -13.5q56 0 92 35l151 -104q-94 -95 -258 -95q-119 0 -197.5 62.5t-78.5 176.5q0 136 92.5 227.5t236.5 91.5q115 0 182 -63t67 -172q0 -51 -14 -96zM392 330q1 4 1 12q0 25 -18.5 40t-51.5 15q-37 0 -63.5 -21.5
t-32.5 -45.5h165zM135 728h208l126 -144h-165z" />
    <glyph glyph-name="eacute" unicode="&#xe9;" horiz-adv-x="622" 
d="M573 211h-358q-1 -3 -1 -7q0 -29 27.5 -42.5t58.5 -13.5q56 0 92 35l151 -104q-94 -95 -258 -95q-119 0 -197.5 62.5t-78.5 176.5q0 136 92.5 227.5t236.5 91.5q115 0 182 -63t67 -172q0 -51 -14 -96zM392 330q1 4 1 12q0 25 -18.5 40t-51.5 15q-37 0 -63.5 -21.5
t-32.5 -45.5h165zM601 728l-178 -144h-165l135 144h208z" />
    <glyph glyph-name="ecircumflex" unicode="&#xea;" horiz-adv-x="622" 
d="M573 211h-358q-1 -3 -1 -7q0 -29 27.5 -42.5t58.5 -13.5q56 0 92 35l151 -104q-94 -95 -258 -95q-119 0 -197.5 62.5t-78.5 176.5q0 136 92.5 227.5t236.5 91.5q115 0 182 -63t67 -172q0 -51 -14 -96zM392 330q1 4 1 12q0 25 -18.5 40t-51.5 15q-37 0 -63.5 -21.5
t-32.5 -45.5h165zM581 584h-152l-55 69l-79 -69h-150l161 144h167z" />
    <glyph glyph-name="edieresis" unicode="&#xeb;" horiz-adv-x="622" 
d="M573 211h-358q-1 -3 -1 -7q0 -29 27.5 -42.5t58.5 -13.5q56 0 92 35l151 -104q-94 -95 -258 -95q-119 0 -197.5 62.5t-78.5 176.5q0 136 92.5 227.5t236.5 91.5q115 0 182 -63t67 -172q0 -51 -14 -96zM392 330q1 4 1 12q0 25 -18.5 40t-51.5 15q-37 0 -63.5 -21.5
t-32.5 -45.5h165zM243 583q-41 0 -67 24t-26 58q0 45 30 76.5t77 31.5q40 0 66 -24.5t26 -57.5q0 -45 -30 -76.5t-76 -31.5zM494 583q-41 0 -67 24t-26 58q0 45 30 76.5t77 31.5q40 0 66 -24.5t26 -57.5q0 -45 -30 -76.5t-76 -31.5z" />
    <glyph glyph-name="igrave" unicode="&#xec;" horiz-adv-x="335" 
d="M219 0h-224l93 526h224zM-21 728h208l126 -144h-165z" />
    <glyph glyph-name="iacute" unicode="&#xed;" horiz-adv-x="335" 
d="M219 0h-224l93 526h224zM434 728l-178 -144h-165l135 144h208z" />
    <glyph glyph-name="icircumflex" unicode="&#xee;" horiz-adv-x="335" 
d="M219 0h-224l93 526h224zM427 584h-152l-55 69l-79 -69h-150l161 144h167z" />
    <glyph glyph-name="idieresis" unicode="&#xef;" horiz-adv-x="335" 
d="M219 0h-224l93 526h224zM89 583q-41 0 -67 24t-26 58q0 45 30 76.5t77 31.5q40 0 66 -24.5t26 -57.5q0 -45 -30 -76.5t-76 -31.5zM340 583q-41 0 -67 24t-26 58q0 45 30 76.5t77 31.5q40 0 66 -24.5t26 -57.5q0 -45 -30 -76.5t-76 -31.5z" />
    <glyph glyph-name="eth" unicode="&#xf0;" horiz-adv-x="660" 
d="M332 534q20 0 36 -3l2 1q-18 26 -43 49l-114 -43l-94 89l114 43q-20 20 -61 49l205 94q43 -37 65 -65l115 42l105 -94l-136 -49q99 -133 99 -325q0 -148 -88 -243t-242 -95q-125 0 -205.5 62t-80.5 173q0 139 83 227t240 88zM407 283q0 34 -20.5 55t-58.5 21
q-45 0 -73 -33.5t-28 -81.5q0 -34 20.5 -55t57.5 -21q47 0 74.5 33t27.5 82z" />
    <glyph glyph-name="ntilde" unicode="&#xf1;" horiz-adv-x="661" 
d="M68 423q10 50 15 103h216q0 -9 -7 -68h4q24 34 66.5 57t89.5 23q82 0 121.5 -44t39.5 -111q0 -35 -6 -67l-55 -316h-225l49 279q3 18 3 34q0 45 -46 45q-23 0 -40.5 -21t-24.5 -59l-50 -278h-224zM580 720q-15 -61 -52 -100t-87 -39q-39 0 -77 23q-38 22 -59 22
q-31 0 -44 -36h-79q14 59 50.5 97t86.5 38q32 0 78 -24q41 -21 62 -21q27 0 43 40h78z" />
    <glyph glyph-name="ograve" unicode="&#xf2;" horiz-adv-x="660" 
d="M295 -16q-125 0 -205.5 62t-80.5 173q0 138 88 230.5t238 92.5q128 0 209 -62t81 -173q0 -138 -88.5 -230.5t-241.5 -92.5zM407 283q0 34 -20.5 55t-58.5 21q-45 0 -73 -33.5t-28 -81.5q0 -34 20.5 -55t57.5 -21q47 0 74.5 33t27.5 82zM128 728h208l126 -144h-165z" />
    <glyph glyph-name="oacute" unicode="&#xf3;" horiz-adv-x="660" 
d="M295 -16q-125 0 -205.5 62t-80.5 173q0 138 88 230.5t238 92.5q128 0 209 -62t81 -173q0 -138 -88.5 -230.5t-241.5 -92.5zM407 283q0 34 -20.5 55t-58.5 21q-45 0 -73 -33.5t-28 -81.5q0 -34 20.5 -55t57.5 -21q47 0 74.5 33t27.5 82zM610 728l-178 -144h-165l135 144
h208z" />
    <glyph glyph-name="ocircumflex" unicode="&#xf4;" horiz-adv-x="660" 
d="M295 -16q-125 0 -205.5 62t-80.5 173q0 138 88 230.5t238 92.5q128 0 209 -62t81 -173q0 -138 -88.5 -230.5t-241.5 -92.5zM407 283q0 34 -20.5 55t-58.5 21q-45 0 -73 -33.5t-28 -81.5q0 -34 20.5 -55t57.5 -21q47 0 74.5 33t27.5 82zM592 584h-152l-55 69l-79 -69h-150
l161 144h167z" />
    <glyph glyph-name="otilde" unicode="&#xf5;" horiz-adv-x="660" 
d="M295 -16q-125 0 -205.5 62t-80.5 173q0 138 88 230.5t238 92.5q128 0 209 -62t81 -173q0 -138 -88.5 -230.5t-241.5 -92.5zM407 283q0 34 -20.5 55t-58.5 21q-45 0 -73 -33.5t-28 -81.5q0 -34 20.5 -55t57.5 -21q47 0 74.5 33t27.5 82zM582 720q-15 -61 -52 -100t-87 -39
q-39 0 -77 23q-38 22 -59 22q-31 0 -44 -36h-79q14 59 50.5 97t86.5 38q32 0 78 -24q41 -21 62 -21q27 0 43 40h78z" />
    <glyph glyph-name="odieresis" unicode="&#xf6;" horiz-adv-x="660" 
d="M295 -16q-125 0 -205.5 62t-80.5 173q0 138 88 230.5t238 92.5q128 0 209 -62t81 -173q0 -138 -88.5 -230.5t-241.5 -92.5zM407 283q0 34 -20.5 55t-58.5 21q-45 0 -73 -33.5t-28 -81.5q0 -34 20.5 -55t57.5 -21q47 0 74.5 33t27.5 82zM257 583q-41 0 -67 24t-26 58
q0 45 30 76.5t77 31.5q40 0 66 -24.5t26 -57.5q0 -45 -30 -76.5t-76 -31.5zM508 583q-41 0 -67 24t-26 58q0 45 30 76.5t77 31.5q40 0 66 -24.5t26 -57.5q0 -45 -30 -76.5t-76 -31.5z" />
    <glyph glyph-name="divide" unicode="&#xf7;" horiz-adv-x="666" 
d="M235 495q0 38 29.5 65.5t69.5 27.5t68.5 -27.5t28.5 -65.5q0 -40 -28.5 -67.5t-68.5 -27.5t-69.5 28t-29.5 67zM235 111q0 38 29.5 65.5t69.5 27.5t68.5 -27.5t28.5 -65.5t-28.5 -66.5t-68.5 -28.5t-69.5 28.5t-29.5 66.5zM587 230h-508v147h508v-147z" />
    <glyph glyph-name="oslash" unicode="&#xf8;" horiz-adv-x="660" 
d="M589 423q36 -49 36 -116q0 -138 -88.5 -230.5t-241.5 -92.5q-106 0 -171 44l-94 -82l-69 82l87 72q-39 46 -39 123q0 132 88.5 225.5t237.5 93.5q109 0 177 -45l84 71l70 -81zM413 268q0 9 -2 15l-132 -114q9 -7 31 -7q50 0 76.5 32t26.5 74zM222 263q0 -11 1 -14
l132 115q-8 4 -25 4q-50 0 -79 -32t-29 -73z" />
    <glyph glyph-name="ugrave" unicode="&#xf9;" horiz-adv-x="658" 
d="M562 103q-10 -50 -15 -103h-216q0 9 7 68h-4q-24 -34 -66.5 -57t-89.5 -23q-82 0 -121.5 44t-39.5 111q0 35 6 67l55 316h225l-49 -279q-3 -18 -3 -34q0 -45 46 -45q23 0 40.5 21t24.5 59l50 278h224zM122 728h208l126 -144h-165z" />
    <glyph glyph-name="uacute" unicode="&#xfa;" horiz-adv-x="658" 
d="M562 103q-10 -50 -15 -103h-216q0 9 7 68h-4q-24 -34 -66.5 -57t-89.5 -23q-82 0 -121.5 44t-39.5 111q0 35 6 67l55 316h225l-49 -279q-3 -18 -3 -34q0 -45 46 -45q23 0 40.5 21t24.5 59l50 278h224zM618 728l-178 -144h-165l135 144h208z" />
    <glyph glyph-name="ucircumflex" unicode="&#xfb;" horiz-adv-x="658" 
d="M562 103q-10 -50 -15 -103h-216q0 9 7 68h-4q-24 -34 -66.5 -57t-89.5 -23q-82 0 -121.5 44t-39.5 111q0 35 6 67l55 316h225l-49 -279q-3 -18 -3 -34q0 -45 46 -45q23 0 40.5 21t24.5 59l50 278h224zM589 584h-152l-55 69l-79 -69h-150l161 144h167z" />
    <glyph glyph-name="udieresis" unicode="&#xfc;" horiz-adv-x="658" 
d="M562 103q-10 -50 -15 -103h-216q0 9 7 68h-4q-24 -34 -66.5 -57t-89.5 -23q-82 0 -121.5 44t-39.5 111q0 35 6 67l55 316h225l-49 -279q-3 -18 -3 -34q0 -45 46 -45q23 0 40.5 21t24.5 59l50 278h224zM252 583q-41 0 -67 24t-26 58q0 45 30 76.5t77 31.5q40 0 66 -24.5
t26 -57.5q0 -45 -30 -76.5t-76 -31.5zM503 583q-41 0 -67 24t-26 58q0 45 30 76.5t77 31.5q40 0 66 -24.5t26 -57.5q0 -45 -30 -76.5t-76 -31.5z" />
    <glyph glyph-name="yacute" unicode="&#xfd;" horiz-adv-x="631" 
d="M144 -4l6 11l-126 519h248l32 -288h4l123 288h240l-305 -558q-60 -111 -120.5 -159.5t-168.5 -48.5q-65 0 -115 16l38 177q27 -12 53 -12q62 0 91 55zM612 728l-178 -144h-165l135 144h208z" />
    <glyph glyph-name="thorn" unicode="&#xfe;" horiz-adv-x="690" 
d="M437 283q0 33 -21 54.5t-59 21.5q-45 0 -73.5 -33.5t-28.5 -81.5q0 -34 21 -55t58 -21q47 0 75 33t28 82zM173 -240h-222l176 996h224l-48 -276h2q24 26 62 42t76 16q100 0 156 -63.5t56 -161.5q0 -136 -84 -231t-209 -95q-41 0 -79.5 15t-56.5 40h-2z" />
    <glyph glyph-name="ydieresis" unicode="&#xff;" horiz-adv-x="631" 
d="M144 -4l6 11l-126 519h248l32 -288h4l123 288h240l-305 -558q-60 -111 -120.5 -159.5t-168.5 -48.5q-65 0 -115 16l38 177q27 -12 53 -12q62 0 91 55zM248 583q-41 0 -67 24t-26 58q0 45 30 76.5t77 31.5q40 0 66 -24.5t26 -57.5q0 -45 -30 -76.5t-76 -31.5zM499 583
q-41 0 -67 24t-26 58q0 45 30 76.5t77 31.5q40 0 66 -24.5t26 -57.5q0 -45 -30 -76.5t-76 -31.5z" />
    <glyph glyph-name="Amacron" unicode="&#x100;" horiz-adv-x="775" 
d="M720 0h-240l-16 108h-230l-59 -108h-258l435 708h244zM445 285l-21 182l-101 -182h122zM660 791h-358l16 95h358z" />
    <glyph glyph-name="amacron" unicode="&#x101;" horiz-adv-x="588" 
d="M328 199l3 17h-13q-122 0 -122 -56q0 -36 46 -36q33 0 56.5 21t29.5 54zM504 81q-7 -41 -7 -81h-192q0 22 2 48h-2q-55 -62 -148 -62q-63 0 -110 35t-47 104q0 205 337 205q1 5 1 11q0 20 -17 30.5t-46 10.5q-63 0 -117 -46l-98 112q47 44 114.5 69t130.5 25
q118 0 179.5 -48.5t61.5 -136.5q0 -37 -8 -83zM510 611h-358l16 95h358z" />
    <glyph glyph-name="Abreve" unicode="&#x102;" horiz-adv-x="775" 
d="M720 0h-240l-16 108h-230l-59 -108h-258l435 708h244zM445 285l-21 182l-101 -182h122zM668 908q-28 -144 -193 -144t-165 144h107q0 -41 62 -41q76 0 82 41h107z" />
    <glyph glyph-name="abreve" unicode="&#x103;" horiz-adv-x="588" 
d="M328 199l3 17h-13q-122 0 -122 -56q0 -36 46 -36q33 0 56.5 21t29.5 54zM504 81q-7 -41 -7 -81h-192q0 22 2 48h-2q-55 -62 -148 -62q-63 0 -110 35t-47 104q0 205 337 205q1 5 1 11q0 20 -17 30.5t-46 10.5q-63 0 -117 -46l-98 112q47 44 114.5 69t130.5 25
q118 0 179.5 -48.5t61.5 -136.5q0 -37 -8 -83zM520 728q-28 -144 -193 -144t-165 144h107q0 -41 62 -41q76 0 82 41h107z" />
    <glyph glyph-name="Aogonek" unicode="&#x104;" horiz-adv-x="775" 
d="M590 -196q-64 -43 -139 -43q-110 0 -110 87q0 73 139 152l-16 108h-230l-59 -108h-258l435 708h244l124 -708h-109q-70 -44 -100 -70.5t-30 -45.5q0 -7 6.5 -12t14.5 -5q27 0 60 18zM445 285l-21 182l-101 -182h122z" />
    <glyph glyph-name="aogonek" unicode="&#x105;" horiz-adv-x="588" 
d="M415 -196q-64 -43 -139 -43q-110 0 -110 87q0 73 139 152q0 22 2 48h-2q-55 -62 -148 -62q-63 0 -110 35t-47 104q0 205 337 205q1 5 1 11q0 20 -17 30.5t-46 10.5q-63 0 -117 -46l-98 112q47 44 114.5 69t130.5 25q118 0 179.5 -48.5t61.5 -136.5q0 -37 -8 -83l-34 -193
q-7 -41 -7 -81h-61q-70 -44 -100 -70.5t-30 -45.5q0 -7 6.5 -12t14.5 -5q27 0 60 18zM328 199l3 17h-13q-122 0 -122 -56q0 -36 46 -36q33 0 56.5 21t29.5 54z" />
    <glyph glyph-name="Cacute" unicode="&#x106;" horiz-adv-x="686" 
d="M655 81q-113 -101 -286 -101q-158 0 -248 84.5t-90 228.5q0 183 121 309t305 126q88 0 159 -28t110 -71l-161 -166q-36 51 -114 51q-74 0 -121 -56.5t-47 -137.5q0 -54 34 -89t96 -35q69 0 128 55zM704 908l-178 -144h-165l135 144h208z" />
    <glyph glyph-name="cacute" unicode="&#x107;" horiz-adv-x="504" 
d="M529 472l-127 -139q-19 28 -67 28q-49 0 -80 -32.5t-31 -79.5q0 -32 22 -54.5t63 -22.5q47 0 77 30l89 -151q-85 -67 -207 -67q-117 0 -188 64t-71 171q0 133 91.5 228t233.5 95q137 0 195 -70zM592 728l-178 -144h-165l135 144h208z" />
    <glyph glyph-name="Ccircumflex" unicode="&#x108;" horiz-adv-x="686" 
d="M655 81q-113 -101 -286 -101q-158 0 -248 84.5t-90 228.5q0 183 121 309t305 126q88 0 159 -28t110 -71l-161 -166q-36 51 -114 51q-74 0 -121 -56.5t-47 -137.5q0 -54 34 -89t96 -35q69 0 128 55zM697 764h-152l-55 69l-79 -69h-150l161 144h167z" />
    <glyph glyph-name="ccircumflex" unicode="&#x109;" horiz-adv-x="504" 
d="M529 472l-127 -139q-19 28 -67 28q-49 0 -80 -32.5t-31 -79.5q0 -32 22 -54.5t63 -22.5q47 0 77 30l89 -151q-85 -67 -207 -67q-117 0 -188 64t-71 171q0 133 91.5 228t233.5 95q137 0 195 -70zM571 584h-152l-55 69l-79 -69h-150l161 144h167z" />
    <glyph glyph-name="Cdotaccent" unicode="&#x10a;" horiz-adv-x="686" 
d="M655 81q-113 -101 -286 -101q-158 0 -248 84.5t-90 228.5q0 183 121 309t305 126q88 0 159 -28t110 -71l-161 -166q-36 51 -114 51q-74 0 -121 -56.5t-47 -137.5q0 -54 34 -89t96 -35q69 0 128 55zM483 757q-44 0 -72 26t-28 62q0 49 32 82.5t82 33.5q43 0 71 -26t28 -62
q0 -49 -32 -82.5t-81 -33.5z" />
    <glyph glyph-name="cdotaccent" unicode="&#x10b;" horiz-adv-x="504" 
d="M529 472l-127 -139q-19 28 -67 28q-49 0 -80 -32.5t-31 -79.5q0 -32 22 -54.5t63 -22.5q47 0 77 30l89 -151q-85 -67 -207 -67q-117 0 -188 64t-71 171q0 133 91.5 228t233.5 95q137 0 195 -70zM349 577q-44 0 -72 26t-28 62q0 49 32 82.5t82 33.5q43 0 71 -26t28 -62
q0 -49 -32 -82.5t-81 -33.5z" />
    <glyph glyph-name="Ccaron" unicode="&#x10c;" horiz-adv-x="686" 
d="M655 81q-113 -101 -286 -101q-158 0 -248 84.5t-90 228.5q0 183 121 309t305 126q88 0 159 -28t110 -71l-161 -166q-36 51 -114 51q-74 0 -121 -56.5t-47 -137.5q0 -54 34 -89t96 -35q69 0 128 55zM716 908l-158 -144h-167l-111 144h150l55 -70l79 70h152z" />
    <glyph glyph-name="ccaron" unicode="&#x10d;" horiz-adv-x="504" 
d="M529 472l-127 -139q-19 28 -67 28q-49 0 -80 -32.5t-31 -79.5q0 -32 22 -54.5t63 -22.5q47 0 77 30l89 -151q-85 -67 -207 -67q-117 0 -188 64t-71 171q0 133 91.5 228t233.5 95q137 0 195 -70zM580 728l-158 -144h-167l-111 144h150l55 -70l79 70h152z" />
    <glyph glyph-name="Dcaron" unicode="&#x10e;" horiz-adv-x="787" 
d="M7 0l125 708h293q63 0 121 -17t108 -51.5t80.5 -95t30.5 -138.5q0 -184 -121.5 -295t-310.5 -111h-326zM324 512l-56 -313h75q85 0 133.5 54t48.5 128q0 58 -35 94.5t-104 36.5h-62zM661 908l-158 -144h-167l-111 144h150l55 -70l79 70h152z" />
    <glyph glyph-name="dcaron" unicode="&#x10f;" horiz-adv-x="874" 
d="M221 -13q-100 0 -156 63.5t-56 161.5q0 136 84 231t209 95q40 0 78 -16t56 -42h2l48 276h223l-133 -756h-201l10 56h-2q-52 -69 -162 -69zM227 244q0 -33 21 -54.5t59 -21.5q45 0 73.5 33.5t28.5 81.5q0 34 -21 55t-58 21q-47 0 -75 -33t-28 -82zM978 708l-131 -182h-161
l107 182h185z" />
    <glyph glyph-name="Dcroat" unicode="&#x110;" horiz-adv-x="787" 
d="M57 286h-46l25 142h47l49 280h293q63 0 121 -17t108 -51.5t80.5 -95t30.5 -138.5q0 -184 -121.5 -295t-310.5 -111h-326zM309 428h113l-25 -142h-113l-16 -87h75q85 0 133.5 54t48.5 128q0 58 -35 94.5t-104 36.5h-62z" />
    <glyph glyph-name="dcroat" unicode="&#x111;" horiz-adv-x="690" 
d="M347 570l20 110h105l14 76h223l-14 -76h53l-20 -110h-52l-100 -570h-201l10 56h-2q-52 -69 -162 -69q-100 0 -156 63.5t-56 161.5q0 136 84 231t209 95q40 0 78 -16t56 -42h2l15 90h-106zM227 244q0 -33 21 -54.5t59 -21.5q45 0 73.5 33.5t28.5 81.5q0 34 -21 55t-58 21
q-47 0 -75 -33t-28 -82z" />
    <glyph glyph-name="Emacron" unicode="&#x112;" horiz-adv-x="592" 
d="M499 0h-492l125 708h463l-34 -193h-245l-12 -68h234l-32 -180h-234l-13 -74h274zM547 791h-358l16 95h358z" />
    <glyph glyph-name="emacron" unicode="&#x113;" horiz-adv-x="622" 
d="M573 211h-358q-1 -3 -1 -7q0 -29 27.5 -42.5t58.5 -13.5q56 0 92 35l151 -104q-94 -95 -258 -95q-119 0 -197.5 62.5t-78.5 176.5q0 136 92.5 227.5t236.5 91.5q115 0 182 -63t67 -172q0 -51 -14 -96zM392 330q1 4 1 12q0 25 -18.5 40t-51.5 15q-37 0 -63.5 -21.5
t-32.5 -45.5h165zM547 611h-358l16 95h358z" />
    <glyph glyph-name="Ebreve" unicode="&#x114;" horiz-adv-x="592" 
d="M499 0h-492l125 708h463l-34 -193h-245l-12 -68h234l-32 -180h-234l-13 -74h274zM565 908q-28 -144 -193 -144t-165 144h107q0 -41 62 -41q76 0 82 41h107z" />
    <glyph glyph-name="ebreve" unicode="&#x115;" horiz-adv-x="622" 
d="M573 211h-358q-1 -3 -1 -7q0 -29 27.5 -42.5t58.5 -13.5q56 0 92 35l151 -104q-94 -95 -258 -95q-119 0 -197.5 62.5t-78.5 176.5q0 136 92.5 227.5t236.5 91.5q115 0 182 -63t67 -172q0 -51 -14 -96zM392 330q1 4 1 12q0 25 -18.5 40t-51.5 15q-37 0 -63.5 -21.5
t-32.5 -45.5h165zM561 728q-28 -144 -193 -144t-165 144h107q0 -41 62 -41q76 0 82 41h107z" />
    <glyph glyph-name="Edotaccent" unicode="&#x116;" horiz-adv-x="592" 
d="M499 0h-492l125 708h463l-34 -193h-245l-12 -68h234l-32 -180h-234l-13 -74h274zM376 757q-44 0 -72 26t-28 62q0 49 32 82.5t82 33.5q43 0 71 -26t28 -62q0 -49 -32 -82.5t-81 -33.5z" />
    <glyph glyph-name="edotaccent" unicode="&#x117;" horiz-adv-x="622" 
d="M573 211h-358q-1 -3 -1 -7q0 -29 27.5 -42.5t58.5 -13.5q56 0 92 35l151 -104q-94 -95 -258 -95q-119 0 -197.5 62.5t-78.5 176.5q0 136 92.5 227.5t236.5 91.5q115 0 182 -63t67 -172q0 -51 -14 -96zM392 330q1 4 1 12q0 25 -18.5 40t-51.5 15q-37 0 -63.5 -21.5
t-32.5 -45.5h165zM368 577q-44 0 -72 26t-28 62q0 49 32 82.5t82 33.5q43 0 71 -26t28 -62q0 -49 -32 -82.5t-81 -33.5z" />
    <glyph glyph-name="Eogonek" unicode="&#x118;" horiz-adv-x="592" 
d="M432 -196q-64 -43 -139 -43q-110 0 -110 87q0 72 138 152h-314l125 708h463l-34 -193h-245l-12 -68h234l-32 -180h-234l-13 -74h274l-34 -193h-46q-70 -44 -100 -70.5t-30 -45.5q0 -7 6.5 -12t14.5 -5q27 0 60 18z" />
    <glyph glyph-name="eogonek" unicode="&#x119;" horiz-adv-x="622" 
d="M361 -196q-64 -43 -139 -43q-110 0 -110 87q0 67 117 140q-98 13 -159 74t-61 161q0 136 92.5 227.5t236.5 91.5q115 0 182 -63t67 -172q0 -51 -14 -96h-358q-1 -3 -1 -7q0 -29 27.5 -42.5t58.5 -13.5q56 0 92 35l151 -104q-69 -70 -175 -88q-62 -41 -89 -65t-27 -42
q0 -7 6.5 -12t14.5 -5q27 0 60 18zM392 330q1 4 1 12q0 25 -18.5 40t-51.5 15q-37 0 -63.5 -21.5t-32.5 -45.5h165z" />
    <glyph glyph-name="Ecaron" unicode="&#x11a;" horiz-adv-x="592" 
d="M499 0h-492l125 708h463l-34 -193h-245l-12 -68h234l-32 -180h-234l-13 -74h274zM608 908l-158 -144h-167l-111 144h150l55 -70l79 70h152z" />
    <glyph glyph-name="ecaron" unicode="&#x11b;" horiz-adv-x="622" 
d="M573 211h-358q-1 -3 -1 -7q0 -29 27.5 -42.5t58.5 -13.5q56 0 92 35l151 -104q-94 -95 -258 -95q-119 0 -197.5 62.5t-78.5 176.5q0 136 92.5 227.5t236.5 91.5q115 0 182 -63t67 -172q0 -51 -14 -96zM392 330q1 4 1 12q0 25 -18.5 40t-51.5 15q-37 0 -63.5 -21.5
t-32.5 -45.5h165zM601 728l-158 -144h-167l-111 144h150l55 -70l79 70h152z" />
    <glyph glyph-name="Gcircumflex" unicode="&#x11c;" horiz-adv-x="763" 
d="M726 629l-156 -164q-38 58 -119 58q-73 0 -126 -57t-53 -149q0 -62 35.5 -99t106.5 -37q36 0 63 11l11 62h-116l32 182h321l-68 -386q-131 -70 -272 -70q-162 0 -258 82.5t-96 230.5q0 184 118.5 309.5t302.5 125.5q91 0 163 -26.5t111 -72.5zM700 764h-152l-55 69
l-79 -69h-150l161 144h167z" />
    <glyph glyph-name="gcircumflex" unicode="&#x11d;" horiz-adv-x="693" 
d="M230 0q-107 0 -164 59t-57 154q0 137 82.5 231t210.5 94q41 0 80.5 -17.5t62.5 -51.5h3l9 57h211l-83 -473q-27 -153 -112.5 -223t-235.5 -70q-78 0 -152.5 21.5t-120.5 60.5l106 154q31 -30 75.5 -46.5t84.5 -16.5q116 0 133 98l5 26h-3q-18 -21 -55 -39t-80 -18z
M224 242q0 -31 18.5 -54t62.5 -23q47 0 76 36t29 84q0 34 -21.5 54.5t-58.5 20.5q-49 0 -77.5 -36t-28.5 -82zM606 584h-152l-55 69l-79 -69h-150l161 144h167z" />
    <glyph glyph-name="Gbreve" unicode="&#x11e;" horiz-adv-x="763" 
d="M726 629l-156 -164q-38 58 -119 58q-73 0 -126 -57t-53 -149q0 -62 35.5 -99t106.5 -37q36 0 63 11l11 62h-116l32 182h321l-68 -386q-131 -70 -272 -70q-162 0 -258 82.5t-96 230.5q0 184 118.5 309.5t302.5 125.5q91 0 163 -26.5t111 -72.5zM672 908
q-28 -144 -193 -144t-165 144h107q0 -41 62 -41q76 0 82 41h107z" />
    <glyph glyph-name="gbreve" unicode="&#x11f;" horiz-adv-x="693" 
d="M230 0q-107 0 -164 59t-57 154q0 137 82.5 231t210.5 94q41 0 80.5 -17.5t62.5 -51.5h3l9 57h211l-83 -473q-27 -153 -112.5 -223t-235.5 -70q-78 0 -152.5 21.5t-120.5 60.5l106 154q31 -30 75.5 -46.5t84.5 -16.5q116 0 133 98l5 26h-3q-18 -21 -55 -39t-80 -18z
M224 242q0 -31 18.5 -54t62.5 -23q47 0 76 36t29 84q0 34 -21.5 54.5t-58.5 20.5q-49 0 -77.5 -36t-28.5 -82zM591 728q-28 -144 -193 -144t-165 144h107q0 -41 62 -41q76 0 82 41h107z" />
    <glyph glyph-name="Gdotaccent" unicode="&#x120;" horiz-adv-x="763" 
d="M726 629l-156 -164q-38 58 -119 58q-73 0 -126 -57t-53 -149q0 -62 35.5 -99t106.5 -37q36 0 63 11l11 62h-116l32 182h321l-68 -386q-131 -70 -272 -70q-162 0 -258 82.5t-96 230.5q0 184 118.5 309.5t302.5 125.5q91 0 163 -26.5t111 -72.5zM482 757q-44 0 -72 26
t-28 62q0 49 32 82.5t82 33.5q43 0 71 -26t28 -62q0 -49 -32 -82.5t-81 -33.5z" />
    <glyph glyph-name="gdotaccent" unicode="&#x121;" horiz-adv-x="693" 
d="M230 0q-107 0 -164 59t-57 154q0 137 82.5 231t210.5 94q41 0 80.5 -17.5t62.5 -51.5h3l9 57h211l-83 -473q-27 -153 -112.5 -223t-235.5 -70q-78 0 -152.5 21.5t-120.5 60.5l106 154q31 -30 75.5 -46.5t84.5 -16.5q116 0 133 98l5 26h-3q-18 -21 -55 -39t-80 -18z
M224 242q0 -31 18.5 -54t62.5 -23q47 0 76 36t29 84q0 34 -21.5 54.5t-58.5 20.5q-49 0 -77.5 -36t-28.5 -82zM390 577q-44 0 -72 26t-28 62q0 49 32 82.5t82 33.5q43 0 71 -26t28 -62q0 -49 -32 -82.5t-81 -33.5z" />
    <glyph glyph-name="Gcommaaccent" unicode="&#x122;" horiz-adv-x="763" 
d="M726 629l-156 -164q-38 58 -119 58q-73 0 -126 -57t-53 -149q0 -62 35.5 -99t106.5 -37q36 0 63 11l11 62h-116l32 182h321l-68 -386q-131 -70 -272 -70q-162 0 -258 82.5t-96 230.5q0 184 118.5 309.5t302.5 125.5q91 0 163 -26.5t111 -72.5zM451 -45l-137 -195h-161
l113 195h185z" />
    <glyph glyph-name="gcommaaccent" unicode="&#x123;" horiz-adv-x="693" 
d="M230 0q-107 0 -164 59t-57 154q0 137 82.5 231t210.5 94q41 0 80.5 -17.5t62.5 -51.5h3l9 57h211l-83 -473q-27 -153 -112.5 -223t-235.5 -70q-78 0 -152.5 21.5t-120.5 60.5l106 154q31 -30 75.5 -46.5t84.5 -16.5q116 0 133 98l5 26h-3q-18 -21 -55 -39t-80 -18z
M224 242q0 -31 18.5 -54t62.5 -23q47 0 76 36t29 84q0 34 -21.5 54.5t-58.5 20.5q-49 0 -77.5 -36t-28.5 -82zM253 584l137 195h161l-113 -195h-185z" />
    <glyph glyph-name="Hcircumflex" unicode="&#x124;" horiz-adv-x="798" 
d="M671 0h-231l48 272h-202l-48 -272h-231l125 708h230l-43 -243h202l43 243h232zM692 764h-152l-55 69l-79 -69h-150l161 144h167z" />
    <glyph glyph-name="hcircumflex" unicode="&#x125;" horiz-adv-x="661" 
d="M552 0h-225l49 279q3 18 3 34q0 45 -46 45q-23 0 -40.5 -21t-24.5 -59l-49 -278h-225l133 756h225l-51 -291h2q26 31 66 52t83 21q82 0 121.5 -44t39.5 -111q0 -35 -6 -67zM634 796h-152l-55 69l-79 -69h-150l161 144h167z" />
    <glyph glyph-name="Hbar" unicode="&#x126;" horiz-adv-x="798" 
d="M671 0h-231l48 272h-202l-48 -272h-231l125 708h230l-14 -78h202l14 78h232zM319 465h202l9 55h-202z" />
    <glyph glyph-name="hbar" unicode="&#x127;" horiz-adv-x="661" 
d="M45 570l20 110h48l14 76h225l-14 -76h108l-20 -110h-107l-18 -105h2q26 31 66 52t83 21q82 0 121.5 -44t39.5 -111q0 -35 -6 -67l-55 -316h-225l49 279q3 18 3 34q0 45 -46 45q-23 0 -40.5 -21t-24.5 -59l-49 -278h-225l100 570h-49z" />
    <glyph glyph-name="Itilde" unicode="&#x128;" horiz-adv-x="367" 
d="M240 0h-233l125 708h233zM460 900q-15 -61 -52 -100t-87 -39q-39 0 -77 23q-38 22 -59 22q-31 0 -44 -36h-79q14 59 50.5 97t86.5 38q32 0 78 -24q41 -21 62 -21q27 0 43 40h78z" />
    <glyph glyph-name="itilde" unicode="&#x129;" horiz-adv-x="335" 
d="M219 0h-224l93 526h224zM414 720q-15 -61 -52 -100t-87 -39q-39 0 -77 23q-38 22 -59 22q-31 0 -44 -36h-79q14 59 50.5 97t86.5 38q32 0 78 -24q41 -21 62 -21q27 0 43 40h78z" />
    <glyph glyph-name="Imacron" unicode="&#x12a;" horiz-adv-x="367" 
d="M240 0h-233l125 708h233zM437 791h-358l16 95h358z" />
    <glyph glyph-name="imacron" unicode="&#x12b;" horiz-adv-x="335" 
d="M219 0h-224l93 526h224zM387 611h-358l16 95h358z" />
    <glyph glyph-name="Ibreve" unicode="&#x12c;" horiz-adv-x="367" 
d="M240 0h-233l125 708h233zM462 908q-28 -144 -193 -144t-165 144h107q0 -41 62 -41q76 0 82 41h107z" />
    <glyph glyph-name="ibreve" unicode="&#x12d;" horiz-adv-x="335" 
d="M219 0h-224l93 526h224zM416 728q-28 -144 -193 -144t-165 144h107q0 -41 62 -41q76 0 82 41h107z" />
    <glyph glyph-name="Iogonek" unicode="&#x12e;" horiz-adv-x="367" 
d="M214 -196q-64 -43 -139 -43q-110 0 -110 87q0 72 138 152h-96l125 708h233l-125 -708h-5q-70 -44 -100 -70.5t-30 -45.5q0 -7 6.5 -12t14.5 -5q27 0 60 18z" />
    <glyph glyph-name="iogonek" unicode="&#x12f;" horiz-adv-x="335" 
d="M195 -196q-64 -43 -139 -43q-110 0 -110 87q0 72 138 152h-89l93 526h224l-93 -526h-3q-70 -44 -100 -70.5t-30 -45.5q0 -7 6.5 -12t14.5 -5q27 0 60 18zM213 565q-49 0 -80 28.5t-31 68.5q0 54 35.5 91.5t91.5 37.5q48 0 79 -29t31 -68q0 -54 -35.5 -91.5t-90.5 -37.5z
" />
    <glyph glyph-name="Idotaccent" unicode="&#x130;" horiz-adv-x="367" 
d="M240 0h-233l125 708h233zM258 757q-44 0 -72 26t-28 62q0 49 32 82.5t82 33.5q43 0 71 -26t28 -62q0 -49 -32 -82.5t-81 -33.5z" />
    <glyph glyph-name="dotlessi" unicode="&#x131;" horiz-adv-x="335" 
d="M219 0h-224l93 526h224z" />
    <glyph glyph-name="IJ" unicode="&#x132;" horiz-adv-x="929" 
d="M240 0h-233l125 708h233zM856 255q-8 -44 -17.5 -77t-30.5 -72.5t-49.5 -65t-76 -43t-109.5 -17.5q-98 0 -163.5 47t-90.5 132l212 75q3 -19 15 -31t30 -12q38 0 48 60l81 457h232z" />
    <glyph glyph-name="ij" unicode="&#x133;" horiz-adv-x="663" 
d="M219 0h-224l93 526h224zM213 565q-49 0 -80 28.5t-31 68.5q0 54 35.5 91.5t91.5 37.5q48 0 79 -29t31 -68q0 -54 -35.5 -91.5t-90.5 -37.5zM549 1q-10 -55 -26 -96t-45.5 -78t-79.5 -56.5t-120 -19.5q-54 0 -92 12l38 182q18 -5 36 -5q55 0 66 67l92 519h224zM542 565
q-49 0 -80 28.5t-31 68.5q0 54 35.5 91.5t91.5 37.5q48 0 79 -29t31 -68q0 -54 -35.5 -91.5t-90.5 -37.5z" />
    <glyph glyph-name="Jcircumflex" unicode="&#x134;" horiz-adv-x="562" 
d="M489 255q-8 -44 -17.5 -77t-30.5 -72.5t-49.5 -65t-76 -43t-109.5 -17.5q-98 0 -163.5 47t-90.5 132l212 75q3 -19 15 -31t30 -12q38 0 48 60l81 457h232zM677 758h-152l-55 69l-79 -69h-150l161 144h167z" />
    <glyph glyph-name="jcircumflex" unicode="&#x135;" horiz-adv-x="341" 
d="M227 1q-10 -55 -26 -96t-45.5 -78t-79.5 -56.5t-120 -19.5q-55 0 -92 12l38 182q18 -5 36 -5q55 0 66 67l92 519h224zM432 584h-152l-55 69l-79 -69h-150l161 144h167z" />
    <glyph glyph-name="Kcommaaccent" unicode="&#x136;" horiz-adv-x="740" 
d="M718 0h-277l-155 298h-2l-52 -298h-225l125 708h224l-48 -271h3l224 271h282l-318 -342zM427 -45l-137 -195h-161l113 195h185z" />
    <glyph glyph-name="kcommaaccent" unicode="&#x137;" horiz-adv-x="650" 
d="M260 229h-3l-39 -229h-224l133 756h225l-78 -431h3l148 201h273l-216 -250l130 -276h-262zM381 -45l-137 -195h-161l113 195h185z" />
    <glyph glyph-name="kgreenlandic" unicode="&#x138;" horiz-adv-x="650" 
d="M260 229h-3l-39 -229h-224l92 526h225l-37 -201h3l148 201h273l-216 -250l130 -276h-262z" />
    <glyph glyph-name="Lacute" unicode="&#x139;" horiz-adv-x="547" 
d="M479 0h-472l125 708h233l-90 -510h239zM512 908l-178 -144h-165l135 144h208z" />
    <glyph glyph-name="lacute" unicode="&#x13a;" horiz-adv-x="338" 
d="M223 0h-229l133 756h229zM475 936l-178 -144h-165l135 144h208z" />
    <glyph glyph-name="Lcommaaccent" unicode="&#x13b;" horiz-adv-x="547" 
d="M479 0h-472l125 708h233l-90 -510h239zM336 -45l-137 -195h-161l113 195h185z" />
    <glyph glyph-name="lcommaaccent" unicode="&#x13c;" horiz-adv-x="338" 
d="M223 0h-229l133 756h229zM202 -46l-137 -195h-161l113 195h185z" />
    <glyph glyph-name="Lcaron" unicode="&#x13d;" horiz-adv-x="547" 
d="M479 0h-472l125 708h233l-90 -510h239zM652 708l-131 -182h-161l107 182h185z" />
    <glyph glyph-name="lcaron" unicode="&#x13e;" horiz-adv-x="514" 
d="M223 0h-229l133 756h229zM628 708l-131 -182h-161l107 182h185z" />
    <glyph glyph-name="Ldot" unicode="&#x13f;" horiz-adv-x="547" 
d="M479 0h-472l125 708h233l-90 -510h239zM459 357q-44 0 -72 26t-28 62q0 49 32 82.5t82 33.5q43 0 71 -26t28 -62q0 -49 -32 -82.5t-81 -33.5z" />
    <glyph glyph-name="ldot" unicode="&#x140;" horiz-adv-x="542" 
d="M223 0h-229l133 756h229zM445 387q-44 0 -72 26t-28 62q0 49 32 82.5t82 33.5q43 0 71 -26t28 -62q0 -49 -32 -82.5t-81 -33.5z" />
    <glyph glyph-name="Lslash" unicode="&#x141;" horiz-adv-x="547" 
d="M31 142l-63 -48l33 190l64 48l66 376h234l-36 -204l196 146l-34 -189l-195 -145l-22 -117h240l-35 -199h-473z" />
    <glyph glyph-name="lslash" unicode="&#x142;" horiz-adv-x="338" 
d="M300 402l-71 -402h-236l39 221l-48 -38l34 194l48 39l60 340h236l-28 -159l48 38l-34 -194z" />
    <glyph glyph-name="Nacute" unicode="&#x143;" horiz-adv-x="791" 
d="M664 0h-233l-140 351h-4l-55 -351h-225l125 708h227l143 -369h4l58 369h225zM696 908l-178 -144h-165l135 144h208z" />
    <glyph glyph-name="nacute" unicode="&#x144;" horiz-adv-x="661" 
d="M68 423q10 50 15 103h216q0 -9 -7 -68h4q24 34 66.5 57t89.5 23q82 0 121.5 -44t39.5 -111q0 -35 -6 -67l-55 -316h-225l49 279q3 18 3 34q0 45 -46 45q-23 0 -40.5 -21t-24.5 -59l-50 -278h-224zM589 728l-178 -144h-165l135 144h208z" />
    <glyph glyph-name="Ncommaaccent" unicode="&#x145;" horiz-adv-x="791" 
d="M664 0h-233l-140 351h-4l-55 -351h-225l125 708h227l143 -369h4l58 369h225zM439 -45l-137 -195h-161l113 195h185z" />
    <glyph glyph-name="ncommaaccent" unicode="&#x146;" horiz-adv-x="661" 
d="M68 423q10 50 15 103h216q0 -9 -7 -68h4q24 34 66.5 57t89.5 23q82 0 121.5 -44t39.5 -111q0 -35 -6 -67l-55 -316h-225l49 279q3 18 3 34q0 45 -46 45q-23 0 -40.5 -21t-24.5 -59l-50 -278h-224zM366 -45l-137 -195h-161l113 195h185z" />
    <glyph glyph-name="Ncaron" unicode="&#x147;" horiz-adv-x="791" 
d="M664 0h-233l-140 351h-4l-55 -351h-225l125 708h227l143 -369h4l58 369h225zM697 908l-158 -144h-167l-111 144h150l55 -70l79 70h152z" />
    <glyph glyph-name="ncaron" unicode="&#x148;" horiz-adv-x="661" 
d="M68 423q10 50 15 103h216q0 -9 -7 -68h4q24 34 66.5 57t89.5 23q82 0 121.5 -44t39.5 -111q0 -35 -6 -67l-55 -316h-225l49 279q3 18 3 34q0 45 -46 45q-23 0 -40.5 -21t-24.5 -59l-50 -278h-224zM606 728l-158 -144h-167l-111 144h150l55 -70l79 70h152z" />
    <glyph glyph-name="Eng" unicode="&#x14a;" horiz-adv-x="791" 
d="M664 0q-10 -55 -26 -95.5t-46 -77.5t-80 -56.5t-119 -19.5q-55 0 -92 12l38 182q17 -5 36 -5q51 0 64 58l-148 353h-4l-55 -351h-225l125 708h227l144 -362h4l57 362h225z" />
    <glyph glyph-name="eng" unicode="&#x14b;" horiz-adv-x="661" 
d="M68 423q10 50 15 103h216q0 -9 -7 -68h4q24 34 66.5 57t89.5 23q82 0 121.5 -44t39.5 -111q0 -35 -6 -67l-55 -316q-10 -55 -26 -95.5t-45.5 -77.5t-80 -56.5t-119.5 -19.5q-55 0 -92 12l38 182q17 -5 36 -5q54 0 64 60l49 279q3 18 3 34q0 45 -46 45q-23 0 -40.5 -21
t-24.5 -59l-50 -278h-224z" />
    <glyph glyph-name="Omacron" unicode="&#x14c;" horiz-adv-x="833" 
d="M382 -18q-167 0 -259 88.5t-92 233.5q0 180 119.5 301t310.5 121q168 0 260 -88t92 -234q0 -180 -119.5 -301t-311.5 -121zM572 387q0 56 -34.5 92.5t-95.5 36.5q-75 0 -122.5 -58t-47.5 -135q0 -56 34.5 -92.5t96.5 -36.5q75 0 122 57.5t47 135.5zM675 791h-358l16 95
h358z" />
    <glyph glyph-name="omacron" unicode="&#x14d;" horiz-adv-x="660" 
d="M295 -16q-125 0 -205.5 62t-80.5 173q0 138 88 230.5t238 92.5q128 0 209 -62t81 -173q0 -138 -88.5 -230.5t-241.5 -92.5zM407 283q0 34 -20.5 55t-58.5 21q-45 0 -73 -33.5t-28 -81.5q0 -34 20.5 -55t57.5 -21q47 0 74.5 33t27.5 82zM555 611h-358l16 95h358z" />
    <glyph glyph-name="Obreve" unicode="&#x14e;" horiz-adv-x="833" 
d="M382 -18q-167 0 -259 88.5t-92 233.5q0 180 119.5 301t310.5 121q168 0 260 -88t92 -234q0 -180 -119.5 -301t-311.5 -121zM572 387q0 56 -34.5 92.5t-95.5 36.5q-75 0 -122.5 -58t-47.5 -135q0 -56 34.5 -92.5t96.5 -36.5q75 0 122 57.5t47 135.5zM681 908
q-28 -144 -193 -144t-165 144h107q0 -41 62 -41q76 0 82 41h107z" />
    <glyph glyph-name="obreve" unicode="&#x14f;" horiz-adv-x="660" 
d="M295 -16q-125 0 -205.5 62t-80.5 173q0 138 88 230.5t238 92.5q128 0 209 -62t81 -173q0 -138 -88.5 -230.5t-241.5 -92.5zM407 283q0 34 -20.5 55t-58.5 21q-45 0 -73 -33.5t-28 -81.5q0 -34 20.5 -55t57.5 -21q47 0 74.5 33t27.5 82zM562 728q-28 -144 -193 -144
t-165 144h107q0 -41 62 -41q76 0 82 41h107z" />
    <glyph glyph-name="Ohungarumlaut" unicode="&#x150;" horiz-adv-x="833" 
d="M382 -18q-167 0 -259 88.5t-92 233.5q0 180 119.5 301t310.5 121q168 0 260 -88t92 -234q0 -180 -119.5 -301t-311.5 -121zM572 387q0 56 -34.5 92.5t-95.5 36.5q-75 0 -122.5 -58t-47.5 -135q0 -56 34.5 -92.5t96.5 -36.5q75 0 122 57.5t47 135.5zM868 908l-178 -144
h-164l135 144h207zM628 908l-178 -144h-165l135 144h208z" />
    <glyph glyph-name="ohungarumlaut" unicode="&#x151;" horiz-adv-x="660" 
d="M295 -16q-125 0 -205.5 62t-80.5 173q0 138 88 230.5t238 92.5q128 0 209 -62t81 -173q0 -138 -88.5 -230.5t-241.5 -92.5zM407 283q0 34 -20.5 55t-58.5 21q-45 0 -73 -33.5t-28 -81.5q0 -34 20.5 -55t57.5 -21q47 0 74.5 33t27.5 82zM745 728l-178 -144h-164l135 144
h207zM505 728l-178 -144h-165l135 144h208z" />
    <glyph glyph-name="OE" unicode="&#x152;" horiz-adv-x="992" 
d="M463 708h532l-34 -193h-245l-12 -68h234l-32 -180h-234l-13 -74h274l-34 -193h-528q-63 0 -121 17t-108 51.5t-80.5 95t-30.5 138.5q0 184 121.5 295t310.5 111zM449 196l56 313h-52q-85 0 -133.5 -54t-48.5 -128q0 -58 35 -94.5t104 -36.5h39z" />
    <glyph glyph-name="oe" unicode="&#x153;" horiz-adv-x="1007" 
d="M483 54q-62 -70 -188 -70q-125 0 -205.5 62t-80.5 173q0 138 88 230.5t238 92.5q127 0 191 -75q63 75 197 75q115 0 182 -63t67 -172q0 -51 -14 -96h-358q-1 -3 -1 -7q0 -29 27.5 -42.5t58.5 -13.5q56 0 92 35l151 -104q-94 -95 -258 -95q-58 0 -109.5 17.5t-77.5 52.5z
M407 283q0 34 -20.5 55t-58.5 21q-45 0 -73 -33.5t-28 -81.5q0 -34 20.5 -55t57.5 -21q47 0 74.5 33t27.5 82zM777 330q1 4 1 12q0 25 -18.5 40t-51.5 15q-37 0 -63.5 -21.5t-32.5 -45.5h165z" />
    <glyph glyph-name="Racute" unicode="&#x154;" horiz-adv-x="704" 
d="M659 0h-260l-97 259h-28l-44 -259h-223l125 708h291q117 0 185 -51.5t68 -144.5q0 -86 -41 -144t-114 -79zM348 406q98 0 98 65q0 54 -80 54h-43l-21 -119h46zM626 908l-178 -144h-165l135 144h208z" />
    <glyph glyph-name="racute" unicode="&#x155;" horiz-adv-x="440" 
d="M69 423q10 50 15 103h215q-3 -33 -9 -64h3q54 75 134 75q27 0 42 -5l-42 -190q-16 5 -47 5q-49 0 -79.5 -26.5t-37.5 -65.5l-45 -255h-224zM482 728l-178 -144h-165l135 144h208z" />
    <glyph glyph-name="Rcommaaccent" unicode="&#x156;" horiz-adv-x="704" 
d="M659 0h-260l-97 259h-28l-44 -259h-223l125 708h291q117 0 185 -51.5t68 -144.5q0 -86 -41 -144t-114 -79zM348 406q98 0 98 65q0 54 -80 54h-43l-21 -119h46zM411 -45l-137 -195h-161l113 195h185z" />
    <glyph glyph-name="rcommaaccent" unicode="&#x157;" horiz-adv-x="440" 
d="M69 423q10 50 15 103h215q-3 -33 -9 -64h3q54 75 134 75q27 0 42 -5l-42 -190q-16 5 -47 5q-49 0 -79.5 -26.5t-37.5 -65.5l-45 -255h-224zM201 -46l-137 -195h-161l113 195h185z" />
    <glyph glyph-name="Rcaron" unicode="&#x158;" horiz-adv-x="704" 
d="M659 0h-260l-97 259h-28l-44 -259h-223l125 708h291q117 0 185 -51.5t68 -144.5q0 -86 -41 -144t-114 -79zM348 406q98 0 98 65q0 54 -80 54h-43l-21 -119h46zM631 908l-158 -144h-167l-111 144h150l55 -70l79 70h152z" />
    <glyph glyph-name="rcaron" unicode="&#x159;" horiz-adv-x="440" 
d="M69 423q10 50 15 103h215q-3 -33 -9 -64h3q54 75 134 75q27 0 42 -5l-42 -190q-16 5 -47 5q-49 0 -79.5 -26.5t-37.5 -65.5l-45 -255h-224zM517 728l-158 -144h-167l-111 144h150l55 -70l79 70h152z" />
    <glyph glyph-name="Sacute" unicode="&#x15a;" horiz-adv-x="601" 
d="M621 640l-148 -143q-40 45 -107 45q-30 0 -51.5 -13t-21.5 -36q0 -18 17 -29.5t58 -24.5q96 -32 145.5 -81t49.5 -126q0 -65 -29.5 -115.5t-77 -79t-101.5 -43t-110 -14.5q-85 0 -166 27t-130 75l158 146q22 -26 63 -43t74 -17q35 0 56 12t21 33q0 18 -18.5 32t-64.5 29
q-89 29 -135.5 72t-46.5 125q0 111 87 184t225 73q76 0 145.5 -24t107.5 -64zM622 908l-178 -144h-165l135 144h208z" />
    <glyph glyph-name="sacute" unicode="&#x15b;" horiz-adv-x="494" 
d="M-45 54l114 136q52 -52 123 -52q43 0 43 23q0 20 -55 35q-75 22 -112.5 56.5t-37.5 95.5q0 93 74 144t174 51q63 0 120.5 -17.5t92.5 -49.5l-115 -132q-17 18 -47 30.5t-59 12.5q-45 0 -45 -23q0 -10 10 -15.5t37 -12.5q81 -20 123.5 -57.5t42.5 -103.5
q0 -67 -40.5 -112.5t-95 -63t-116.5 -17.5q-145 0 -231 72zM527 728l-178 -144h-165l135 144h208z" />
    <glyph glyph-name="Scircumflex" unicode="&#x15c;" horiz-adv-x="601" 
d="M621 640l-148 -143q-40 45 -107 45q-30 0 -51.5 -13t-21.5 -36q0 -18 17 -29.5t58 -24.5q96 -32 145.5 -81t49.5 -126q0 -65 -29.5 -115.5t-77 -79t-101.5 -43t-110 -14.5q-85 0 -166 27t-130 75l158 146q22 -26 63 -43t74 -17q35 0 56 12t21 33q0 18 -18.5 32t-64.5 29
q-89 29 -135.5 72t-46.5 125q0 111 87 184t225 73q76 0 145.5 -24t107.5 -64zM614 764h-152l-55 69l-79 -69h-150l161 144h167z" />
    <glyph glyph-name="scircumflex" unicode="&#x15d;" horiz-adv-x="494" 
d="M-45 54l114 136q52 -52 123 -52q43 0 43 23q0 20 -55 35q-75 22 -112.5 56.5t-37.5 95.5q0 93 74 144t174 51q63 0 120.5 -17.5t92.5 -49.5l-115 -132q-17 18 -47 30.5t-59 12.5q-45 0 -45 -23q0 -10 10 -15.5t37 -12.5q81 -20 123.5 -57.5t42.5 -103.5
q0 -67 -40.5 -112.5t-95 -63t-116.5 -17.5q-145 0 -231 72zM508 584h-152l-55 69l-79 -69h-150l161 144h167z" />
    <glyph glyph-name="Scedilla" unicode="&#x15e;" horiz-adv-x="601" 
d="M354 -130q0 -56 -48 -82.5t-116 -26.5q-75 0 -136 23l41 76q35 -16 85 -16q39 0 39 22q0 19 -34 19q-23 0 -43 -6l-36 34l73 72q-148 18 -230 97l158 146q22 -26 63 -43t74 -17q35 0 56 12t21 33q0 18 -18.5 32t-64.5 29q-89 29 -135.5 72t-46.5 125q0 111 87 184t225 73
q76 0 145.5 -24t107.5 -64l-148 -143q-40 45 -107 45q-30 0 -51.5 -13t-21.5 -36q0 -18 17 -29.5t58 -24.5q96 -32 145.5 -81t49.5 -126q0 -59 -24 -106t-64.5 -76t-87.5 -46t-99 -22l-38 -35q6 1 17 1q31 0 59 -18t28 -60z" />
    <glyph glyph-name="scedilla" unicode="&#x15f;" horiz-adv-x="494" 
d="M310 -130q0 -56 -48 -82.5t-116 -26.5q-75 0 -136 23l41 76q35 -16 85 -16q39 0 39 22q0 19 -34 19q-23 0 -43 -6l-36 34l73 72q-114 13 -180 69l114 136q52 -52 123 -52q43 0 43 23q0 20 -55 35q-75 22 -112.5 56.5t-37.5 95.5q0 93 74 144t174 51q63 0 120.5 -17.5
t92.5 -49.5l-115 -132q-17 18 -47 30.5t-59 12.5q-45 0 -45 -23q0 -10 10 -15.5t37 -12.5q81 -20 123.5 -57.5t42.5 -103.5q0 -81 -53.5 -127.5t-134.5 -59.5l-44 -41q6 1 17 1q31 0 59 -18t28 -60z" />
    <glyph glyph-name="Scaron" unicode="&#x160;" horiz-adv-x="601" 
d="M621 640l-148 -143q-40 45 -107 45q-30 0 -51.5 -13t-21.5 -36q0 -18 17 -29.5t58 -24.5q96 -32 145.5 -81t49.5 -126q0 -65 -29.5 -115.5t-77 -79t-101.5 -43t-110 -14.5q-85 0 -166 27t-130 75l158 146q22 -26 63 -43t74 -17q35 0 56 12t21 33q0 18 -18.5 32t-64.5 29
q-89 29 -135.5 72t-46.5 125q0 111 87 184t225 73q76 0 145.5 -24t107.5 -64zM614 908l-158 -144h-167l-111 144h150l55 -70l79 70h152z" />
    <glyph glyph-name="scaron" unicode="&#x161;" horiz-adv-x="494" 
d="M-45 54l114 136q52 -52 123 -52q43 0 43 23q0 20 -55 35q-75 22 -112.5 56.5t-37.5 95.5q0 93 74 144t174 51q63 0 120.5 -17.5t92.5 -49.5l-115 -132q-17 18 -47 30.5t-59 12.5q-45 0 -45 -23q0 -10 10 -15.5t37 -12.5q81 -20 123.5 -57.5t42.5 -103.5
q0 -67 -40.5 -112.5t-95 -63t-116.5 -17.5q-145 0 -231 72zM520 728l-158 -144h-167l-111 144h150l55 -70l79 70h152z" />
    <glyph glyph-name="uni0162" unicode="&#x162;" horiz-adv-x="583" 
d="M613 513h-173l-90 -513h-232l90 513h-179l35 195h584zM330 -45l-137 -195h-161l113 195h185z" />
    <glyph glyph-name="uni0163" unicode="&#x163;" horiz-adv-x="401" 
d="M389 365h-98l-27 -148q-2 -16 -2 -27q0 -21 11 -29.5t33 -8.5q24 0 44 6l-27 -154q-31 -18 -110 -18q-178 0 -178 135q0 24 5 51l35 193h-78l28 161h74l21 119h217l-21 -119h101zM268 -45l-137 -195h-161l113 195h185z" />
    <glyph glyph-name="Tcaron" unicode="&#x164;" horiz-adv-x="583" 
d="M613 513h-173l-90 -513h-232l90 513h-179l35 195h584zM601 908l-158 -144h-167l-111 144h150l55 -70l79 70h152z" />
    <glyph glyph-name="tcaron" unicode="&#x165;" horiz-adv-x="518" 
d="M389 365h-98l-27 -148q-2 -16 -2 -27q0 -21 11 -29.5t33 -8.5q24 0 44 6l-27 -154q-31 -18 -110 -18q-178 0 -178 135q0 24 5 51l35 193h-78l28 161h74l21 119h217l-21 -119h101zM636 731l-131 -182h-161l107 182h185z" />
    <glyph glyph-name="Tbar" unicode="&#x166;" horiz-adv-x="583" 
d="M66 321l20 110h107l15 82h-179l35 195h584l-35 -195h-173l-15 -82h107l-20 -110h-106l-56 -321h-232l56 321h-108z" />
    <glyph glyph-name="tbar" unicode="&#x167;" horiz-adv-x="401" 
d="M-11 209l20 110h57l9 46h-78l28 161h74l21 119h217l-21 -119h101l-28 -161h-98l-9 -46h76l-20 -110h-75q-1 -7 -1 -19q0 -21 11 -29.5t33 -8.5q24 0 44 6l-27 -154q-31 -18 -110 -18q-178 0 -178 135q0 24 5 51l6 37h-57z" />
    <glyph glyph-name="Utilde" unicode="&#x168;" horiz-adv-x="771" 
d="M696 260q-23 -131 -111 -204.5t-241 -73.5q-138 0 -221 59.5t-83 161.5q0 26 6 66l75 439h229l-73 -409q-2 -11 -2 -33q0 -36 21.5 -59.5t66.5 -23.5q55 0 77.5 30.5t32.5 81.5l75 413h225zM668 900q-15 -61 -52 -100t-87 -39q-39 0 -77 23q-38 22 -59 22q-31 0 -44 -36
h-79q14 59 50.5 97t86.5 38q32 0 78 -24q41 -21 62 -21q27 0 43 40h78z" />
    <glyph glyph-name="utilde" unicode="&#x169;" horiz-adv-x="658" 
d="M562 103q-10 -50 -15 -103h-216q0 9 7 68h-4q-24 -34 -66.5 -57t-89.5 -23q-82 0 -121.5 44t-39.5 111q0 35 6 67l55 316h225l-49 -279q-3 -18 -3 -34q0 -45 46 -45q23 0 40.5 21t24.5 59l50 278h224zM578 720q-15 -61 -52 -100t-87 -39q-39 0 -77 23q-38 22 -59 22
q-31 0 -44 -36h-79q14 59 50.5 97t86.5 38q32 0 78 -24q41 -21 62 -21q27 0 43 40h78z" />
    <glyph glyph-name="Umacron" unicode="&#x16a;" horiz-adv-x="771" 
d="M696 260q-23 -131 -111 -204.5t-241 -73.5q-138 0 -221 59.5t-83 161.5q0 26 6 66l75 439h229l-73 -409q-2 -11 -2 -33q0 -36 21.5 -59.5t66.5 -23.5q55 0 77.5 30.5t32.5 81.5l75 413h225zM640 791h-358l16 95h358z" />
    <glyph glyph-name="umacron" unicode="&#x16b;" horiz-adv-x="658" 
d="M562 103q-10 -50 -15 -103h-216q0 9 7 68h-4q-24 -34 -66.5 -57t-89.5 -23q-82 0 -121.5 44t-39.5 111q0 35 6 67l55 316h225l-49 -279q-3 -18 -3 -34q0 -45 46 -45q23 0 40.5 21t24.5 59l50 278h224zM552 611h-358l16 95h358z" />
    <glyph glyph-name="Ubreve" unicode="&#x16c;" horiz-adv-x="771" 
d="M696 260q-23 -131 -111 -204.5t-241 -73.5q-138 0 -221 59.5t-83 161.5q0 26 6 66l75 439h229l-73 -409q-2 -11 -2 -33q0 -36 21.5 -59.5t66.5 -23.5q55 0 77.5 30.5t32.5 81.5l75 413h225zM651 908q-28 -144 -193 -144t-165 144h107q0 -41 62 -41q76 0 82 41h107z" />
    <glyph glyph-name="ubreve" unicode="&#x16d;" horiz-adv-x="658" 
d="M562 103q-10 -50 -15 -103h-216q0 9 7 68h-4q-24 -34 -66.5 -57t-89.5 -23q-82 0 -121.5 44t-39.5 111q0 35 6 67l55 316h225l-49 -279q-3 -18 -3 -34q0 -45 46 -45q23 0 40.5 21t24.5 59l50 278h224zM556 728q-28 -144 -193 -144t-165 144h107q0 -41 62 -41q76 0 82 41
h107z" />
    <glyph glyph-name="Uring" unicode="&#x16e;" horiz-adv-x="771" 
d="M696 260q-23 -131 -111 -204.5t-241 -73.5q-138 0 -221 59.5t-83 161.5q0 26 6 66l75 439h229l-73 -409q-2 -11 -2 -33q0 -36 21.5 -59.5t66.5 -23.5q55 0 77.5 30.5t32.5 81.5l75 413h225zM454 745q-44 0 -71.5 26t-27.5 66q0 55 36 93.5t90 38.5q44 0 72 -25.5
t28 -66.5q0 -55 -36 -93.5t-91 -38.5zM530 872q0 22 -14.5 37t-38.5 15q-30 0 -50.5 -24t-20.5 -57q0 -23 14 -37.5t38 -14.5q31 0 51.5 23.5t20.5 57.5z" />
    <glyph glyph-name="uring" unicode="&#x16f;" horiz-adv-x="658" 
d="M562 103q-10 -50 -15 -103h-216q0 9 7 68h-4q-24 -34 -66.5 -57t-89.5 -23q-82 0 -121.5 44t-39.5 111q0 35 6 67l55 316h225l-49 -279q-3 -18 -3 -34q0 -45 46 -45q23 0 40.5 21t24.5 59l50 278h224zM368 565q-44 0 -71.5 26t-27.5 66q0 55 36 93.5t90 38.5
q44 0 72 -25.5t28 -66.5q0 -55 -36 -93.5t-91 -38.5zM444 692q0 22 -14.5 37t-38.5 15q-30 0 -50.5 -24t-20.5 -57q0 -23 14 -37.5t38 -14.5q31 0 51.5 23.5t20.5 57.5z" />
    <glyph glyph-name="Uhungarumlaut" unicode="&#x170;" horiz-adv-x="771" 
d="M696 260q-23 -131 -111 -204.5t-241 -73.5q-138 0 -221 59.5t-83 161.5q0 26 6 66l75 439h229l-73 -409q-2 -11 -2 -33q0 -36 21.5 -59.5t66.5 -23.5q55 0 77.5 30.5t32.5 81.5l75 413h225zM831 908l-178 -144h-164l135 144h207zM591 908l-178 -144h-165l135 144h208z
" />
    <glyph glyph-name="uhungarumlaut" unicode="&#x171;" horiz-adv-x="658" 
d="M562 103q-10 -50 -15 -103h-216q0 9 7 68h-4q-24 -34 -66.5 -57t-89.5 -23q-82 0 -121.5 44t-39.5 111q0 35 6 67l55 316h225l-49 -279q-3 -18 -3 -34q0 -45 46 -45q23 0 40.5 21t24.5 59l50 278h224zM743 728l-178 -144h-164l135 144h207zM503 728l-178 -144h-165
l135 144h208z" />
    <glyph glyph-name="Uogonek" unicode="&#x172;" horiz-adv-x="771" 
d="M418 -196q-64 -43 -139 -43q-110 0 -110 87q0 68 114 138q-112 12 -177.5 69.5t-65.5 147.5q0 26 6 66l75 439h229l-73 -409q-2 -11 -2 -33q0 -36 21.5 -59.5t66.5 -23.5q55 0 77.5 30.5t32.5 81.5l75 413h225l-77 -448q-20 -114 -89 -185t-188 -88q-58 -38 -84 -61.5
t-26 -41.5q0 -7 6.5 -12t14.5 -5q27 0 60 18z" />
    <glyph glyph-name="uogonek" unicode="&#x173;" horiz-adv-x="658" 
d="M441 -196q-64 -43 -139 -43q-110 0 -110 87q0 73 139 152q0 9 7 68h-4q-24 -34 -66.5 -57t-89.5 -23q-82 0 -121.5 44t-39.5 111q0 35 6 67l55 316h225l-49 -279q-3 -18 -3 -34q0 -45 46 -45q23 0 40.5 21t24.5 59l50 278h224l-74 -423q-10 -50 -15 -103h-85
q-70 -44 -100 -70.5t-30 -45.5q0 -7 6.5 -12t14.5 -5q27 0 60 18z" />
    <glyph glyph-name="Wcircumflex" unicode="&#x174;" horiz-adv-x="1050" 
d="M1136 708l-334 -708h-238l-20 408h-4l-186 -408h-235l-55 708h245v-405h4l166 405h238l8 -405h4l166 405h241zM825 764h-152l-55 69l-79 -69h-150l161 144h167z" />
    <glyph glyph-name="wcircumflex" unicode="&#x175;" horiz-adv-x="963" 
d="M1000 526l-289 -526h-223l-27 274h-2l-137 -274h-222l-72 526h234l11 -279h4l127 279h217l18 -279h3l123 279h235zM733 584h-152l-55 69l-79 -69h-150l161 144h167z" />
    <glyph glyph-name="Ycircumflex" unicode="&#x176;" horiz-adv-x="677" 
d="M789 708l-349 -417l-51 -291h-231l51 291l-187 417h258l76 -219l151 219h282zM625 764h-152l-55 69l-79 -69h-150l161 144h167z" />
    <glyph glyph-name="ycircumflex" unicode="&#x177;" horiz-adv-x="631" 
d="M144 -4l6 11l-126 519h248l32 -288h4l123 288h240l-305 -558q-60 -111 -120.5 -159.5t-168.5 -48.5q-65 0 -115 16l38 177q27 -12 53 -12q62 0 91 55zM583 584h-152l-55 69l-79 -69h-150l161 144h167z" />
    <glyph glyph-name="Ydieresis" unicode="&#x178;" horiz-adv-x="677" 
d="M789 708l-349 -417l-51 -291h-231l51 291l-187 417h258l76 -219l151 219h282zM286 763q-41 0 -67 24t-26 58q0 45 30 76.5t77 31.5q40 0 66 -24.5t26 -57.5q0 -45 -30 -76.5t-76 -31.5zM537 763q-41 0 -67 24t-26 58q0 45 30 76.5t77 31.5q40 0 66 -24.5t26 -57.5
q0 -45 -30 -76.5t-76 -31.5z" />
    <glyph glyph-name="Zacute" unicode="&#x179;" horiz-adv-x="668" 
d="M565 0h-582l34 194l330 322h-262l34 192h563l-30 -168l-348 -343h296zM646 908l-178 -144h-165l135 144h208z" />
    <glyph glyph-name="zacute" unicode="&#x17a;" horiz-adv-x="552" 
d="M458 0h-485l28 158l237 202h-196l29 166h474l-26 -147l-254 -212h222zM558 728l-178 -144h-165l135 144h208z" />
    <glyph glyph-name="Zdotaccent" unicode="&#x17b;" horiz-adv-x="668" 
d="M565 0h-582l34 194l330 322h-262l34 192h563l-30 -168l-348 -343h296zM412 757q-44 0 -72 26t-28 62q0 49 32 82.5t82 33.5q43 0 71 -26t28 -62q0 -49 -32 -82.5t-81 -33.5z" />
    <glyph glyph-name="zdotaccent" unicode="&#x17c;" horiz-adv-x="552" 
d="M458 0h-485l28 158l237 202h-196l29 166h474l-26 -147l-254 -212h222zM326 577q-44 0 -72 26t-28 62q0 49 32 82.5t82 33.5q43 0 71 -26t28 -62q0 -49 -32 -82.5t-81 -33.5z" />
    <glyph glyph-name="Zcaron" unicode="&#x17d;" horiz-adv-x="668" 
d="M565 0h-582l34 194l330 322h-262l34 192h563l-30 -168l-348 -343h296zM649 908l-158 -144h-167l-111 144h150l55 -70l79 70h152z" />
    <glyph glyph-name="zcaron" unicode="&#x17e;" horiz-adv-x="552" 
d="M458 0h-485l28 158l237 202h-196l29 166h474l-26 -147l-254 -212h222zM552 728l-158 -144h-167l-111 144h150l55 -70l79 70h152z" />
    <glyph glyph-name="florin" unicode="&#x192;" horiz-adv-x="695" 
d="M631 530q-25 17 -58 17q-24 0 -40.5 -12.5t-31.5 -47.5l-13 -36h132l-26 -147h-162l-97 -254q-36 -92 -94 -140.5t-160 -48.5q-86 0 -143 35l89 160q23 -18 53 -18q41 0 68 67l76 199h-114l26 147h139q15 41 23.5 61.5t25 55.5t30.5 53.5t36.5 42t47 35.5t58 20.5
t73.5 8.5q105 0 161 -40z" />
    <glyph glyph-name="Scommaaccent" unicode="&#x218;" horiz-adv-x="601" 
d="M621 640l-148 -143q-40 45 -107 45q-30 0 -51.5 -13t-21.5 -36q0 -18 17 -29.5t58 -24.5q96 -32 145.5 -81t49.5 -126q0 -65 -29.5 -115.5t-77 -79t-101.5 -43t-110 -14.5q-85 0 -166 27t-130 75l158 146q22 -26 63 -43t74 -17q35 0 56 12t21 33q0 18 -18.5 32t-64.5 29
q-89 29 -135.5 72t-46.5 125q0 111 87 184t225 73q76 0 145.5 -24t107.5 -64zM331 -45l-137 -195h-161l113 195h185z" />
    <glyph glyph-name="scommaaccent" unicode="&#x219;" horiz-adv-x="494" 
d="M-45 54l114 136q52 -52 123 -52q43 0 43 23q0 20 -55 35q-75 22 -112.5 56.5t-37.5 95.5q0 93 74 144t174 51q63 0 120.5 -17.5t92.5 -49.5l-115 -132q-17 18 -47 30.5t-59 12.5q-45 0 -45 -23q0 -10 10 -15.5t37 -12.5q81 -20 123.5 -57.5t42.5 -103.5
q0 -67 -40.5 -112.5t-95 -63t-116.5 -17.5q-145 0 -231 72zM272 -45l-137 -195h-161l113 195h185z" />
    <glyph glyph-name="uni021A" unicode="&#x21a;" horiz-adv-x="583" 
d="M613 513h-173l-90 -513h-232l90 513h-179l35 195h584zM330 -45l-137 -195h-161l113 195h185z" />
    <glyph glyph-name="uni021B" unicode="&#x21b;" horiz-adv-x="401" 
d="M389 365h-98l-27 -148q-2 -16 -2 -27q0 -21 11 -29.5t33 -8.5q24 0 44 6l-27 -154q-31 -18 -110 -18q-178 0 -178 135q0 24 5 51l35 193h-78l28 161h74l21 119h217l-21 -119h101zM268 -45l-137 -195h-161l113 195h185z" />
    <glyph glyph-name="dotlessj" unicode="&#x237;" horiz-adv-x="341" 
d="M227 1q-10 -55 -26 -96t-45.5 -78t-79.5 -56.5t-120 -19.5q-55 0 -92 12l38 182q18 -5 36 -5q55 0 66 67l92 519h224z" />
    <glyph glyph-name="circumflex" unicode="&#x2c6;" 
d="M438 584h-152l-55 69l-79 -69h-150l161 144h167z" />
    <glyph glyph-name="caron" unicode="&#x2c7;" 
d="M463 728l-158 -144h-167l-111 144h150l55 -70l79 70h152z" />
    <glyph glyph-name="uni02C9" unicode="&#x2c9;" 
d="M404 791h-358l16 95h358z" />
    <glyph glyph-name="breve" unicode="&#x2d8;" 
d="M424 728q-28 -144 -193 -144t-165 144h107q0 -41 62 -41q76 0 82 41h107z" />
    <glyph glyph-name="dotaccent" unicode="&#x2d9;" 
d="M224 577q-44 0 -72 26t-28 62q0 49 32 82.5t82 33.5q43 0 71 -26t28 -62q0 -49 -32 -82.5t-81 -33.5z" />
    <glyph glyph-name="ring" unicode="&#x2da;" 
d="M223 565q-44 0 -71.5 26t-27.5 66q0 55 36 93.5t90 38.5q44 0 72 -25.5t28 -66.5q0 -55 -36 -93.5t-91 -38.5zM299 692q0 22 -14.5 37t-38.5 15q-30 0 -50.5 -24t-20.5 -57q0 -23 14 -37.5t38 -14.5q31 0 51.5 23.5t20.5 57.5z" />
    <glyph glyph-name="ogonek" unicode="&#x2db;" 
d="M197 -196q-64 -43 -139 -43q-110 0 -110 87q0 31 24.5 62t51 50t64.5 41h132q-71 -45 -101.5 -71.5t-30.5 -45.5q0 -7 6.5 -12t14.5 -5q27 0 60 18z" />
    <glyph glyph-name="tilde" unicode="&#x2dc;" 
d="M431 720q-15 -61 -52 -100t-87 -39q-39 0 -77 23q-38 22 -59 22q-31 0 -44 -36h-79q14 59 50.5 97t86.5 38q32 0 78 -24q41 -21 62 -21q27 0 43 40h78z" />
    <glyph glyph-name="hungarumlaut" unicode="&#x2dd;" 
d="M573 728l-178 -144h-164l135 144h207zM333 728l-178 -144h-165l135 144h208z" />
    <glyph glyph-name="uni0394" unicode="&#x394;" horiz-adv-x="780" 
d="M675 0h-722l21 96l380 612h244l105 -578zM464 177l-38 290l-166 -290h204z" />
    <glyph glyph-name="uni03A9" unicode="&#x3a9;" horiz-adv-x="786" 
d="M359 0l49 279q49 16 72.5 54t23.5 88q0 44 -27 69.5t-71 25.5q-53 0 -88.5 -40t-35.5 -100q0 -84 68 -97l-49 -279h-311l29 164h127l2 8q-41 20 -74.5 76.5t-33.5 130.5q0 146 106.5 246.5t287.5 100.5q151 0 231.5 -75t80.5 -183q0 -102 -47 -179t-127 -118l-1 -7h136
l-29 -164h-319z" />
    <glyph glyph-name="uni03BC" unicode="&#x3bc;" horiz-adv-x="759" 
d="M436 68h-4q-10 -28 -37 -54t-64 -26q-43 0 -59 22h-2l-45 -250h-223l136 766h225l-47 -267q-5 -30 -5 -45q0 -46 45 -46q27 0 43.5 23t22.5 57l50 278h224l-56 -319q-10 -55 34 -55q6 0 30 6l-28 -154q-40 -18 -99 -18q-120 0 -141 82z" />
    <glyph glyph-name="pi" unicode="&#x3c0;" horiz-adv-x="761" 
d="M681 156l-26 -150q-52 -20 -103 -20q-36 0 -65 7t-57 25t-39 56t-1 93l31 173h-78l-100 -340h-223l110 340h-87l33 186h675l-33 -186h-87l-21 -114q-4 -24 -4 -36q0 -38 45 -38q13 0 30 4z" />
    <glyph glyph-name="uni0400" unicode="&#x400;" horiz-adv-x="592" 
d="M7 0l125 708h463l-34 -193h-245l-12 -68h234l-32 -180h-234l-13 -74h274l-34 -193h-492zM154 908h208l126 -144h-165z" />
    <glyph glyph-name="uni0401" unicode="&#x401;" horiz-adv-x="592" 
d="M7 0l125 708h463l-34 -193h-245l-12 -68h234l-32 -180h-234l-13 -74h274l-34 -193h-492zM259 763q-41 0 -67 24t-26 58q0 45 30 76.5t77 31.5q40 0 66 -24.5t26 -57.5q0 -45 -30 -76.5t-76 -31.5zM510 763q-41 0 -67 24t-26 58q0 45 30 76.5t77 31.5q40 0 66 -24.5
t26 -57.5q0 -45 -30 -76.5t-76 -31.5z" />
    <glyph glyph-name="uni0402" unicode="&#x402;" horiz-adv-x="821" 
d="M523 -10q-77 0 -126 13l36 160q17 -6 45 -6q30 0 49 15t19 43q0 43 -79 43q-47 0 -76 -15l-42 -243h-231l90 518h-178l34 190h583l-34 -186h-174l-19 -114q78 22 151 22q91 0 150.5 -50.5t59.5 -144.5q0 -63 -24 -112t-62.5 -77t-82.5 -42t-89 -14z" />
    <glyph glyph-name="uni0403" unicode="&#x403;" horiz-adv-x="527" 
d="M7 0l124 708h461l-34 -195h-230l-90 -513h-231zM590 908l-178 -144h-165l135 144h208z" />
    <glyph glyph-name="uni0404" unicode="&#x404;" horiz-adv-x="690" 
d="M379 -20q-164 0 -256 89.5t-92 234.5q0 182 119.5 303t299.5 121q188 0 280 -96l-155 -160q-44 51 -128 51q-96 0 -137 -77h203l-33 -179h-198q7 -38 42.5 -60.5t88.5 -22.5q73 0 134 57l105 -174q-117 -87 -273 -87z" />
    <glyph glyph-name="uni0405" unicode="&#x405;" horiz-adv-x="601" 
d="M245 -20q-85 0 -166 27t-130 75l158 146q22 -26 63 -43t74 -17q35 0 56 12t21 33q0 18 -18.5 32t-64.5 29q-89 29 -135.5 72t-46.5 125q0 111 87 184t225 73q76 0 145.5 -24t107.5 -64l-148 -143q-40 45 -107 45q-30 0 -51.5 -13t-21.5 -36q0 -18 17 -29.5t58 -24.5
q96 -32 145.5 -81t49.5 -126q0 -65 -29.5 -115.5t-77 -79t-101.5 -43t-110 -14.5z" />
    <glyph glyph-name="uni0406" unicode="&#x406;" horiz-adv-x="367" 
d="M7 0l125 708h233l-125 -708h-233z" />
    <glyph glyph-name="uni0407" unicode="&#x407;" horiz-adv-x="367" 
d="M7 0l125 708h233l-125 -708h-233zM134 763q-41 0 -67 24t-26 58q0 45 30 76.5t77 31.5q40 0 66 -24.5t26 -57.5q0 -45 -30 -76.5t-76 -31.5zM385 763q-41 0 -67 24t-26 58q0 45 30 76.5t77 31.5q40 0 66 -24.5t26 -57.5q0 -45 -30 -76.5t-76 -31.5z" />
    <glyph glyph-name="uni0408" unicode="&#x408;" horiz-adv-x="562" 
d="M206 -20q-98 0 -163.5 47t-90.5 132l212 75q3 -19 15 -31t30 -12q38 0 48 60l81 457h232l-81 -453q-8 -44 -17.5 -77t-30.5 -72.5t-49.5 -65t-76 -43t-109.5 -17.5z" />
    <glyph glyph-name="uni0409" unicode="&#x409;" horiz-adv-x="1146" 
d="M62 -7q-71 0 -115 16l36 189q21 -10 49 -10q20 0 36 6.5t34.5 26.5t34 63.5t27.5 109.5l55 314h604l-40 -228h39q136 0 210 -57t74 -158q0 -134 -86.5 -199.5t-246.5 -65.5h-305l90 515h-149l-20 -115q-22 -128 -51.5 -209t-71.5 -124t-88.5 -58.5t-115.5 -15.5zM724 183
h49q103 0 103 67q0 56 -83 56h-47z" />
    <glyph glyph-name="uni040A" unicode="&#x40a;" horiz-adv-x="1118" 
d="M7 0l125 708h230l-42 -240h202l42 240h232l-43 -240h48q133 0 205 -55.5t72 -154.5q0 -130 -84.5 -194t-240.5 -64h-313l49 275h-202l-49 -275h-231zM698 184h56q95 0 95 63q0 51 -76 51h-55z" />
    <glyph glyph-name="uni040B" unicode="&#x40b;" horiz-adv-x="853" 
d="M118 0l90 518h-178l34 190h583l-34 -190h-174l-19 -110q86 22 159 22q199 0 199 -172q0 -25 -7 -69l-34 -189h-231l25 149q4 26 4 36q0 34 -17.5 46t-52.5 12q-47 0 -77 -15l-39 -228h-231z" />
    <glyph glyph-name="uni040C" unicode="&#x40c;" horiz-adv-x="740" 
d="M7 0l125 708h224l-48 -271h3l224 271h282l-318 -342l219 -366h-277l-155 298h-2l-52 -298h-225zM670 908l-178 -144h-165l135 144h208z" />
    <glyph glyph-name="uni040D" unicode="&#x40d;" horiz-adv-x="817" 
d="M7 0l124 708h221l-66 -379h4l283 379h242l-124 -708h-221l63 358h-4l-269 -358h-253zM239 908h208l126 -144h-165z" />
    <glyph glyph-name="uni040E" unicode="&#x40e;" horiz-adv-x="725" 
d="M140 -12q-77 0 -134 16l36 186q29 -11 68 -11q45 0 70.5 14t44.5 41l-185 474h262l78 -274l155 274h274l-358 -537q-65 -97 -139.5 -140t-171.5 -43zM436 764q-170 0 -178 147l113 22q1 -55 69 -55q79 0 92 57l109 -23q-40 -148 -205 -148z" />
    <glyph glyph-name="uni040F" unicode="&#x40f;" horiz-adv-x="792" 
d="M216 -135l24 135h-233l124 708h232l-91 -513h198l91 513h229l-124 -708h-226l-24 -135h-200z" />
    <glyph glyph-name="uni0410" unicode="&#x410;" horiz-adv-x="775" 
d="M-83 0l435 708h244l124 -708h-240l-16 108h-230l-59 -108h-258zM323 285h122l-21 182z" />
    <glyph glyph-name="uni0411" unicode="&#x411;" horiz-adv-x="685" 
d="M7 0l124 708h524l-32 -183h-301l-12 -68h54q129 0 199.5 -54t70.5 -151q0 -127 -82.5 -189.5t-234.5 -62.5h-310zM261 180h51q93 0 93 61q0 50 -75 50h-49z" />
    <glyph glyph-name="uni0412" unicode="&#x412;" horiz-adv-x="690" 
d="M7 0l125 708h324q85 0 146.5 -38t61.5 -117q0 -70 -39 -116.5t-104 -64.5v-2q50 -9 84.5 -50t34.5 -101q0 -105 -83.5 -162t-220.5 -57h-329zM254 180h59q98 0 98 59q0 48 -70 48h-68zM298 432h64q76 0 76 54q0 43 -66 43h-58z" />
    <glyph glyph-name="uni0413" unicode="&#x413;" horiz-adv-x="527" 
d="M7 0l124 708h461l-34 -195h-230l-90 -513h-231z" />
    <glyph glyph-name="uni0414" unicode="&#x414;" horiz-adv-x="840" 
d="M-75 -135l59 330h58q100 112 141 341l30 172h605l-88 -513h76l-58 -330h-200l24 135h-423l-24 -135h-200zM288 195h211l54 320h-148l-2 -15q-25 -187 -115 -305z" />
    <glyph glyph-name="uni0415" unicode="&#x415;" horiz-adv-x="592" 
d="M7 0l125 708h463l-34 -193h-245l-12 -68h234l-32 -180h-234l-13 -74h274l-34 -193h-492z" />
    <glyph glyph-name="uni0416" unicode="&#x416;" horiz-adv-x="1110" 
d="M-91 0l340 389l-175 319h250l137 -277h2l49 277h224l-49 -277h3l215 277h282l-308 -342l209 -366h-277l-144 304h-2l-53 -304h-225l54 304h-3l-237 -304h-292z" />
    <glyph glyph-name="uni0417" unicode="&#x417;" horiz-adv-x="625" 
d="M263 -20q-216 4 -307 113l150 150q53 -72 142 -72q39 0 64.5 14t25.5 43q0 53 -95 53h-65l29 163h73q92 0 92 51q0 21 -19 33t-52 12q-77 0 -142 -53l-102 142q126 98 300 98q120 0 184.5 -46t64.5 -130q0 -65 -41.5 -115.5t-95.5 -63.5v-4q47 -16 74.5 -55.5t27.5 -95.5
q0 -79 -47 -134.5t-114.5 -79t-146.5 -23.5z" />
    <glyph glyph-name="uni0418" unicode="&#x418;" horiz-adv-x="817" 
d="M7 0l124 708h221l-66 -379h4l283 379h242l-124 -708h-221l63 358h-4l-269 -358h-253z" />
    <glyph glyph-name="uni0419" unicode="&#x419;" horiz-adv-x="817" 
d="M7 0l124 708h221l-66 -379h4l283 379h242l-124 -708h-221l63 358h-4l-269 -358h-253zM469 764q-170 0 -178 147l113 22q1 -55 69 -55q79 0 92 57l109 -23q-40 -148 -205 -148z" />
    <glyph glyph-name="uni041A" unicode="&#x41a;" horiz-adv-x="740" 
d="M7 0l125 708h224l-48 -271h3l224 271h282l-318 -342l219 -366h-277l-155 298h-2l-52 -298h-225z" />
    <glyph glyph-name="uni041B" unicode="&#x41b;" horiz-adv-x="825" 
d="M62 -7q-71 0 -115 16l36 189q21 -10 49 -10q20 0 36 6.5t34.5 26.5t34 63.5t27.5 109.5l55 314h604l-124 -708h-231l90 515h-149l-20 -115q-22 -128 -51.5 -209t-71.5 -124t-88.5 -58.5t-115.5 -15.5z" />
    <glyph glyph-name="uni041C" unicode="&#x41c;" horiz-adv-x="1003" 
d="M7 0l125 708h295l62 -388h5l184 388h323l-125 -708h-225l79 410h-6l-209 -410h-163l-63 410h-5l-61 -410h-216z" />
    <glyph glyph-name="uni041D" unicode="&#x41d;" horiz-adv-x="798" 
d="M7 0l125 708h230l-43 -243h202l43 243h232l-125 -708h-231l48 272h-202l-48 -272h-231z" />
    <glyph glyph-name="uni041E" unicode="&#x41e;" horiz-adv-x="833" 
d="M382 -18q-167 0 -259 88.5t-92 233.5q0 180 119.5 301t310.5 121q168 0 260 -88t92 -234q0 -180 -119.5 -301t-311.5 -121zM403 194q75 0 122 57.5t47 135.5q0 56 -34.5 92.5t-95.5 36.5q-75 0 -122.5 -58t-47.5 -135q0 -56 34.5 -92.5t96.5 -36.5z" />
    <glyph glyph-name="uni041F" unicode="&#x41f;" horiz-adv-x="792" 
d="M7 0l124 708h659l-124 -708h-231l91 515h-197l-91 -515h-231z" />
    <glyph glyph-name="uni0420" unicode="&#x420;" horiz-adv-x="680" 
d="M7 0l125 708h264q135 0 208.5 -56.5t73.5 -157.5q0 -133 -86 -198t-245 -65h-68l-42 -231h-230zM309 405h37q102 0 102 66q0 56 -82 56h-35z" />
    <glyph glyph-name="uni0421" unicode="&#x421;" horiz-adv-x="686" 
d="M369 -20q-158 0 -248 84.5t-90 228.5q0 183 121 309t305 126q88 0 159 -28t110 -71l-161 -166q-36 51 -114 51q-74 0 -121 -56.5t-47 -137.5q0 -54 34 -89t96 -35q69 0 128 55l114 -170q-113 -101 -286 -101z" />
    <glyph glyph-name="uni0422" unicode="&#x422;" horiz-adv-x="583" 
d="M118 0l90 513h-179l35 195h584l-35 -195h-173l-90 -513h-232z" />
    <glyph glyph-name="uni0423" unicode="&#x423;" horiz-adv-x="725" 
d="M140 -12q-77 0 -134 16l36 186q29 -11 68 -11q45 0 70.5 14t44.5 41l-185 474h262l78 -274l155 274h274l-358 -537q-65 -97 -139.5 -140t-171.5 -43z" />
    <glyph glyph-name="uni0424" unicode="&#x424;" horiz-adv-x="965" 
d="M306 -20l16 89q-134 14 -209 84.5t-75 186.5q0 149 106 234.5t282 88.5l12 65h230l-12 -68q134 -14 209 -84t75 -186q0 -150 -106.5 -235.5t-282.5 -87.5l-15 -87h-230zM360 260l36 210q-62 -4 -93.5 -37.5t-31.5 -84.5q0 -78 89 -88zM582 260q62 4 93.5 37t31.5 85
q0 77 -90 87z" />
    <glyph glyph-name="uni0425" unicode="&#x425;" horiz-adv-x="766" 
d="M-88 0l331 369l-173 339h263l77 -189l146 189h280l-306 -336l190 -372h-267l-89 211l-168 -211h-284z" />
    <glyph glyph-name="uni0426" unicode="&#x426;" horiz-adv-x="812" 
d="M518 -135l24 135h-535l124 708h231l-90 -513h198l91 513h229l-90 -513h76l-58 -330h-200z" />
    <glyph glyph-name="uni0427" unicode="&#x427;" horiz-adv-x="736" 
d="M379 0l42 243q-86 -22 -159 -22q-196 0 -196 176q0 35 7 71l42 240h227l-36 -208q-4 -20 -4 -37q0 -34 17.5 -45.5t57.5 -11.5q46 0 76 15l50 287h231l-124 -708h-231z" />
    <glyph glyph-name="uni0428" unicode="&#x428;" horiz-adv-x="1134" 
d="M7 0l124 708h231l-90 -513h154l90 513h231l-90 -513h154l90 513h231l-124 -708h-1001z" />
    <glyph glyph-name="uni0429" unicode="&#x429;" horiz-adv-x="1154" 
d="M860 -135l24 135h-877l124 708h231l-90 -513h154l90 513h231l-90 -513h154l90 513h231l-90 -513h76l-58 -330h-200z" />
    <glyph glyph-name="uni042A" unicode="&#x42a;" horiz-adv-x="747" 
d="M69 0l90 513h-130l34 195h361l-40 -228h39q136 0 210 -57t74 -158q0 -134 -86.5 -199.5t-246.5 -65.5h-305zM325 183h49q103 0 103 67q0 56 -83 56h-47z" />
    <glyph glyph-name="uni042B" unicode="&#x42b;" horiz-adv-x="1026" 
d="M7 0l124 708h231l-40 -228h39q136 0 210 -57t74 -158q0 -134 -86.5 -199.5t-246.5 -65.5h-305zM263 183h49q103 0 103 67q0 56 -83 56h-47zM669 0l124 708h231l-124 -708h-231z" />
    <glyph glyph-name="uni042C" unicode="&#x42c;" horiz-adv-x="685" 
d="M7 0l124 708h231l-40 -228h39q136 0 210 -57t74 -158q0 -134 -86.5 -199.5t-246.5 -65.5h-305zM312 183q103 0 103 67q0 56 -83 56h-47l-22 -123h49z" />
    <glyph glyph-name="uni042D" unicode="&#x42d;" horiz-adv-x="690" 
d="M260 -20q-122 0 -189.5 29t-112.5 81l159 158q44 -63 125 -63q98 0 152 82h-206l33 179h195q-33 78 -128 78q-69 0 -128 -55l-103 172q117 87 265 87q162 0 255 -93.5t93 -232.5q0 -181 -117.5 -301.5t-292.5 -120.5z" />
    <glyph glyph-name="uni042E" unicode="&#x42e;" horiz-adv-x="1142" 
d="M703 -18q-157 0 -244.5 80.5t-93.5 211.5h-79l-48 -274h-231l124 708h231l-43 -244h77q45 118 146 190t241 72q164 0 251.5 -86.5t87.5 -225.5q0 -116 -49 -213t-146 -158t-224 -61zM722 191q70 0 115 62t45 142q0 54 -31 89.5t-87 35.5q-71 0 -115.5 -63t-44.5 -142
q0 -53 31 -88.5t87 -35.5z" />
    <glyph glyph-name="uni042F" unicode="&#x42f;" horiz-adv-x="710" 
d="M-75 0l231 282q-36 20 -59 63.5t-23 95.5q0 267 334 267h300l-124 -708h-230l41 233h-22l-167 -233h-281zM384 404h45l22 122h-47q-102 0 -102 -66q0 -56 82 -56z" />
    <glyph glyph-name="uni0430" unicode="&#x430;" horiz-adv-x="588" 
d="M157 -14q-63 0 -110 35t-47 104q0 205 337 205q1 5 1 11q0 20 -17 30.5t-46 10.5q-63 0 -117 -46l-98 112q47 44 114.5 69t130.5 25q118 0 179.5 -48.5t61.5 -136.5q0 -37 -8 -83l-34 -193q-7 -41 -7 -81h-192q0 22 2 48h-2q-55 -62 -148 -62zM242 124q33 0 56.5 21
t29.5 54l3 17h-13q-122 0 -122 -56q0 -36 46 -36z" />
    <glyph glyph-name="uni0431" unicode="&#x431;" horiz-adv-x="667" 
d="M297 -20q-139 0 -206.5 70.5t-67.5 187.5q0 86 26.5 185t65.5 164q35 58 93 88.5t150 41.5l94 12q56 7 74.5 16.5t29.5 32.5l141 -40q-23 -87 -72.5 -125.5t-128.5 -49.5l-130 -17q-60 -8 -101 -35t-62 -94h3q80 86 201 86q99 0 162 -55.5t63 -153.5q0 -149 -96 -231.5
t-239 -82.5zM313 168q47 0 74 32t27 79q0 33 -20 53.5t-58 20.5q-45 0 -72.5 -32.5t-27.5 -78.5q0 -33 20 -53.5t57 -20.5z" />
    <glyph glyph-name="uni0432" unicode="&#x432;" horiz-adv-x="625" 
d="M-6 0l92 526h342q63 0 110 -28t47 -87q0 -52 -29.5 -87t-78.5 -48v-1q38 -7 64 -37.5t26 -74.5q0 -78 -63.5 -120.5t-167.5 -42.5h-342zM232 132h41q76 0 76 46q0 36 -55 36h-48zM265 320h46q61 0 61 42q0 34 -53 34h-41z" />
    <glyph glyph-name="uni0433" unicode="&#x433;" horiz-adv-x="470" 
d="M-6 0l92 526h400l-29 -165h-176l-63 -361h-224z" />
    <glyph glyph-name="uni0434" unicode="&#x434;" horiz-adv-x="715" 
d="M-62 -108l48 273h37q35 34 57.5 81.5t39.5 142.5l24 137h530l-63 -361h66l-49 -273h-179l20 108h-333l-19 -108h-179zM252 165h135l35 199h-98l-5 -32q-17 -113 -67 -167z" />
    <glyph glyph-name="uni0435" unicode="&#x435;" horiz-adv-x="622" 
d="M285 -16q-119 0 -197.5 62.5t-78.5 176.5q0 136 92.5 227.5t236.5 91.5q115 0 182 -63t67 -172q0 -51 -14 -96h-358q-1 -3 -1 -7q0 -29 27.5 -42.5t58.5 -13.5q56 0 92 35l151 -104q-94 -95 -258 -95zM227 330h165q1 4 1 12q0 25 -18.5 40t-51.5 15q-37 0 -63.5 -21.5
t-32.5 -45.5z" />
    <glyph glyph-name="uni0436" unicode="&#x436;" horiz-adv-x="958" 
d="M-80 0l222 282l-104 244h252l74 -207h3l37 207h224l-37 -207h3l138 207h264l-197 -256l115 -270h-257l-80 223h-3l-39 -223h-224l39 223h-3l-149 -223h-278z" />
    <glyph glyph-name="uni0437" unicode="&#x437;" horiz-adv-x="522" 
d="M205 -20q-162 0 -248 72l108 133q14 -14 46.5 -30.5t67.5 -16.5q27 0 46.5 10t19.5 28q0 30 -79 30h-50l22 124h58q75 0 75 35q0 23 -49 23q-68 0 -121 -35l-66 121q105 68 239 68q208 0 208 -129q0 -46 -32.5 -83.5t-74.5 -48.5l-1 -3q40 -11 64.5 -40t24.5 -76
q0 -86 -79 -134t-179 -48z" />
    <glyph glyph-name="uni0438" unicode="&#x438;" horiz-adv-x="693" 
d="M-5 0l92 526h213l-48 -276h3l178 276h238l-92 -526h-212l45 260h-3l-171 -260h-243z" />
    <glyph glyph-name="uni0439" unicode="&#x439;" horiz-adv-x="693" 
d="M-5 0l92 526h213l-48 -276h3l178 276h238l-92 -526h-212l45 260h-3l-171 -260h-243zM381 584q-157 0 -165 133l105 20q1 -50 64 -50q73 0 86 52l101 -21q-37 -134 -191 -134z" />
    <glyph glyph-name="uni043A" unicode="&#x43a;" horiz-adv-x="660" 
d="M-6 0l93 526h224l-37 -207h3l148 207h273l-216 -256l130 -270h-262l-90 223h-3l-39 -223h-224z" />
    <glyph glyph-name="uni043B" unicode="&#x43b;" horiz-adv-x="696" 
d="M61 -7q-89 0 -114 12l33 163q11 -4 30 -4q33 0 59.5 31t42.5 124l36 207h526l-92 -526h-225l63 361h-88l-13 -75q-16 -91 -40 -150t-58 -89.5t-71 -42t-89 -11.5z" />
    <glyph glyph-name="uni043C" unicode="&#x43c;" horiz-adv-x="863" 
d="M-5 0l92 526h278l45 -283h3l133 283h295l-92 -526h-206l52 295l-5 1l-150 -296h-144l-45 297h-3l-52 -297h-201z" />
    <glyph glyph-name="uni043D" unicode="&#x43d;" horiz-adv-x="667" 
d="M-6 0l92 526h224l-29 -169h110l29 169h225l-93 -526h-224l33 192h-110l-33 -192h-224z" />
    <glyph glyph-name="uni043E" unicode="&#x43e;" horiz-adv-x="660" 
d="M295 -16q-125 0 -205.5 62t-80.5 173q0 138 88 230.5t238 92.5q128 0 209 -62t81 -173q0 -138 -88.5 -230.5t-241.5 -92.5zM305 168q47 0 74.5 33t27.5 82q0 34 -20.5 55t-58.5 21q-45 0 -73 -33.5t-28 -81.5q0 -34 20.5 -55t57.5 -21z" />
    <glyph glyph-name="uni043F" unicode="&#x43f;" horiz-adv-x="667" 
d="M-6 0l92 526h559l-93 -526h-225l64 361h-109l-64 -361h-224z" />
    <glyph glyph-name="uni0440" unicode="&#x440;" horiz-adv-x="690" 
d="M-50 -240l136 766h212l-10 -57h2q58 69 149 69q103 0 159.5 -63.5t56.5 -161.5q0 -136 -84 -231t-209 -95q-41 0 -79.5 15t-56.5 40h-2l-51 -282h-223zM334 168q47 0 75 33t28 82q0 33 -21 54.5t-59 21.5q-45 0 -73.5 -33.5t-28.5 -81.5q0 -34 21 -55t58 -21z" />
    <glyph glyph-name="uni0441" unicode="&#x441;" horiz-adv-x="504" 
d="M268 -16q-117 0 -188 64t-71 171q0 133 91.5 228t233.5 95q137 0 195 -70l-127 -139q-19 28 -67 28q-49 0 -80 -32.5t-31 -79.5q0 -32 22 -54.5t63 -22.5q47 0 77 30l89 -151q-85 -67 -207 -67z" />
    <glyph glyph-name="uni0442" unicode="&#x442;" horiz-adv-x="525" 
d="M88 0l63 361h-137l29 165h498l-29 -165h-136l-63 -361h-225z" />
    <glyph glyph-name="uni0443" unicode="&#x443;" horiz-adv-x="631" 
d="M77 -240q-65 0 -115 16l38 177q27 -12 53 -12q62 0 91 55l6 11l-126 519h248l32 -288h4l123 288h240l-305 -558q-60 -111 -120.5 -159.5t-168.5 -48.5z" />
    <glyph glyph-name="uni0444" unicode="&#x444;" horiz-adv-x="889" 
d="M219 -240l41 230q-118 13 -184.5 74t-66.5 173q0 128 98.5 211t249.5 90l38 218h249l-39 -219q252 -29 252 -244q0 -129 -99 -213.5t-250 -91.5l-40 -228h-249zM300 169l33 192q-47 0 -77 -30.5t-30 -76.5q0 -37 19.5 -60.5t54.5 -24.5zM533 169q48 0 78 30.5t30 76.5
q0 37 -19.5 60.5t-55.5 24.5z" />
    <glyph glyph-name="uni0445" unicode="&#x445;" horiz-adv-x="620" 
d="M-96 0l260 271l-139 255h244l55 -116l99 116h252l-243 -255l148 -271h-245l-61 125l-111 -125h-259z" />
    <glyph glyph-name="uni0446" unicode="&#x446;" horiz-adv-x="685" 
d="M420 -108l20 108h-445l92 526h224l-64 -361h110l64 361h224l-64 -361h66l-48 -273h-179z" />
    <glyph glyph-name="uni0447" unicode="&#x447;" horiz-adv-x="639" 
d="M300 0l28 162q-40 -10 -124 -10t-129 33.5t-45 99.5q0 20 4 39l36 202h219l-25 -145q-3 -17 -3 -27q0 -26 13 -34.5t42 -8.5q19 0 39 4l37 211h225l-92 -526h-225z" />
    <glyph glyph-name="uni0448" unicode="&#x448;" horiz-adv-x="971" 
d="M-5 0l92 526h224l-63 -361h95l63 361h224l-63 -361h95l63 361h224l-92 -526h-862z" />
    <glyph glyph-name="uni0449" unicode="&#x449;" horiz-adv-x="989" 
d="M724 -108l20 108h-749l92 526h224l-63 -361h95l63 361h224l-63 -361h95l63 361h224l-64 -361h66l-48 -273h-179z" />
    <glyph glyph-name="uni044A" unicode="&#x44a;" horiz-adv-x="694" 
d="M62 0l63 361h-111l29 165h335l-27 -156h66q107 0 165.5 -44t58.5 -122q0 -204 -263 -204h-316zM350 143q81 0 81 52q0 43 -64 43h-45l-16 -95h44z" />
    <glyph glyph-name="uni044B" unicode="&#x44b;" horiz-adv-x="919" 
d="M-5 0l92 526h224l-27 -156h56q107 0 165.5 -44t58.5 -122q0 -204 -263 -204h-306zM239 143h44q81 0 81 52q0 43 -64 43h-45zM581 0l92 526h224l-92 -526h-224z" />
    <glyph glyph-name="uni044C" unicode="&#x44c;" horiz-adv-x="627" 
d="M-5 0l92 526h224l-27 -156h66q107 0 165.5 -44t58.5 -122q0 -204 -263 -204h-316zM239 143h44q81 0 81 52q0 43 -64 43h-45z" />
    <glyph glyph-name="uni044D" unicode="&#x44d;" horiz-adv-x="533" 
d="M171 -16q-148 0 -206 70l121 132q25 -35 78 -35q69 0 97 51h-138l24 136h118q-21 45 -79 45q-23 0 -45.5 -10.5t-35.5 -26.5l-80 134q83 62 216 62q105 0 181 -63t76 -172q0 -138 -88 -230.5t-239 -92.5z" />
    <glyph glyph-name="uni044E" unicode="&#x44e;" horiz-adv-x="940" 
d="M583 -16q-116 0 -191.5 54.5t-85.5 154.5h-54l-34 -193h-224l92 526h224l-30 -171h51q35 85 110.5 136t181.5 51q127 0 204.5 -61.5t77.5 -173.5q0 -138 -87 -230.5t-235 -92.5zM593 168q41 0 67.5 33.5t26.5 81.5q0 76 -71 76q-39 0 -66 -34t-27 -81q0 -76 70 -76z" />
    <glyph glyph-name="uni044F" unicode="&#x44f;" horiz-adv-x="633" 
d="M-56 0l153 195q-65 42 -65 127q0 204 263 204h316l-92 -526h-224l27 156h-18l-96 -156h-264zM306 290h46l18 99h-47q-84 0 -84 -54q0 -45 67 -45z" />
    <glyph glyph-name="uni0450" unicode="&#x450;" horiz-adv-x="622" 
d="M285 -16q-119 0 -197.5 62.5t-78.5 176.5q0 136 92.5 227.5t236.5 91.5q115 0 182 -63t67 -172q0 -51 -14 -96h-358q-1 -3 -1 -7q0 -29 27.5 -42.5t58.5 -13.5q56 0 92 35l151 -104q-94 -95 -258 -95zM227 330h165q1 4 1 12q0 25 -18.5 40t-51.5 15q-37 0 -63.5 -21.5
t-32.5 -45.5zM135 728h208l126 -144h-165z" />
    <glyph glyph-name="uni0451" unicode="&#x451;" horiz-adv-x="622" 
d="M285 -16q-119 0 -197.5 62.5t-78.5 176.5q0 136 92.5 227.5t236.5 91.5q115 0 182 -63t67 -172q0 -51 -14 -96h-358q-1 -3 -1 -7q0 -29 27.5 -42.5t58.5 -13.5q56 0 92 35l151 -104q-94 -95 -258 -95zM227 330h165q1 4 1 12q0 25 -18.5 40t-51.5 15q-37 0 -63.5 -21.5
t-32.5 -45.5zM243 583q-41 0 -67 24t-26 58q0 45 30 76.5t77 31.5q40 0 66 -24.5t26 -57.5q0 -45 -30 -76.5t-76 -31.5zM494 583q-41 0 -67 24t-26 58q0 45 30 76.5t77 31.5q40 0 66 -24.5t26 -57.5q0 -45 -30 -76.5t-76 -31.5z" />
    <glyph glyph-name="uni0452" unicode="&#x452;" horiz-adv-x="661" 
d="M280 -240q-66 0 -100 15l36 168q20 -9 43 -9q33 0 48 19t21 54l42 260q3 18 3 34q0 45 -46 45q-23 0 -40.5 -21t-24.5 -59l-43 -266h-225l100 570h-49l20 110h48l14 76h225l-14 -76h108l-20 -110h-107l-24 -117h2q26 31 66 52t83 21q82 0 121.5 -44t39.5 -111
q0 -25 -6 -67l-49 -302q-9 -53 -25.5 -93.5t-47 -76t-81 -54t-118.5 -18.5z" />
    <glyph glyph-name="uni0453" unicode="&#x453;" horiz-adv-x="470" 
d="M-6 0l92 526h400l-29 -165h-176l-63 -361h-224zM517 728l-178 -144h-165l135 144h208z" />
    <glyph glyph-name="uni0454" unicode="&#x454;" horiz-adv-x="533" 
d="M266 -16q-105 0 -181 63t-76 172q0 138 88 230.5t239 92.5q135 0 196 -69l-117 -126q-26 28 -72 28q-65 0 -94 -40h135l-24 -133h-132q9 -26 33.5 -42.5t59.5 -16.5q23 0 45.5 10.5t35.5 26.5l79 -134q-83 -62 -215 -62z" />
    <glyph glyph-name="uni0455" unicode="&#x455;" horiz-adv-x="494" 
d="M186 -18q-145 0 -231 72l114 136q52 -52 123 -52q43 0 43 23q0 20 -55 35q-75 22 -112.5 56.5t-37.5 95.5q0 93 74 144t174 51q63 0 120.5 -17.5t92.5 -49.5l-115 -132q-17 18 -47 30.5t-59 12.5q-45 0 -45 -23q0 -10 10 -15.5t37 -12.5q81 -20 123.5 -57.5t42.5 -103.5
q0 -67 -40.5 -112.5t-95 -63t-116.5 -17.5z" />
    <glyph glyph-name="uni0456" unicode="&#x456;" horiz-adv-x="335" 
d="M-5 0l93 526h224l-93 -526h-224zM213 565q-49 0 -80 28.5t-31 68.5q0 54 35.5 91.5t91.5 37.5q48 0 79 -29t31 -68q0 -54 -35.5 -91.5t-90.5 -37.5z" />
    <glyph glyph-name="uni0457" unicode="&#x457;" horiz-adv-x="335" 
d="M89 583q-41 0 -67 24t-26 58q0 45 30 76.5t77 31.5q40 0 66 -24.5t26 -57.5q0 -45 -30 -76.5t-76 -31.5zM340 583q-41 0 -67 24t-26 58q0 45 30 76.5t77 31.5q40 0 66 -24.5t26 -57.5q0 -45 -30 -76.5t-76 -31.5zM219 0h-224l93 526h224z" />
    <glyph glyph-name="uni0458" unicode="&#x458;" horiz-adv-x="341" 
d="M-44 -249q-55 0 -92 12l38 182q18 -5 36 -5q55 0 66 67l92 519h224l-93 -525q-10 -55 -26 -96t-45.5 -78t-79.5 -56.5t-120 -19.5zM220 565q-49 0 -80 28.5t-31 68.5q0 54 35.5 91.5t91.5 37.5q48 0 79 -29t31 -68q0 -54 -35.5 -91.5t-90.5 -37.5z" />
    <glyph glyph-name="uni0459" unicode="&#x459;" horiz-adv-x="989" 
d="M61 -7q-89 0 -114 12l33 163q11 -4 30 -4q33 0 59.5 31t42.5 124l36 207h526l-28 -156h66q107 0 165.5 -44t58.5 -122q0 -204 -263 -204h-316l63 361h-88l-13 -75q-16 -91 -40 -150t-58 -89.5t-71 -42t-89 -11.5zM601 143h44q81 0 81 52q0 43 -64 43h-45z" />
    <glyph glyph-name="uni045A" unicode="&#x45a;" horiz-adv-x="960" 
d="M-6 0l92 526h224l-28 -166h110l28 166h225l-30 -166h74q104 0 161 -43t57 -119q0 -198 -256 -198h-323l34 195h-110l-34 -195h-224zM572 139h46q79 0 79 51q0 42 -63 42h-47z" />
    <glyph glyph-name="uni045B" unicode="&#x45b;" horiz-adv-x="661" 
d="M-6 0l100 570h-49l20 110h48l14 76h225l-14 -76h108l-20 -110h-107l-24 -117h2q26 31 66 52t83 21q82 0 121.5 -44t39.5 -111q0 -35 -6 -67l-49 -304h-225l43 267q3 18 3 34q0 45 -46 45q-23 0 -40.5 -21t-24.5 -59l-43 -266h-225z" />
    <glyph glyph-name="uni045C" unicode="&#x45c;" horiz-adv-x="660" 
d="M-6 0l93 526h224l-37 -207h3l148 207h273l-216 -256l130 -270h-262l-90 223h-3l-39 -223h-224zM586 728l-178 -144h-165l135 144h208z" />
    <glyph glyph-name="uni045D" unicode="&#x45d;" horiz-adv-x="693" 
d="M-5 0l92 526h213l-48 -276h3l178 276h238l-92 -526h-212l45 260h-3l-171 -260h-243zM149 728h208l126 -144h-165z" />
    <glyph glyph-name="uni045E" unicode="&#x45e;" horiz-adv-x="631" 
d="M77 -240q-65 0 -115 16l38 177q27 -12 53 -12q62 0 91 55l6 11l-126 519h248l32 -288h4l123 288h240l-305 -558q-60 -111 -120.5 -159.5t-168.5 -48.5zM361 584q-157 0 -165 133l105 20q1 -50 64 -50q73 0 86 52l101 -21q-37 -134 -191 -134z" />
    <glyph glyph-name="uni045F" unicode="&#x45f;" horiz-adv-x="667" 
d="M160 -108l20 108h-186l92 526h225l-63 -361h109l63 361h225l-92 -526h-194l-20 -108h-179z" />
    <glyph glyph-name="uni0490" unicode="&#x490;" horiz-adv-x="527" 
d="M7 0l124 708h281l22 125h180l-56 -320h-230l-90 -513h-231z" />
    <glyph glyph-name="uni0491" unicode="&#x491;" horiz-adv-x="470" 
d="M-6 0l92 526h235l19 108h165l-48 -273h-176l-63 -361h-224z" />
    <glyph glyph-name="Wgrave" unicode="&#x1e80;" horiz-adv-x="1050" 
d="M1136 708l-334 -708h-238l-20 408h-4l-186 -408h-235l-55 708h245v-405h4l166 405h238l8 -405h4l166 405h241zM378 908h208l126 -144h-165z" />
    <glyph glyph-name="wgrave" unicode="&#x1e81;" horiz-adv-x="963" 
d="M1000 526l-289 -526h-223l-27 274h-2l-137 -274h-222l-72 526h234l11 -279h4l127 279h217l18 -279h3l123 279h235zM284 728h208l126 -144h-165z" />
    <glyph glyph-name="Wacute" unicode="&#x1e82;" horiz-adv-x="1050" 
d="M1136 708l-334 -708h-238l-20 408h-4l-186 -408h-235l-55 708h245v-405h4l166 405h238l8 -405h4l166 405h241zM846 908l-178 -144h-165l135 144h208z" />
    <glyph glyph-name="wacute" unicode="&#x1e83;" horiz-adv-x="963" 
d="M1000 526l-289 -526h-223l-27 274h-2l-137 -274h-222l-72 526h234l11 -279h4l127 279h217l18 -279h3l123 279h235zM771 728l-178 -144h-165l135 144h208z" />
    <glyph glyph-name="Wdieresis" unicode="&#x1e84;" horiz-adv-x="1050" 
d="M1136 708l-334 -708h-238l-20 408h-4l-186 -408h-235l-55 708h245v-405h4l166 405h238l8 -405h4l166 405h241zM492 763q-41 0 -67 24t-26 58q0 45 30 76.5t77 31.5q40 0 66 -24.5t26 -57.5q0 -45 -30 -76.5t-76 -31.5zM743 763q-41 0 -67 24t-26 58q0 45 30 76.5t77 31.5
q40 0 66 -24.5t26 -57.5q0 -45 -30 -76.5t-76 -31.5z" />
    <glyph glyph-name="wdieresis" unicode="&#x1e85;" horiz-adv-x="963" 
d="M1000 526l-289 -526h-223l-27 274h-2l-137 -274h-222l-72 526h234l11 -279h4l127 279h217l18 -279h3l123 279h235zM399 583q-41 0 -67 24t-26 58q0 45 30 76.5t77 31.5q40 0 66 -24.5t26 -57.5q0 -45 -30 -76.5t-76 -31.5zM650 583q-41 0 -67 24t-26 58q0 45 30 76.5
t77 31.5q40 0 66 -24.5t26 -57.5q0 -45 -30 -76.5t-76 -31.5z" />
    <glyph glyph-name="Ygrave" unicode="&#x1ef2;" horiz-adv-x="677" 
d="M789 708l-349 -417l-51 -291h-231l51 291l-187 417h258l76 -219l151 219h282zM159 908h208l126 -144h-165z" />
    <glyph glyph-name="ygrave" unicode="&#x1ef3;" horiz-adv-x="631" 
d="M144 -4l6 11l-126 519h248l32 -288h4l123 288h240l-305 -558q-60 -111 -120.5 -159.5t-168.5 -48.5q-65 0 -115 16l38 177q27 -12 53 -12q62 0 91 55zM115 728h208l126 -144h-165z" />
    <glyph glyph-name="uni2010" unicode="&#x2010;" horiz-adv-x="335" 
d="M279 199h-273l30 168h273z" />
    <glyph glyph-name="endash" unicode="&#x2013;" horiz-adv-x="400" 
d="M19 225l22 120h340l-22 -120h-340z" />
    <glyph glyph-name="emdash" unicode="&#x2014;" horiz-adv-x="600" 
d="M19 225l22 120h540l-22 -120h-540z" />
    <glyph glyph-name="quoteleft" unicode="&#x2018;" horiz-adv-x="350" 
d="M373 708l-124 -281h-185l149 281h160z" />
    <glyph glyph-name="quoteright" unicode="&#x2019;" horiz-adv-x="350" 
d="M374 708l-148 -281h-161l124 281h185z" />
    <glyph glyph-name="quotesinglbase" unicode="&#x201a;" horiz-adv-x="350" 
d="M276 155l-147 -281h-161l123 281h185z" />
    <glyph glyph-name="quotedblleft" unicode="&#x201c;" horiz-adv-x="562" 
d="M589 708l-123 -281h-180l143 281h160zM365 708l-128 -281h-180l148 281h160z" />
    <glyph glyph-name="quotedblright" unicode="&#x201d;" horiz-adv-x="562" 
d="M590 708l-148 -281h-160l128 281h180zM362 708l-144 -281h-160l124 281h180z" />
    <glyph glyph-name="quotedblbase" unicode="&#x201e;" horiz-adv-x="562" 
d="M492 155l-147 -281h-160l127 281h180zM264 155l-143 -281h-160l123 281h180z" />
    <glyph glyph-name="dagger" unicode="&#x2020;" horiz-adv-x="617" 
d="M584 345h-187l-84 -478h-180l84 478h-182l29 166h181l35 197h180l-35 -197h188z" />
    <glyph glyph-name="daggerdbl" unicode="&#x2021;" horiz-adv-x="617" 
d="M530 37h-185l-30 -170h-179l30 170h-184l28 160h184l32 181h-184l28 160h183l30 170h179l-30 -170h186l-28 -160h-186l-32 -181h186z" />
    <glyph glyph-name="bullet" unicode="&#x2022;" horiz-adv-x="500" 
d="M73 354q0 74 51.5 125.5t125.5 51.5t125.5 -51.5t51.5 -125.5t-51.5 -125.5t-125.5 -51.5t-125.5 51.5t-51.5 125.5z" />
    <glyph glyph-name="ellipsis" unicode="&#x2026;" horiz-adv-x="1000" 
d="M127 -12q-54 0 -87.5 31t-33.5 75q0 59 39 99.5t100 40.5q52 0 86 -31.5t34 -74.5q0 -59 -39 -99.5t-99 -40.5zM461 -12q-54 0 -87.5 31t-33.5 75q0 59 39 99.5t100 40.5q52 0 86 -31.5t34 -74.5q0 -59 -39 -99.5t-99 -40.5zM795 -12q-54 0 -87.5 31t-33.5 75
q0 59 39 99.5t100 40.5q52 0 86 -31.5t34 -74.5q0 -59 -39 -99.5t-99 -40.5z" />
    <glyph glyph-name="perthousand" unicode="&#x2030;" horiz-adv-x="1262" 
d="M225 361q-77 0 -125 41t-48 113q0 87 57 146t146 59q78 0 126.5 -41t48.5 -113q0 -86 -58.5 -145.5t-146.5 -59.5zM297 554q0 21 -13 34.5t-36 13.5q-28 0 -45.5 -21.5t-17.5 -52.5q0 -21 13 -34.5t35 -13.5q29 0 46.5 21.5t17.5 52.5zM617 -12q-77 0 -125 41t-48 113
q0 87 57 146t146 59q78 0 126.5 -41t48.5 -113q0 -86 -58.5 -145.5t-146.5 -59.5zM689 181q0 21 -13 34.5t-36 13.5q-28 0 -45.5 -21.5t-17.5 -52.5q0 -21 13 -34.5t35 -13.5q29 0 46.5 21.5t17.5 52.5zM1023 -12q-77 0 -125 41t-48 113q0 87 57 146t146 59q78 0 126.5 -41
t48.5 -113q0 -86 -58.5 -145.5t-146.5 -59.5zM1095 181q0 21 -13 34.5t-36 13.5q-28 0 -45.5 -21.5t-17.5 -52.5q0 -21 13 -34.5t35 -13.5q29 0 46.5 21.5t17.5 52.5zM744 683l-547 -722l-86 58l546 720z" />
    <glyph glyph-name="guilsinglleft" unicode="&#x2039;" horiz-adv-x="348" 
d="M6 282l217 243l110 -81l-151 -171l86 -166l-131 -72z" />
    <glyph glyph-name="guilsinglright" unicode="&#x203a;" horiz-adv-x="348" 
d="M327 278l-217 -243l-110 81l151 171l-86 167l131 71z" />
    <glyph glyph-name="interrobang" unicode="&#x203d;" horiz-adv-x="583" 
d="M371 249h-207l40 246h165l-25 -108h1q37 38 51.5 64t14.5 55q0 28 -19 43.5t-53 15.5q-62 0 -83 -49l-200 36q28 84 108.5 130t197.5 46q113 0 179 -47.5t66 -140.5q0 -138 -184 -242q-48 -27 -51 -44zM381 121q0 -56 -37 -95t-95 -39q-52 0 -84 30t-32 72q0 56 37.5 95
t95.5 39q50 0 82.5 -30t32.5 -72z" />
    <glyph glyph-name="fraction" unicode="&#x2044;" horiz-adv-x="100" 
d="M340 687l-485 -722l-85 54l484 720z" />
    <glyph glyph-name="zero.superior" unicode="&#x2070;" horiz-adv-x="450" 
d="M310 896q92 0 134.5 -50.5t42.5 -122.5q0 -52 -13 -102t-39 -94.5t-72.5 -71.5t-107.5 -27q-93 0 -136.5 50.5t-43.5 122.5q0 53 13 103t39.5 94t73.5 71t109 27zM299 774q-33 0 -54 -51.5t-21 -106.5q0 -65 39 -65q34 0 54 49.5t20 108.5q0 65 -38 65z" />
    <glyph glyph-name="four.superior" unicode="&#x2074;" horiz-adv-x="450" 
d="M461 519h-61l-14 -80h-132l14 80h-210l21 118l202 248h181l-44 -253h63zM288 632l20 119h-2l-96 -119h78z" />
    <glyph glyph-name="five.superior" unicode="&#x2075;" horiz-adv-x="450" 
d="M456 599q0 -84 -58.5 -127.5t-132.5 -43.5q-75 0 -126 32.5t-68 95.5l137 37q5 -21 20.5 -33t36.5 -12q44 0 44 38q0 42 -66 42q-55 0 -125 -14l64 271h300l-22 -122h-176l-9 -34q17 3 35 3q62 0 104 -32t42 -101z" />
    <glyph glyph-name="six.superior" unicode="&#x2076;" horiz-adv-x="450" 
d="M467 614q-1 -78 -57.5 -132t-152.5 -54q-81 0 -132.5 38t-51.5 116q0 79 73 159l131 144h190l-141 -143l1 -1q6 1 11 1q59 0 94 -38.5t35 -89.5zM318 604q0 19 -13 31t-30 12q-26 0 -41.5 -16.5t-15.5 -42.5q0 -19 13.5 -31t31.5 -12q25 0 40 16t15 43z" />
    <glyph glyph-name="seven.superior" unicode="&#x2077;" horiz-adv-x="450" 
d="M262 439h-174l229 324h-187l22 122h352l-18 -104z" />
    <glyph glyph-name="eight.superior" unicode="&#x2078;" horiz-adv-x="450" 
d="M470 782q0 -45 -27.5 -72.5t-64.5 -37.5v-1q27 -11 47.5 -36.5t20.5 -58.5q0 -71 -52.5 -109.5t-141.5 -38.5q-67 0 -119 30t-52 95q0 48 31 81t71 43v1q-56 26 -56 83q0 64 56 99.5t129 35.5q67 0 112.5 -29t45.5 -85zM291 715q19 0 30.5 11.5t11.5 29.5q0 16 -10 25.5
t-26 9.5q-19 0 -31 -11t-12 -30q0 -14 10.5 -24.5t26.5 -10.5zM259 537q22 0 35 12.5t13 31.5q0 16 -11 27t-28 11q-21 0 -34.5 -12.5t-13.5 -31.5q0 -17 11.5 -27.5t27.5 -10.5z" />
    <glyph glyph-name="nine.superior" unicode="&#x2079;" horiz-adv-x="450" 
d="M95 710q1 78 57.5 132t152.5 54q81 0 132.5 -38.5t51.5 -116.5q0 -77 -73 -157l-130 -145h-191l141 143l-1 1q-6 -1 -11 -1q-59 0 -94 38.5t-35 89.5zM244 720q0 -19 12.5 -30.5t30.5 -11.5q26 0 41.5 16.5t15.5 41.5q0 19 -13.5 30.5t-31.5 11.5q-25 0 -40 -16t-15 -42z
" />
    <glyph glyph-name="zero.inferior" unicode="&#x2080;" horiz-adv-x="450" 
d="M205 307q92 0 134.5 -50.5t42.5 -122.5q0 -52 -13 -102t-39 -94.5t-72.5 -71.5t-107.5 -27q-93 0 -136.5 50.5t-43.5 122.5q0 53 13 103t39.5 94t73.5 71t109 27zM194 185q-33 0 -54 -51.5t-21 -106.5q0 -65 39 -65q34 0 54 49.5t20 108.5q0 65 -38 65z" />
    <glyph glyph-name="one.inferior" unicode="&#x2081;" horiz-adv-x="450" 
d="M256 -150h-147l52 293l-84 -45l-43 110l167 88h134z" />
    <glyph glyph-name="two.inferior" unicode="&#x2082;" horiz-adv-x="450" 
d="M323 -150h-367l20 114l202 141q37 26 37 47q0 29 -34 29q-42 0 -54 -53l-134 20q18 72 73 115.5t134 43.5q71 0 119 -33.5t48 -97.5q0 -38 -18.5 -69.5t-37.5 -47t-52 -36.5l-81 -50h166z" />
    <glyph glyph-name="three.inferior" unicode="&#x2083;" horiz-adv-x="450" 
d="M340 -8q0 -75 -58.5 -114t-133.5 -39q-73 0 -124 34t-65 100l131 32q12 -46 60 -46q19 0 32 9t13 25q0 37 -63 37h-41l17 98h47q64 0 64 36q0 28 -35 28q-18 0 -33 -10t-20 -25l-126 33q23 58 74 87.5t115 29.5q69 0 118.5 -29.5t49.5 -95.5q0 -37 -24.5 -63t-57.5 -35
q28 -11 44 -35.5t16 -56.5z" />
    <glyph glyph-name="four.inferior" unicode="&#x2084;" horiz-adv-x="450" 
d="M356 -70h-61l-14 -80h-132l14 80h-210l21 118l202 248h181l-44 -253h63zM183 43l20 119h-2l-96 -119h78z" />
    <glyph glyph-name="five.inferior" unicode="&#x2085;" horiz-adv-x="450" 
d="M351 10q0 -84 -58.5 -127.5t-132.5 -43.5q-75 0 -126 32.5t-68 95.5l137 37q5 -21 20.5 -33t36.5 -12q44 0 44 38q0 42 -66 42q-55 0 -125 -14l64 271h300l-22 -122h-176l-9 -34q16 3 35 3q62 0 104 -32t42 -101z" />
    <glyph glyph-name="six.inferior" unicode="&#x2086;" horiz-adv-x="450" 
d="M362 25q-1 -78 -57.5 -132t-152.5 -54q-81 0 -132.5 38t-51.5 116q0 79 73 159l131 144h190l-141 -143l1 -1q6 1 11 1q59 0 94 -38.5t35 -89.5zM213 15q0 19 -13 31t-30 12q-26 0 -41.5 -16.5t-15.5 -42.5q0 -19 13.5 -31t31.5 -12q25 0 40 16t15 43z" />
    <glyph glyph-name="seven.inferior" unicode="&#x2087;" horiz-adv-x="450" 
d="M157 -150h-174l229 324h-187l22 122h352l-18 -104z" />
    <glyph glyph-name="eight.inferior" unicode="&#x2088;" horiz-adv-x="450" 
d="M365 193q0 -45 -27.5 -72.5t-64.5 -37.5v-1q27 -11 47.5 -36.5t20.5 -58.5q0 -71 -52.5 -109.5t-141.5 -38.5q-67 0 -119 30t-52 95q0 48 31 81t71 43v1q-56 26 -56 83q0 64 56 99.5t129 35.5q67 0 112.5 -29t45.5 -85zM186 126q19 0 30.5 11.5t11.5 29.5q0 16 -10 25.5
t-26 9.5q-19 0 -31 -11t-12 -30q0 -14 10.5 -24.5t26.5 -10.5zM154 -52q22 0 35 12.5t13 31.5q0 16 -11 27t-28 11q-21 0 -34.5 -12.5t-13.5 -31.5q0 -17 11.5 -27.5t27.5 -10.5z" />
    <glyph glyph-name="nine.inferior" unicode="&#x2089;" horiz-adv-x="450" 
d="M-10 121q1 78 57.5 132t152.5 54q81 0 132.5 -38.5t51.5 -116.5q0 -77 -73 -157l-130 -145h-191l141 143l-1 1q-6 -1 -11 -1q-59 0 -94 38.5t-35 89.5zM139 131q0 -19 12.5 -30.5t30.5 -11.5q26 0 41.5 16.5t15.5 41.5q0 19 -13.5 30.5t-31.5 11.5q-25 0 -40 -16t-15 -42
z" />
    <glyph glyph-name="Euro" unicode="&#x20ac;" horiz-adv-x="695" 
d="M123 335q0 18 7 41h-87l70 131h53q48 105 143 163t229 58q94 0 159 -24l-78 -163q-41 17 -95 17q-38 0 -73 -14t-51 -37h206l-64 -131h-201q-5 -18 -7 -41h197l-63 -129h-131q8 -24 39 -38t71 -14q74 0 125 27l16 -168q-62 -33 -180 -33q-121 0 -198 61.5t-91 164.5h-108
l65 129h47z" />
    <glyph glyph-name="afii61248" unicode="&#x2105;" horiz-adv-x="950" 
d="M230 345q-79 0 -129 44t-50 117q0 91 63 155.5t162 64.5q95 0 134 -48l-87 -95q-21 19 -47 19q-34 0 -54.5 -22t-20.5 -54q0 -22 15 -36.5t43 -14.5q33 0 53 20l61 -104q-57 -46 -143 -46zM225 -39l-86 58l546 720l87 -56zM903 210q0 -95 -60.5 -158t-164.5 -63
q-85 0 -140 41.5t-55 117.5q0 94 60 158t162 64q88 0 143 -42t55 -118zM755 193q0 24 -14 38.5t-40 14.5q-31 0 -50.5 -22.5t-19.5 -56.5q0 -24 14 -38.5t40 -14.5q32 0 51 22.5t19 56.5z" />
    <glyph glyph-name="afii61289" unicode="&#x2113;" horiz-adv-x="500" 
d="M513 586q0 -82 -61.5 -157.5t-202.5 -165.5q-25 -100 -25 -123q0 -41 40 -41q35 0 97 39h2l38 -90q-91 -62 -185 -62q-71 0 -109.5 34.5t-38.5 91.5q0 11 7 50l-58 -40h-2l-41 88l128 82l48 229q20 92 79.5 146t143.5 54q61 0 100.5 -39t39.5 -96zM384 579q0 17 -8 28.5
t-20 11.5q-30 0 -43 -59l-35 -162q47 39 76.5 87.5t29.5 93.5z" />
    <glyph glyph-name="uni2116" unicode="&#x2116;" horiz-adv-x="1075" 
d="M7 0l124 708h230l96 -319h4l56 319h219l-124 -708h-236l-94 298h-4l-52 -298h-219zM739 280l18 100h292l-18 -100h-292zM920 418q-67 0 -111 33.5t-44 93.5q0 75 48 125t129 50q69 0 113 -33.5t44 -93.5q0 -75 -48 -125t-131 -50zM926 517q25 0 40 18.5t15 44.5
q0 18 -11.5 29.5t-31.5 11.5q-24 0 -39.5 -18.5t-15.5 -43.5q0 -18 11.5 -30t31.5 -12z" />
    <glyph glyph-name="published" unicode="&#x2117;" horiz-adv-x="800" 
d="M20 353q0 157 111.5 267t269.5 110q157 0 268 -110t111 -267q0 -156 -111 -265.5t-268 -109.5q-158 0 -269.5 109.5t-111.5 265.5zM80 353q0 -132 92.5 -225.5t224.5 -93.5t227.5 93.5t95.5 225.5q0 133 -93.5 227t-225.5 94q-133 0 -227 -94t-94 -227zM249 123v448h191
q80 0 132.5 -36t52.5 -117q0 -78 -53 -116.5t-132 -38.5h-45v-140h-146zM395 372h34q52 0 52 44q0 43 -52 43h-34v-87z" />
    <glyph glyph-name="trademark" unicode="&#x2122;" horiz-adv-x="1000" 
d="M212 296v309h-112v103h346v-103h-112v-309h-122zM506 296v412h164l89 -248l83 248h163v-412h-112v245h-2l-92 -245h-91l-89 245h-2v-245h-111z" />
    <glyph glyph-name="Omega" unicode="&#x2126;" horiz-adv-x="786" 
d="M359 0l49 279q49 16 72.5 54t23.5 88q0 44 -27 69.5t-71 25.5q-53 0 -88.5 -40t-35.5 -100q0 -84 68 -97l-49 -279h-311l29 164h127l2 8q-41 20 -74.5 76.5t-33.5 130.5q0 146 106.5 246.5t287.5 100.5q151 0 231.5 -75t80.5 -183q0 -102 -47 -179t-127 -118l-1 -7h136
l-29 -164h-319z" />
    <glyph glyph-name="estimated" unicode="&#x212e;" horiz-adv-x="500" 
d="M561 259h-404v-181q59 -59 145 -59q122 0 193 120l35 -21q-46 -72 -98 -103.5t-130 -31.5q-115 0 -186.5 79t-71.5 197q0 119 71 197.5t187 78.5q115 0 186.5 -77t72.5 -199zM157 295h291v145q-63 60 -147 60t-144 -60v-145z" />
    <glyph glyph-name="partialdiff" unicode="&#x2202;" horiz-adv-x="776" 
d="M664 360q0 -50 -6 -95.5t-25 -98t-50 -90.5t-85 -63.5t-125 -25.5q-121 0 -198 67.5t-77 181.5q0 103 68 169t193 66q48 0 87 -17q-9 79 -103 79q-79 0 -155 -63l-95 154q110 97 263 97q69 0 123.5 -22.5t88.5 -58t56 -84t31 -97t9 -99.5zM456 303v2q-27 16 -67 16
q-35 0 -55 -19.5t-20 -55.5q0 -38 20.5 -57.5t42.5 -19.5q43 0 60 32.5t19 101.5z" />
    <glyph glyph-name="Delta" unicode="&#x2206;" horiz-adv-x="780" 
d="M675 0h-722l21 96l380 612h244l105 -578zM464 177l-38 290l-166 -290h204z" />
    <glyph glyph-name="product" unicode="&#x220f;" horiz-adv-x="765" 
d="M711 -214h-190v837h-277v-837h-188v1000h655v-1000z" />
    <glyph glyph-name="summation" unicode="&#x2211;" horiz-adv-x="684" 
d="M664 -214h-637v133q47 63 140.5 187t140.5 186q-44 60 -134.5 180.5t-135.5 180.5v133h615v-163h-382q39 -55 118.5 -165t118.5 -165l-253 -344h409v-163z" />
    <glyph glyph-name="minus" unicode="&#x2212;" horiz-adv-x="666" 
d="M74 376h518v-144h-518v144z" />
    <glyph glyph-name="uni2215" unicode="&#x2215;" horiz-adv-x="100" 
d="M340 687l-485 -722l-85 54l484 720z" />
    <glyph glyph-name="uni2219" unicode="&#x2219;" horiz-adv-x="354" 
d="M158 168q-54 0 -87.5 31t-33.5 75q0 59 39 99.5t100 40.5q52 0 86 -31.5t34 -74.5q0 -59 -39 -99.5t-99 -40.5z" />
    <glyph glyph-name="radical" unicode="&#x221a;" horiz-adv-x="601" 
d="M609 786l-217 -1000h-146q-23 47 -69 141.5t-69 141.5l-51 -23l-67 138q34 15 101.5 45.5t100.5 44.5q15 -34 47.5 -102.5t47.5 -102.5l148 717h174z" />
    <glyph glyph-name="infinity" unicode="&#x221e;" horiz-adv-x="859" 
d="M814 269q0 -85 -53 -142.5t-144 -57.5q-101 0 -187 94q-42 -44 -84 -68.5t-100 -24.5q-91 0 -146 56t-55 142q0 84 53.5 139.5t143.5 55.5q59 0 103 -26.5t85 -72.5q85 100 188 100q90 0 143 -55.5t53 -139.5zM668 266q0 26 -14.5 41t-39.5 15q-38 0 -93 -57
q50 -54 96 -54q23 0 37 15.5t14 39.5zM338 265q-60 56 -96 56q-22 0 -36.5 -16t-14.5 -39q0 -25 14.5 -39.5t39.5 -14.5q40 0 93 53z" />
    <glyph glyph-name="integral" unicode="&#x222b;" horiz-adv-x="655" 
d="M552 683q0 -34 -22.5 -58t-57.5 -24q-14 0 -26.5 5.5t-18 11.5t-14.5 16.5t-11 13.5q-7 -17 -7 -46v-12q0 -11 0.5 -33t0.5 -33v-409q0 -73 -4 -108q-16 -220 -188 -220q-49 0 -93 27.5t-44 80.5q0 19 10 36q23 39 71 39q18 0 29.5 -6.5t23.5 -21t13 -15.5q7 20 7 48
q1 7 1 20q0 7 -0.5 19.5t-0.5 18.5v486q0 265 195 265q46 0 91 -25t45 -76z" />
    <glyph glyph-name="approxequal" unicode="&#x2248;" horiz-adv-x="666" 
d="M619 485q-9 -110 -57 -161t-116 -51q-42 0 -124 29.5t-115 29.5q-28 0 -38 -41h-121q7 83 50 138t128 55q40 0 117 -26t115 -26q33 0 38 53h123zM619 251q-5 -36 -15 -67t-28.5 -62t-51 -49t-75.5 -18q-44 0 -128 30.5t-114 30.5q-32 0 -40 -56h-121q7 87 49 148.5
t121 61.5q42 0 122 -28t122 -28q24 0 36 37h123z" />
    <glyph glyph-name="notequal" unicode="&#x2260;" horiz-adv-x="666" 
d="M597 58h-282l-74 -148q-23 11 -70.5 33t-71.5 34l44 81h-74v152h153l24 45l24 45h-201v152h280l78 147q23 -10 70 -32.5t70 -33.5q-8 -13 -22 -40.5t-21 -40.5h73v-152h-152q-7 -15 -23.5 -45t-24.5 -45h200v-152z" />
    <glyph glyph-name="lessequal" unicode="&#x2264;" horiz-adv-x="666" 
d="M588 7h-510v139h510v-139zM588 163l-510 203v134l510 203v-162q-45 -19 -136.5 -55.5t-137.5 -55.5l274 -103v-164z" />
    <glyph glyph-name="greaterequal" unicode="&#x2265;" horiz-adv-x="666" 
d="M588 7h-510v139h510v-139zM588 366l-510 -203v164l274 103q-45 19 -137 55.5t-137 55.5v162l510 -203v-134z" />
    <glyph glyph-name="lozenge" unicode="&#x25ca;" horiz-adv-x="619" 
d="M568 356l-190 -391h-140l-185 391q31 65 93 195.5t94 195.5h138zM395 356q-14 33 -43.5 98.5t-43.5 98.5q-15 -32 -42.5 -98t-41.5 -99q14 -32 42 -98t42 -98q14 32 43.5 98t43.5 98z" />
    <glyph glyph-name="f_i" unicode="&#xf001;" horiz-adv-x="747" 
d="M493 770l-36 -168q-20 9 -43 9q-33 0 -47.5 -18.5t-21.5 -54.5l-2 -12h111l-28 -161h-108l-65 -365h-223l65 365h-90l28 161h87l3 16q9 54 25.5 94t46.5 75.5t80 54.5t118 19q66 0 100 -15zM631 0h-224l93 526h224zM625 565q-49 0 -80 28.5t-31 68.5q0 54 35.5 91.5
t91.5 37.5q48 0 79 -29t31 -68q0 -54 -35.5 -91.5t-90.5 -37.5z" />
    <glyph glyph-name="f_l" unicode="&#xf002;" horiz-adv-x="750" 
d="M493 770l-36 -168q-20 9 -43 9q-33 0 -47.5 -18.5t-21.5 -54.5l-2 -12h111l-28 -161h-108l-65 -365h-223l65 365h-90l28 161h87l3 16q9 54 25.5 94t46.5 75.5t80 54.5t118 19q66 0 100 -15zM635 0h-229l133 756h229z" />
    <glyph glyph-name="uniF8FF" unicode="&#xf8ff;" horiz-adv-x="512" 
d="M278 117h-56v67h56v-67zM271 234h-46l-2 17q0 56 13 81q15 28 46 59q31 29 40.5 46t9.5 37q0 36 -22.5 60.5t-53.5 24.5q-71 0 -82 -95l-50 8q7 69 43 103t92 34q54 0 89 -36t35 -95q0 -34 -13 -60t-50 -60q-37 -33 -43 -52q-6 -20 -6 -72zM50 50h412v617h-412v-617z
M0 718h512v-718h-512v718z" />
    <glyph glyph-name="grave.cap" 
d="M3 908h208l126 -144h-165z" />
    <glyph glyph-name="acute.cap" 
d="M463 908l-178 -144h-165l135 144h208z" />
    <glyph glyph-name="circumflex.cap" 
d="M438 764h-152l-55 69l-79 -69h-150l161 144h167z" />
    <glyph glyph-name="caron.cap" 
d="M463 908l-158 -144h-167l-111 144h150l55 -70l79 70h152z" />
    <glyph glyph-name="caron.alt" 
d="M341 708l-131 -182h-161l107 182h185z" />
    <glyph glyph-name="tilde.cap" 
d="M431 900q-15 -61 -52 -100t-87 -39q-39 0 -77 23q-38 22 -59 22q-31 0 -44 -36h-79q14 59 50.5 97t86.5 38q32 0 78 -24q41 -21 62 -21q27 0 43 40h78z" />
    <glyph glyph-name="dieresis.cap" 
d="M94 763q-41 0 -67 24t-26 58q0 45 30 76.5t77 31.5q40 0 66 -24.5t26 -57.5q0 -45 -30 -76.5t-76 -31.5zM345 763q-41 0 -67 24t-26 58q0 45 30 76.5t77 31.5q40 0 66 -24.5t26 -57.5q0 -45 -30 -76.5t-76 -31.5z" />
    <glyph glyph-name="macron.cap" 
d="M404 791h-358l16 95h358z" />
    <glyph glyph-name="breve.cap" 
d="M424 908q-28 -144 -193 -144t-165 144h107q0 -41 62 -41q76 0 82 41h107z" />
    <glyph glyph-name="ring.cap" 
d="M223 745q-44 0 -71.5 26t-27.5 66q0 55 36 93.5t90 38.5q44 0 72 -25.5t28 -66.5q0 -55 -36 -93.5t-91 -38.5zM299 872q0 22 -14.5 37t-38.5 15q-30 0 -50.5 -24t-20.5 -57q0 -23 14 -37.5t38 -14.5q31 0 51.5 23.5t20.5 57.5z" />
    <glyph glyph-name="hungarumlaut.cap" 
d="M573 908l-178 -144h-164l135 144h207zM333 908l-178 -144h-165l135 144h208z" />
    <glyph glyph-name="dotaccent.cap" 
d="M224 757q-44 0 -72 26t-28 62q0 49 32 82.5t82 33.5q43 0 71 -26t28 -62q0 -49 -32 -82.5t-81 -33.5z" />
    <glyph glyph-name="commaaccent" 
d="M291 -45l-137 -195h-161l113 195h185z" />
    <glyph glyph-name="commaaccent.alt" 
d="M69 584l137 195h161l-113 -195h-185z" />
    <glyph glyph-name="zero.denominator" horiz-adv-x="450" 
d="M232 457q92 0 134.5 -50.5t42.5 -122.5q0 -52 -13 -102t-39 -94.5t-72.5 -71.5t-107.5 -27q-93 0 -136.5 50.5t-43.5 122.5q0 53 13 103t39.5 94t73.5 71t109 27zM221 335q-33 0 -54 -51.5t-21 -106.5q0 -65 39 -65q34 0 54 49.5t20 108.5q0 65 -38 65z" />
    <glyph glyph-name="one.denominator" horiz-adv-x="450" 
d="M284 0h-147l52 293l-84 -45l-43 110l167 88h134z" />
    <glyph glyph-name="two.denominator" horiz-adv-x="450" 
d="M350 0h-367l20 114l202 141q37 26 37 47q0 29 -34 29q-42 0 -54 -53l-134 20q18 72 73 115.5t134 43.5q71 0 119 -33.5t48 -97.5q0 -38 -18.5 -69.5t-37.5 -47t-52 -36.5l-81 -50h166z" />
    <glyph glyph-name="three.denominator" horiz-adv-x="450" 
d="M367 142q0 -75 -58.5 -114t-133.5 -39q-73 0 -124 34t-65 100l131 32q5 -21 21 -33.5t39 -12.5q19 0 32 9t13 25q0 37 -63 37h-41l17 98h47q64 0 64 36q0 28 -35 28q-18 0 -33 -10t-20 -25l-126 33q23 58 74 87.5t115 29.5q69 0 118.5 -29.5t49.5 -95.5q0 -37 -24.5 -63
t-57.5 -35q28 -11 44 -35.5t16 -56.5z" />
    <glyph glyph-name="four.denominator" horiz-adv-x="450" 
d="M383 80h-61l-14 -80h-132l14 80h-210l21 118l202 248h181l-44 -253h63zM210 193l20 119h-2l-96 -119h78z" />
    <glyph glyph-name="five.denominator" horiz-adv-x="450" 
d="M378 160q0 -84 -58.5 -127.5t-132.5 -43.5q-75 0 -126 32.5t-68 95.5l137 37q5 -21 20.5 -33t36.5 -12q44 0 44 38q0 42 -66 42q-55 0 -125 -14l64 271h300l-22 -122h-176l-9 -34q16 3 35 3q62 0 104 -32t42 -101z" />
    <glyph glyph-name="six.denominator" horiz-adv-x="450" 
d="M389 175q-1 -78 -57.5 -132t-152.5 -54q-81 0 -132.5 38t-51.5 116q0 79 73 159l131 144h190l-141 -143l1 -1q6 1 11 1q59 0 94 -38.5t35 -89.5zM240 165q0 19 -13 31t-30 12q-26 0 -41.5 -16.5t-15.5 -42.5q0 -19 13.5 -31t31.5 -12q25 0 40 16t15 43z" />
    <glyph glyph-name="seven.denominator" horiz-adv-x="450" 
d="M184 0h-174l229 324h-187l22 122h352l-18 -104z" />
    <glyph glyph-name="eight.denominator" horiz-adv-x="450" 
d="M392 343q0 -45 -27.5 -72.5t-64.5 -37.5v-1q27 -11 47.5 -36.5t20.5 -58.5q0 -71 -52.5 -109.5t-141.5 -38.5q-67 0 -119 30t-52 95q0 48 31 81t71 43v1q-56 26 -56 83q0 64 56 99.5t129 35.5q67 0 112.5 -29t45.5 -85zM213 276q19 0 30.5 11.5t11.5 29.5q0 16 -10 25.5
t-26 9.5q-19 0 -31 -11t-12 -30q0 -14 10.5 -24.5t26.5 -10.5zM181 98q22 0 35 12.5t13 31.5q0 16 -11 27t-28 11q-21 0 -34.5 -12.5t-13.5 -31.5q0 -17 11.5 -27.5t27.5 -10.5z" />
    <glyph glyph-name="nine.denominator" horiz-adv-x="450" 
d="M17 271q1 78 57.5 132t152.5 54q81 0 132.5 -38.5t51.5 -116.5q0 -77 -73 -157l-130 -145h-191l141 143l-1 1q-6 -1 -11 -1q-59 0 -94 38.5t-35 89.5zM166 281q0 -19 12.5 -30.5t30.5 -11.5q26 0 41.5 16.5t15.5 41.5q0 19 -13.5 30.5t-31.5 11.5q-25 0 -40 -16t-15 -42z
" />
    <glyph glyph-name="zero.numerator" horiz-adv-x="450" 
d="M278 719q92 0 134.5 -50.5t42.5 -122.5q0 -52 -13 -102t-39 -94.5t-72.5 -71.5t-107.5 -27q-93 0 -136.5 50.5t-43.5 122.5q0 53 13 103t39.5 94t73.5 71t109 27zM267 597q-33 0 -54 -51.5t-21 -106.5q0 -65 39 -65q34 0 54 49.5t20 108.5q0 65 -38 65z" />
    <glyph glyph-name="one.numerator" horiz-adv-x="450" 
d="M329 262h-147l52 293l-84 -45l-43 110l167 88h134z" />
    <glyph glyph-name="two.numerator" horiz-adv-x="450" 
d="M396 262h-367l20 114l202 141q37 26 37 47q0 29 -34 29q-42 0 -54 -53l-134 20q18 72 73 115.5t134 43.5q71 0 119 -33.5t48 -97.5q0 -38 -18.5 -69.5t-37.5 -47t-52 -36.5l-81 -50h166z" />
    <glyph glyph-name="three.numerator" horiz-adv-x="450" 
d="M413 404q0 -75 -58.5 -114t-133.5 -39q-73 0 -124 34t-65 100l131 32q5 -21 21 -33.5t39 -12.5q19 0 32 9t13 25q0 37 -63 37h-41l17 98h47q64 0 64 36q0 28 -35 28q-18 0 -33 -10t-20 -25l-126 33q23 58 74 87.5t115 29.5q69 0 118.5 -29.5t49.5 -95.5q0 -37 -24.5 -63
t-57.5 -35q28 -11 44 -35.5t16 -56.5z" />
    <glyph glyph-name="four.numerator" horiz-adv-x="450" 
d="M429 342h-61l-14 -80h-132l14 80h-210l21 118l202 248h181l-44 -253h63zM256 455l20 119h-2l-96 -119h78z" />
    <glyph glyph-name="five.numerator" horiz-adv-x="450" 
d="M425 422q0 -84 -58.5 -127.5t-132.5 -43.5q-75 0 -126 32.5t-68 95.5l137 37q5 -21 20.5 -33t36.5 -12q44 0 44 38q0 42 -66 42q-55 0 -125 -14l64 271h300l-22 -122h-176l-9 -34q17 3 35 3q62 0 104 -32t42 -101z" />
    <glyph glyph-name="six.numerator" horiz-adv-x="450" 
d="M435 437q-1 -78 -57.5 -132t-152.5 -54q-81 0 -132.5 38t-51.5 116q0 79 73 159l131 144h190l-141 -143l1 -1q6 1 11 1q59 0 94 -38.5t35 -89.5zM286 427q0 19 -13 31t-30 12q-26 0 -41.5 -16.5t-15.5 -42.5q0 -19 13.5 -31t31.5 -12q25 0 40 16t15 43z" />
    <glyph glyph-name="seven.numerator" horiz-adv-x="450" 
d="M230 262h-174l229 324h-187l22 122h352l-18 -104z" />
    <glyph glyph-name="eight.numerator" horiz-adv-x="450" 
d="M438 605q0 -45 -27.5 -72.5t-64.5 -37.5v-1q27 -11 47.5 -36.5t20.5 -58.5q0 -71 -52.5 -109.5t-141.5 -38.5q-67 0 -119 30t-52 95q0 48 31 81t71 43v1q-56 26 -56 83q0 64 56 99.5t129 35.5q67 0 112.5 -29t45.5 -85zM259 538q19 0 30.5 11.5t11.5 29.5q0 16 -10 25.5
t-26 9.5q-19 0 -31 -11t-12 -30q0 -14 10.5 -24.5t26.5 -10.5zM227 360q22 0 35 12.5t13 31.5q0 16 -11 27t-28 11q-21 0 -34.5 -12.5t-13.5 -31.5q0 -17 11.5 -27.5t27.5 -10.5z" />
    <glyph glyph-name="nine.numerator" horiz-adv-x="450" 
d="M63 533q1 78 57.5 132t152.5 54q81 0 132.5 -38.5t51.5 -116.5q0 -77 -73 -157l-130 -145h-191l141 143l-1 1q-6 -1 -11 -1q-59 0 -94 38.5t-35 89.5zM212 543q0 -19 12.5 -30.5t30.5 -11.5q26 0 41.5 16.5t15.5 41.5q0 19 -13.5 30.5t-31.5 11.5q-25 0 -40 -16t-15 -42z
" />
    <glyph glyph-name="cyrbreve" 
d="M231 584q-157 0 -165 133l105 20q1 -50 64 -50q73 0 86 52l101 -21q-37 -134 -191 -134z" />
    <glyph glyph-name="cyrbreve.cap" 
d="M244 764q-170 0 -178 147l113 22q1 -55 69 -55q79 0 92 57l109 -23q-40 -148 -205 -148z" />
    <glyph glyph-name="exclam.sc" horiz-adv-x="420" 
d="M315 256h-231l60 338h231zM175 -13q-52 0 -83 29t-31 71q0 56 36.5 94t94.5 38q50 0 81.5 -29t31.5 -71q0 -56 -36 -94t-94 -38z" />
    <glyph glyph-name="dollar.sc" horiz-adv-x="640" 
d="M312 594l11 59h99l-11 -57q113 -8 176 -67l-119 -143q-41 46 -105 46q-47 0 -47 -26q0 -10 9 -16t36 -13q83 -22 126.5 -62.5t43.5 -111.5q0 -91 -62.5 -142t-151.5 -62l-11 -64h-98l11 63q-117 9 -192 74l118 147q26 -26 60 -41.5t65 -15.5q42 0 42 25q0 21 -56 39
q-77 22 -114 59t-37 104q0 86 59.5 139t147.5 66z" />
    <glyph glyph-name="percent.sc" horiz-adv-x="850" 
d="M206 283q-69 0 -114 39t-45 104q0 78 52 130.5t134 52.5q69 0 115 -39.5t46 -104.5q0 -77 -53.5 -129.5t-134.5 -52.5zM273 450q0 20 -13 35t-36 15q-24 0 -40 -18t-16 -41q0 -19 13 -33t34 -14q24 0 41 16.5t17 39.5zM612 -14q-69 0 -114 39t-45 104q0 78 52 130.5
t134 52.5q69 0 115 -39.5t46 -104.5q0 -79 -53 -130.5t-135 -51.5zM679 153q0 20 -13 35t-36 15q-24 0 -40 -18t-16 -41q0 -19 13 -33t34 -14q24 0 41 16.5t17 39.5zM691 569l-461 -608l-81 57l461 609z" />
    <glyph glyph-name="ampersand.sc" horiz-adv-x="800" 
d="M192 338q-39 44 -39 103q0 70 63.5 121.5t166.5 51.5q89 0 148.5 -41.5t59.5 -115.5q0 -98 -142 -164l34 -42l61 61h241l-186 -180l114 -132h-258l-21 26q-72 -46 -182 -46q-102 0 -161 45.5t-59 124.5q0 66 42 114.5t118 73.5zM337 146l-61 79q-46 -13 -46 -56
q0 -20 15.5 -32.5t36.5 -12.5q34 0 55 22zM417 450q0 15 -9 25t-25 10q-19 0 -31 -12t-12 -31q0 -25 24 -45q53 18 53 53z" />
    <glyph glyph-name="parenleft.sc" horiz-adv-x="327" 
d="M231 -54l-150 -46q-75 126 -75 292q0 134 56 264.5t152 232.5l131 -70q-174 -212 -174 -427q0 -123 60 -246z" />
    <glyph glyph-name="parenright.sc" horiz-adv-x="327" 
d="M77 643l150 46q75 -126 75 -292q0 -134 -56 -264.5t-152 -232.5l-131 70q174 212 174 427q0 123 -60 246z" />
    <glyph glyph-name="bracketleft.sc" horiz-adv-x="327" 
d="M194 -76h-235l130 741h235l-22 -126h-74l-86 -489h74z" />
    <glyph glyph-name="backslash.sc" horiz-adv-x="402" 
d="M394 -3l-154 -48l-250 649l155 48z" />
    <glyph glyph-name="bracketright.sc" horiz-adv-x="327" 
d="M115 665h235l-130 -741h-235l22 126h74l86 489h-74z" />
    <glyph glyph-name="braceleft.sc" horiz-adv-x="327" 
d="M218 -76h-92q-59 0 -86 30t-27 80q0 12 4 38l17 96q3 15 3 26q0 36 -48 36l23 129q55 0 64 50l20 113q11 63 50.5 103t106.5 40h95l-22 -126h-28q-40 0 -48 -42l-18 -99q-7 -40 -34 -67t-71 -34l-1 -3q35 -9 53 -32t18 -53q0 -12 -3 -28l-13 -74q-3 -15 -3 -23
q0 -34 33 -34h29z" />
    <glyph glyph-name="slash.sc" horiz-adv-x="402" 
d="M448 597l-367 -649l-145 49l366 650z" />
    <glyph glyph-name="braceright.sc" horiz-adv-x="327" 
d="M90 665h92q59 0 86 -30t27 -80q0 -12 -4 -38l-17 -96q-3 -15 -3 -26q0 -36 48 -36l-23 -129q-55 0 -64 -50l-20 -113q-11 -63 -50.5 -103t-106.5 -40h-95l22 126h28q40 0 48 42l18 99q7 40 34 67t71 34l1 3q-35 9 -53 32t-18 53q0 12 3 28l13 74q3 15 3 23q0 34 -33 34
h-29z" />
    <glyph glyph-name="zero.sc" horiz-adv-x="640" 
d="M351 614q125 0 188.5 -70.5t63.5 -170.5q0 -54 -10 -107t-34.5 -105.5t-60.5 -92t-92 -64t-125 -24.5q-127 0 -191 69.5t-64 169.5q0 69 17.5 135t53.5 126t101.5 97t152.5 37zM335 429q-36 0 -60 -63.5t-24 -131.5q0 -66 40 -66q33 0 57 62t24 133q0 66 -37 66z" />
    <glyph glyph-name="one.sc" horiz-adv-x="640" 
d="M437 0h-231l66 367l-124 -66l-70 172l238 121h225z" />
    <glyph glyph-name="two.sc" horiz-adv-x="640" 
d="M541 0h-519l29 167l266 175q48 32 48 60q0 14 -10.5 22.5t-24.5 8.5q-47 0 -61 -60l-211 33q30 101 109.5 154.5t186.5 53.5q109 0 179 -47.5t70 -140.5q0 -70 -37.5 -115t-116.5 -88l-85 -46h207z" />
    <glyph glyph-name="three.sc" horiz-adv-x="640" 
d="M488 310v-3q40 -14 60 -46t20 -69q0 -56 -24.5 -99t-65.5 -66.5t-88.5 -35t-100.5 -11.5q-103 0 -175.5 43t-93.5 132l210 50q3 -26 19.5 -39.5t38.5 -13.5q20 0 33 11.5t13 29.5q0 45 -63 45h-51l23 132h62q30 0 47 13.5t17 31.5q0 16 -10.5 24.5t-26.5 8.5
q-20 0 -34.5 -12.5t-18.5 -29.5l-200 48q34 84 105.5 122t162.5 38q49 0 90.5 -8t79.5 -26.5t59.5 -54t21.5 -84.5q0 -52 -31.5 -86t-78.5 -45z" />
    <glyph glyph-name="four.sc" horiz-adv-x="640" 
d="M577 105h-80l-19 -105h-204l19 105h-298l29 163l269 326h290l-58 -333h79zM320 261l28 148h-4l-118 -148h94z" />
    <glyph glyph-name="five.sc" horiz-adv-x="640" 
d="M561 212q0 -61 -23.5 -107t-63 -72.5t-86 -39.5t-97.5 -13q-105 0 -176.5 42.5t-92.5 126.5l208 58q2 -20 17 -33t36 -13q20 0 33.5 11t13.5 32q0 45 -74 45q-78 0 -181 -23l85 368h428l-32 -170h-236l-9 -36q19 2 43 2q86 0 146.5 -42.5t60.5 -135.5z" />
    <glyph glyph-name="six.sc" horiz-adv-x="640" 
d="M396 412q82 0 130.5 -50.5t48.5 -126.5q0 -112 -81.5 -183.5t-210.5 -71.5q-120 0 -188.5 55.5t-68.5 157.5q0 60 24.5 110.5t76.5 106.5l170 184h279zM233 211q0 -28 17.5 -43t40.5 -15q34 0 52.5 20.5t18.5 51.5q0 26 -16.5 41t-39.5 15q-35 0 -54 -20.5t-19 -49.5z
" />
    <glyph glyph-name="seven.sc" horiz-adv-x="640" 
d="M599 447l-293 -447h-255l297 418h-238l32 176h485z" />
    <glyph glyph-name="eight.sc" horiz-adv-x="640" 
d="M230 179q0 -22 15 -34.5t35 -12.5q33 0 50 15.5t17 39.5q0 19 -14 33.5t-35 14.5q-30 0 -49 -16t-19 -40zM466 312v-2q36 -15 65 -50t29 -80q0 -98 -76 -149t-208 -51q-45 0 -87.5 8.5t-82 27t-63 53t-23.5 81.5q0 66 42 109.5t98 57.5v4q-36 15 -56.5 44.5t-20.5 66.5
q0 59 41 102t101 61.5t129 18.5q64 0 115.5 -15t86.5 -51t35 -88q0 -62 -37 -99.5t-88 -48.5zM280 418q0 -17 13.5 -30t34.5 -13q25 0 41 14.5t16 36.5q0 20 -12.5 32t-33.5 12q-27 0 -43 -14.5t-16 -37.5z" />
    <glyph glyph-name="nine.sc" horiz-adv-x="640" 
d="M224 185q-82 0 -130.5 50.5t-48.5 126.5q0 112 81 182t210 70q120 0 188.5 -55.5t68.5 -157.5q0 -60 -24.5 -110.5t-76.5 -106.5l-170 -184h-279zM387 387q0 28 -17.5 43.5t-40.5 15.5q-34 0 -52.5 -20.5t-18.5 -51.5q0 -26 17.5 -41t40.5 -15q33 0 52 19.5t19 49.5z" />
    <glyph glyph-name="question.sc" horiz-adv-x="550" 
d="M436 304q-55 -26 -58 -45l-2 -11h-205l4 28q10 67 70 97l22 11q42 20 42 42q0 24 -23 24q-29 0 -40 -41l-200 33q22 75 90.5 123.5t173.5 48.5q113 0 172 -44t59 -114q0 -52 -24 -88t-81 -64zM253 -13q-52 0 -83 28.5t-31 70.5q0 56 36.5 93.5t94.5 37.5q50 0 81.5 -28.5
t31.5 -70.5q0 -56 -36 -93.5t-94 -37.5z" />
    <glyph glyph-name="a.sc" horiz-adv-x="711" 
d="M649 0h-232l-10 85h-186l-46 -85h-253l366 594h257zM396 240l-18 165l-90 -165h108z" />
    <glyph glyph-name="b.sc" horiz-adv-x="630" 
d="M400 594q90 0 140 -36t50 -104q0 -117 -110 -142v-3q90 -24 90 -119q0 -91 -74 -140.5t-198 -49.5h-298l105 594h295zM255 241l-16 -86h55q63 0 63 51q0 35 -47 35h-55zM289 438l-14 -77h50q58 0 58 40q0 37 -48 37h-46z" />
    <glyph glyph-name="c.sc" horiz-adv-x="577" 
d="M609 534l-136 -156q-9 14 -31.5 24.5t-51.5 10.5q-59 0 -96.5 -39.5t-37.5 -96.5q0 -40 26.5 -67t76.5 -27q58 0 95 37l94 -164q-97 -76 -235 -76q-132 0 -212.5 73.5t-80.5 194.5q0 151 103.5 258.5t263.5 107.5q71 0 130.5 -20.5t91.5 -59.5z" />
    <glyph glyph-name="d.sc" horiz-adv-x="688" 
d="M0 0l105 594h257q60 0 112 -14.5t95 -44t67.5 -80t24.5 -116.5q0 -155 -101 -247t-265 -92h-295zM297 417l-42 -238h43q61 0 96 40.5t35 99.5q0 98 -94 98h-38z" />
    <glyph glyph-name="e.sc" horiz-adv-x="541" 
d="M447 0h-447l105 594h426l-30 -166h-209l-9 -52h197l-28 -155h-197l-9 -54h231z" />
    <glyph glyph-name="f.sc" horiz-adv-x="511" 
d="M498 428h-199l-12 -66h187l-28 -162h-186l-36 -200h-224l105 594h422z" />
    <glyph glyph-name="g.sc" horiz-adv-x="670" 
d="M317 217l25 136h288l-55 -311q-110 -62 -240 -62q-140 0 -227.5 71.5t-87.5 197.5q0 156 106 260.5t263 104.5q168 0 238 -76l-150 -156q-26 37 -89 37q-51 0 -91.5 -39.5t-40.5 -106.5q0 -45 26 -71.5t72 -26.5q26 0 41 6l7 36h-85z" />
    <glyph glyph-name="h.sc" horiz-adv-x="700" 
d="M578 0h-229l39 222h-121l-39 -222h-228l105 594h227l-36 -202h120l37 202h229z" />
    <glyph glyph-name="i.sc" horiz-adv-x="354" 
d="M231 0h-231l105 594h231z" />
    <glyph glyph-name="j.sc" horiz-adv-x="531" 
d="M196 -20q-103 0 -161.5 45t-74.5 117l198 69q3 -34 32 -34q26 0 33 42l65 375h231l-67 -377q-41 -237 -256 -237z" />
    <glyph glyph-name="k.sc" horiz-adv-x="666" 
d="M359 0l-93 234h-1l-41 -234h-224l105 594h223l-38 -216h2l153 216h273l-251 -290l155 -304h-263z" />
    <glyph glyph-name="l.sc" horiz-adv-x="498" 
d="M427 0h-427l105 594h231l-73 -417h196z" />
    <glyph glyph-name="m.sc" horiz-adv-x="874" 
d="M752 0h-223l53 282h-4l-130 -282h-153l-35 282h-4l-43 -282h-213l105 594h279l39 -312h4l139 312h290z" />
    <glyph glyph-name="n.sc" horiz-adv-x="704" 
d="M581 0h-222l-97 256h-3l-40 -256h-219l105 594h224l95 -270h4l41 270h217z" />
    <glyph glyph-name="o.sc" horiz-adv-x="716" 
d="M458 318q0 41 -24 68t-68 27q-52 0 -83.5 -39t-31.5 -96q0 -41 24.5 -68t66.5 -27q55 0 85.5 38t30.5 97zM321 -20q-143 0 -222 75.5t-79 199.5q0 153 102.5 256t265.5 103q144 0 222.5 -74.5t78.5 -198.5q0 -154 -102 -257.5t-266 -103.5z" />
    <glyph glyph-name="p.sc" horiz-adv-x="611" 
d="M260 178l-32 -178h-228l104 594h249q120 0 182 -50.5t62 -139.5q0 -115 -75.5 -170.5t-212.5 -55.5h-49zM314 334q32 0 49 15.5t17 41.5q0 47 -55 47h-21l-18 -104h28z" />
    <glyph glyph-name="q.sc" horiz-adv-x="716" 
d="M20 255q0 153 102.5 256t265.5 103q144 0 221.5 -74.5t77.5 -198.5q0 -50 -23.5 -103.5t-53.5 -74.5l-1 -3l99 7l-29 -167h-362q-139 0 -218 68t-79 187zM458 318q0 41 -24 68t-68 27q-52 0 -83.5 -39t-31.5 -96q0 -41 24.5 -68t66.5 -27q55 0 85.5 38t30.5 97z" />
    <glyph glyph-name="r.sc" horiz-adv-x="649" 
d="M607 0h-256l-70 195h-27l-33 -195h-221l105 594h279q113 0 173 -44.5t60 -129.5q0 -68 -33 -115t-90 -68zM299 438l-16 -95h42q28 0 46 15t18 36q0 44 -43 44h-47z" />
    <glyph glyph-name="s.sc" horiz-adv-x="550" 
d="M-35 61l123 154q27 -28 63 -44t68 -16q44 0 44 27q0 23 -59 40q-80 24 -119 63t-39 108q0 71 42 122.5t102.5 75t129.5 23.5q67 0 129.5 -20t100.5 -55l-124 -149q-18 21 -48.5 34.5t-61.5 13.5q-49 0 -49 -27q0 -11 9.5 -17.5t37.5 -13.5q87 -23 132.5 -65t45.5 -117
q0 -57 -25.5 -101t-67.5 -68.5t-88.5 -36.5t-95.5 -12q-157 0 -250 81z" />
    <glyph glyph-name="t.sc" horiz-adv-x="524" 
d="M521 418h-132l-74 -418h-229l74 418h-136l31 176h496z" />
    <glyph glyph-name="u.sc" horiz-adv-x="674" 
d="M597 214q-19 -110 -96 -172t-210 -62q-117 0 -191 50.5t-74 138.5q0 30 5 57l63 368h226l-61 -349q-2 -16 -2 -26q0 -46 50 -46q54 0 68 75l63 346h224z" />
    <glyph glyph-name="v.sc" horiz-adv-x="634" 
d="M709 594l-343 -594h-249l-86 594h245l19 -333h4l156 333h254z" />
    <glyph glyph-name="w.sc" horiz-adv-x="947" 
d="M1004 594l-289 -594h-227l-24 310h-2l-144 -310h-225l-65 594h234l11 -315h4l127 315h217l18 -315h3l123 315h239z" />
    <glyph glyph-name="x.sc" horiz-adv-x="679" 
d="M630 0h-260l-58 143l-114 -143h-282l281 312l-146 282h259l55 -123l95 123h269l-252 -287z" />
    <glyph glyph-name="y.sc" horiz-adv-x="602" 
d="M389 208l-37 -208h-231l37 208l-137 386h244l42 -198l119 198h257z" />
    <glyph glyph-name="z.sc" horiz-adv-x="599" 
d="M497 0h-521l30 165l261 253h-205l31 176h498l-27 -153l-271 -264h237z" />
    <glyph glyph-name="agrave.sc" horiz-adv-x="711" 
d="M649 0h-232l-10 85h-186l-46 -85h-253l366 594h257zM396 240l-18 165l-90 -165h108zM197 798h208l126 -144h-165z" />
    <glyph glyph-name="aacute.sc" horiz-adv-x="711" 
d="M649 0h-232l-10 85h-186l-46 -85h-253l366 594h257zM396 240l-18 165l-90 -165h108zM641 798l-178 -144h-165l135 144h208z" />
    <glyph glyph-name="acircumflex.sc" horiz-adv-x="711" 
d="M649 0h-232l-10 85h-186l-46 -85h-253l366 594h257zM396 240l-18 165l-90 -165h108zM639 654h-152l-55 69l-79 -69h-150l161 144h167z" />
    <glyph glyph-name="atilde.sc" horiz-adv-x="711" 
d="M649 0h-232l-10 85h-186l-46 -85h-253l366 594h257zM396 240l-18 165l-90 -165h108zM631 791q-15 -61 -52 -100t-87 -39q-39 0 -77 23q-38 22 -59 22q-31 0 -44 -36h-79q14 59 50.5 97t86.5 38q32 0 78 -24q41 -21 62 -21q27 0 43 40h78z" />
    <glyph glyph-name="adieresis.sc" horiz-adv-x="711" 
d="M649 0h-232l-10 85h-186l-46 -85h-253l366 594h257zM396 240l-18 165l-90 -165h108zM305 653q-41 0 -67 24t-26 58q0 45 30 76.5t77 31.5q40 0 66 -24.5t26 -57.5q0 -45 -30 -76.5t-76 -31.5zM556 653q-41 0 -67 24t-26 58q0 45 30 76.5t77 31.5q40 0 66 -24.5t26 -57.5
q0 -45 -30 -76.5t-76 -31.5z" />
    <glyph glyph-name="amacron.sc" horiz-adv-x="711" 
d="M649 0h-232l-10 85h-186l-46 -85h-253l366 594h257zM396 240l-18 165l-90 -165h108zM605 681h-358l16 95h358z" />
    <glyph glyph-name="abreve.sc" horiz-adv-x="711" 
d="M649 0h-232l-10 85h-186l-46 -85h-253l366 594h257zM396 240l-18 165l-90 -165h108zM611 798q-28 -144 -193 -144t-165 144h107q0 -41 62 -41q76 0 82 41h107z" />
    <glyph glyph-name="aring.sc" horiz-adv-x="711" 
d="M649 0h-232l-10 85h-186l-46 -85h-253l366 594h257zM396 240l-18 165l-90 -165h108zM423 635q-44 0 -71.5 26t-27.5 66q0 55 36 93.5t90 38.5q44 0 72 -25.5t28 -66.5q0 -55 -36 -93.5t-91 -38.5zM499 762q0 22 -14.5 37t-38.5 15q-30 0 -50.5 -24t-20.5 -57
q0 -23 14 -37.5t38 -14.5q31 0 51.5 23.5t20.5 57.5z" />
    <glyph glyph-name="aogonek.sc" horiz-adv-x="711" 
d="M526 -197q-64 -43 -139 -43q-110 0 -110 87q0 31 24.5 62t51 50t64.5 41l-10 85h-186l-46 -85h-253l366 594h257l104 -594h-100q-71 -45 -101.5 -71.5t-30.5 -45.5q0 -7 6.5 -12t14.5 -5q27 0 60 18zM396 240l-18 165l-90 -165h108z" />
    <glyph glyph-name="ae.sc" horiz-adv-x="943" 
d="M849 0h-447l17 95h-152l-61 -95h-247l405 594h569l-30 -166h-209l-9 -52h197l-28 -155h-197l-9 -54h231zM468 428l-115 -178h93l32 178h-10z" />
    <glyph glyph-name="cacute.sc" horiz-adv-x="577" 
d="M609 534l-136 -156q-9 14 -31.5 24.5t-51.5 10.5q-59 0 -96.5 -39.5t-37.5 -96.5q0 -40 26.5 -67t76.5 -27q58 0 95 37l94 -164q-97 -76 -235 -76q-132 0 -212.5 73.5t-80.5 194.5q0 151 103.5 258.5t263.5 107.5q71 0 130.5 -20.5t91.5 -59.5zM617 798l-178 -144h-165
l135 144h208z" />
    <glyph glyph-name="ccircumflex.sc" horiz-adv-x="577" 
d="M609 534l-136 -156q-9 14 -31.5 24.5t-51.5 10.5q-59 0 -96.5 -39.5t-37.5 -96.5q0 -40 26.5 -67t76.5 -27q58 0 95 37l94 -164q-97 -76 -235 -76q-132 0 -212.5 73.5t-80.5 194.5q0 151 103.5 258.5t263.5 107.5q71 0 130.5 -20.5t91.5 -59.5zM620 654h-152l-55 69
l-79 -69h-150l161 144h167z" />
    <glyph glyph-name="ccaron.sc" horiz-adv-x="577" 
d="M609 534l-136 -156q-9 14 -31.5 24.5t-51.5 10.5q-59 0 -96.5 -39.5t-37.5 -96.5q0 -40 26.5 -67t76.5 -27q58 0 95 37l94 -164q-97 -76 -235 -76q-132 0 -212.5 73.5t-80.5 194.5q0 151 103.5 258.5t263.5 107.5q71 0 130.5 -20.5t91.5 -59.5zM638 798l-158 -144h-167
l-111 144h150l55 -70l79 70h152z" />
    <glyph glyph-name="cdotaccent.sc" horiz-adv-x="577" 
d="M609 534l-136 -156q-9 14 -31.5 24.5t-51.5 10.5q-59 0 -96.5 -39.5t-37.5 -96.5q0 -40 26.5 -67t76.5 -27q58 0 95 37l94 -164q-97 -76 -235 -76q-132 0 -212.5 73.5t-80.5 194.5q0 151 103.5 258.5t263.5 107.5q71 0 130.5 -20.5t91.5 -59.5zM403 646q-44 0 -72 26
t-28 62q0 49 32 82.5t82 33.5q43 0 71 -26t28 -62q0 -49 -32 -82.5t-81 -33.5z" />
    <glyph glyph-name="ccedilla.sc" horiz-adv-x="577" 
d="M403 -131q0 -56 -48 -82.5t-116 -26.5q-75 0 -136 23l41 76q35 -16 85 -16q39 0 39 22q0 19 -34 19q-24 0 -43 -6l-36 34l78 76q-98 20 -155.5 89.5t-57.5 170.5q0 151 103.5 258.5t263.5 107.5q71 0 130.5 -20.5t91.5 -59.5l-136 -156q-9 14 -31.5 24.5t-51.5 10.5
q-59 0 -96.5 -39.5t-37.5 -96.5q0 -40 26.5 -67t76.5 -27q58 0 95 37l94 -164q-88 -69 -211 -75l-38 -35q6 1 17 1q31 0 59 -18t28 -60z" />
    <glyph glyph-name="dcaron.sc" horiz-adv-x="688" 
d="M0 0l105 594h257q60 0 112 -14.5t95 -44t67.5 -80t24.5 -116.5q0 -155 -101 -247t-265 -92h-295zM297 417l-42 -238h43q61 0 96 40.5t35 99.5q0 98 -94 98h-38zM608 798l-158 -144h-167l-111 144h150l55 -70l79 70h152z" />
    <glyph glyph-name="dcroat.sc" horiz-adv-x="688" 
d="M0 0l41 231h-46l24 138h46l40 225h257q60 0 112 -14.5t95 -44t67.5 -80t24.5 -116.5q0 -155 -101 -247t-265 -92h-295zM297 417l-9 -48h71l-24 -138h-71l-9 -52h40q61 0 97.5 40.5t36.5 99.5q0 98 -95 98h-37z" />
    <glyph glyph-name="eth.sc" horiz-adv-x="688" 
d="M0 0l41 231h-46l24 138h46l40 225h257q60 0 112 -14.5t95 -44t67.5 -80t24.5 -116.5q0 -155 -101 -247t-265 -92h-295zM297 417l-9 -48h71l-24 -138h-71l-9 -52h40q61 0 97.5 40.5t36.5 99.5q0 98 -95 98h-37z" />
    <glyph glyph-name="egrave.sc" horiz-adv-x="541" 
d="M447 0h-447l105 594h426l-30 -166h-209l-9 -52h197l-28 -155h-197l-9 -54h231zM92 798h208l126 -144h-165z" />
    <glyph glyph-name="eacute.sc" horiz-adv-x="541" 
d="M447 0h-447l105 594h426l-30 -166h-209l-9 -52h197l-28 -155h-197l-9 -54h231zM545 798l-178 -144h-165l135 144h208z" />
    <glyph glyph-name="ecircumflex.sc" horiz-adv-x="541" 
d="M447 0h-447l105 594h426l-30 -166h-209l-9 -52h197l-28 -155h-197l-9 -54h231zM539 654h-152l-55 69l-79 -69h-150l161 144h167z" />
    <glyph glyph-name="ecaron.sc" horiz-adv-x="541" 
d="M447 0h-447l105 594h426l-30 -166h-209l-9 -52h197l-28 -155h-197l-9 -54h231zM564 798l-158 -144h-167l-111 144h150l55 -70l79 70h152z" />
    <glyph glyph-name="edieresis.sc" horiz-adv-x="541" 
d="M447 0h-447l105 594h426l-30 -166h-209l-9 -52h197l-28 -155h-197l-9 -54h231zM202 653q-41 0 -67 24t-26 58q0 45 30 76.5t77 31.5q40 0 66 -24.5t26 -57.5q0 -45 -30 -76.5t-76 -31.5zM453 653q-41 0 -67 24t-26 58q0 45 30 76.5t77 31.5q40 0 66 -24.5t26 -57.5
q0 -45 -30 -76.5t-76 -31.5z" />
    <glyph glyph-name="emacron.sc" horiz-adv-x="541" 
d="M447 0h-447l105 594h426l-30 -166h-209l-9 -52h197l-28 -155h-197l-9 -54h231zM506 681h-358l16 95h358z" />
    <glyph glyph-name="ebreve.sc" horiz-adv-x="541" 
d="M447 0h-447l105 594h426l-30 -166h-209l-9 -52h197l-28 -155h-197l-9 -54h231zM514 798q-28 -144 -193 -144t-165 144h107q0 -41 62 -41q76 0 82 41h107z" />
    <glyph glyph-name="edotaccent.sc" horiz-adv-x="541" 
d="M447 0h-447l105 594h426l-30 -166h-209l-9 -52h197l-28 -155h-197l-9 -54h231zM331 646q-44 0 -72 26t-28 62q0 49 32 82.5t82 33.5q43 0 71 -26t28 -62q0 -49 -32 -82.5t-81 -33.5z" />
    <glyph glyph-name="eogonek.sc" horiz-adv-x="541" 
d="M402 -197q-64 -43 -139 -43q-110 0 -110 87q0 31 24.5 62t51 50t64.5 41h-293l105 594h426l-30 -166h-209l-9 -52h197l-28 -155h-197l-9 -54h231l-30 -167h-22q-71 -45 -101.5 -71.5t-30.5 -45.5q0 -7 6.5 -12t14.5 -5q27 0 60 18z" />
    <glyph glyph-name="gcircumflex.sc" horiz-adv-x="670" 
d="M317 217l25 136h288l-55 -311q-110 -62 -240 -62q-140 0 -227.5 71.5t-87.5 197.5q0 156 106 260.5t263 104.5q168 0 238 -76l-150 -156q-26 37 -89 37q-51 0 -91.5 -39.5t-40.5 -106.5q0 -45 26 -71.5t72 -26.5q26 0 41 6l7 36h-85zM631 654h-152l-55 69l-79 -69h-150
l161 144h167z" />
    <glyph glyph-name="gbreve.sc" horiz-adv-x="670" 
d="M317 217l25 136h288l-55 -311q-110 -62 -240 -62q-140 0 -227.5 71.5t-87.5 197.5q0 156 106 260.5t263 104.5q168 0 238 -76l-150 -156q-26 37 -89 37q-51 0 -91.5 -39.5t-40.5 -106.5q0 -45 26 -71.5t72 -26.5q26 0 41 6l7 36h-85zM596 798q-28 -144 -193 -144
t-165 144h107q0 -41 62 -41q76 0 82 41h107z" />
    <glyph glyph-name="gdotaccent.sc" horiz-adv-x="670" 
d="M317 217l25 136h288l-55 -311q-110 -62 -240 -62q-140 0 -227.5 71.5t-87.5 197.5q0 156 106 260.5t263 104.5q168 0 238 -76l-150 -156q-26 37 -89 37q-51 0 -91.5 -39.5t-40.5 -106.5q0 -45 26 -71.5t72 -26.5q26 0 41 6l7 36h-85zM408 646q-44 0 -72 26t-28 62
q0 49 32 82.5t82 33.5q43 0 71 -26t28 -62q0 -49 -32 -82.5t-81 -33.5z" />
    <glyph glyph-name="gcommaaccent.sc" horiz-adv-x="670" 
d="M317 217l25 136h288l-55 -311q-110 -62 -240 -62q-140 0 -227.5 71.5t-87.5 197.5q0 156 106 260.5t263 104.5q168 0 238 -76l-150 -156q-26 37 -89 37q-51 0 -91.5 -39.5t-40.5 -106.5q0 -45 26 -71.5t72 -26.5q26 0 41 6l7 36h-85zM403 -45l-137 -195h-161l113 195h185
z" />
    <glyph glyph-name="kgreenlandic.sc" horiz-adv-x="666" 
d="M359 0l-93 234h-1l-41 -234h-224l105 594h223l-38 -216h2l153 216h273l-251 -290l155 -304h-263z" />
    <glyph glyph-name="hcircumflex.sc" horiz-adv-x="700" 
d="M578 0h-229l39 222h-121l-39 -222h-228l105 594h227l-36 -202h120l37 202h229zM632 654h-152l-55 69l-79 -69h-150l161 144h167z" />
    <glyph glyph-name="hbar.sc" horiz-adv-x="700" 
d="M578 0h-229l35 202h-121l-35 -202h-228l105 594h227l-12 -69h120l13 69h229zM293 373h120l11 62h-120z" />
    <glyph glyph-name="igrave.sc" horiz-adv-x="354" 
d="M231 0h-231l105 594h231zM4 798h208l126 -144h-165z" />
    <glyph glyph-name="iacute.sc" horiz-adv-x="354" 
d="M231 0h-231l105 594h231zM461 798l-178 -144h-165l135 144h208z" />
    <glyph glyph-name="ibreve.sc" horiz-adv-x="354" 
d="M231 0h-231l105 594h231zM435 798q-28 -144 -193 -144t-165 144h107q0 -41 62 -41q76 0 82 41h107z" />
    <glyph glyph-name="icircumflex.sc" horiz-adv-x="354" 
d="M231 0h-231l105 594h231zM454 654h-152l-55 69l-79 -69h-150l161 144h167z" />
    <glyph glyph-name="itilde.sc" horiz-adv-x="354" 
d="M231 0h-231l105 594h231zM439 791q-15 -61 -52 -100t-87 -39q-39 0 -77 23q-38 22 -59 22q-31 0 -44 -36h-79q14 59 50.5 97t86.5 38q32 0 78 -24q41 -21 62 -21q27 0 43 40h78z" />
    <glyph glyph-name="idieresis.sc" horiz-adv-x="354" 
d="M231 0h-231l105 594h231zM110 653q-41 0 -67 24t-26 58q0 45 30 76.5t77 31.5q40 0 66 -24.5t26 -57.5q0 -45 -30 -76.5t-76 -31.5zM361 653q-41 0 -67 24t-26 58q0 45 30 76.5t77 31.5q40 0 66 -24.5t26 -57.5q0 -45 -30 -76.5t-76 -31.5z" />
    <glyph glyph-name="imacron.sc" horiz-adv-x="354" 
d="M231 0h-231l105 594h231zM412 681h-358l16 95h358z" />
    <glyph glyph-name="idotaccent.sc" horiz-adv-x="354" 
d="M231 0h-231l105 594h231zM224 646q-44 0 -72 26t-28 62q0 49 32 82.5t82 33.5q43 0 71 -26t28 -62q0 -49 -32 -82.5t-81 -33.5z" />
    <glyph glyph-name="iogonek.sc" horiz-adv-x="354" 
d="M208 -197q-64 -43 -139 -43q-110 0 -110 87q0 31 24.5 62t51 50t64.5 41h-99l105 594h231l-105 -594q-71 -45 -101.5 -71.5t-30.5 -45.5q0 -7 6.5 -12t14.5 -5q27 0 60 18z" />
    <glyph glyph-name="jcircumflex.sc" horiz-adv-x="531" 
d="M196 -20q-103 0 -161.5 45t-74.5 117l198 69q3 -34 32 -34q26 0 33 42l65 375h231l-67 -377q-41 -237 -256 -237zM634 654h-152l-55 69l-79 -69h-150l161 144h167z" />
    <glyph glyph-name="kcommaaccent.sc" horiz-adv-x="666" 
d="M359 0l-93 234h-1l-41 -234h-224l105 594h223l-38 -216h2l153 216h273l-251 -290l155 -304h-263zM380 -45l-137 -195h-161l113 195h185z" />
    <glyph glyph-name="lacute.sc" horiz-adv-x="498" 
d="M427 0h-427l105 594h231l-73 -417h196zM487 798l-178 -144h-165l135 144h208z" />
    <glyph glyph-name="lcaron.sc" horiz-adv-x="548" 
d="M427 0h-427l105 594h231l-73 -417h196zM628 594l-131 -182h-161l107 182h185z" />
    <glyph glyph-name="lcommaaccent.sc" horiz-adv-x="498" 
d="M427 0h-427l105 594h231l-73 -417h196zM304 -45l-137 -195h-161l113 195h185z" />
    <glyph glyph-name="lslash.sc" horiz-adv-x="498" 
d="M427 0h-427l24 137l-63 -43l33 190l63 43l48 267h231l-16 -89l109 74l-34 -189l-108 -74l-24 -139h196z" />
    <glyph glyph-name="ldot.sc" horiz-adv-x="528" 
d="M427 0h-427l105 594h231l-73 -417h196zM436 286q-44 0 -72 26t-28 62q0 49 32 82.5t82 33.5q43 0 71 -26t28 -62q0 -49 -32 -82.5t-81 -33.5z" />
    <glyph glyph-name="nacute.sc" horiz-adv-x="704" 
d="M581 0h-222l-97 256h-3l-40 -256h-219l105 594h224l95 -270h4l41 270h217zM640 798l-178 -144h-165l135 144h208z" />
    <glyph glyph-name="ncaron.sc" horiz-adv-x="704" 
d="M581 0h-222l-97 256h-3l-40 -256h-219l105 594h224l95 -270h4l41 270h217zM643 798l-158 -144h-167l-111 144h150l55 -70l79 70h152z" />
    <glyph glyph-name="ntilde.sc" horiz-adv-x="704" 
d="M581 0h-222l-97 256h-3l-40 -256h-219l105 594h224l95 -270h4l41 270h217zM617 791q-15 -61 -52 -100t-87 -39q-39 0 -77 23q-38 22 -59 22q-31 0 -44 -36h-79q14 59 50.5 97t86.5 38q32 0 78 -24q41 -21 62 -21q27 0 43 40h78z" />
    <glyph glyph-name="ncommaaccent.sc" horiz-adv-x="704" 
d="M581 0h-222l-97 256h-3l-40 -256h-219l105 594h224l95 -270h4l41 270h217zM380 -45l-137 -195h-161l113 195h185z" />
    <glyph glyph-name="ograve.sc" horiz-adv-x="716" 
d="M458 318q0 41 -24 68t-68 27q-52 0 -83.5 -39t-31.5 -96q0 -41 24.5 -68t66.5 -27q55 0 85.5 38t30.5 97zM321 -20q-143 0 -222 75.5t-79 199.5q0 153 102.5 256t265.5 103q144 0 222.5 -74.5t78.5 -198.5q0 -154 -102 -257.5t-266 -103.5zM170 798h208l126 -144h-165z
" />
    <glyph glyph-name="oacute.sc" horiz-adv-x="716" 
d="M458 318q0 41 -24 68t-68 27q-52 0 -83.5 -39t-31.5 -96q0 -41 24.5 -68t66.5 -27q55 0 85.5 38t30.5 97zM321 -20q-143 0 -222 75.5t-79 199.5q0 153 102.5 256t265.5 103q144 0 222.5 -74.5t78.5 -198.5q0 -154 -102 -257.5t-266 -103.5zM608 798l-178 -144h-165
l135 144h208z" />
    <glyph glyph-name="ocircumflex.sc" horiz-adv-x="716" 
d="M458 318q0 41 -24 68t-68 27q-52 0 -83.5 -39t-31.5 -96q0 -41 24.5 -68t66.5 -27q55 0 85.5 38t30.5 97zM321 -20q-143 0 -222 75.5t-79 199.5q0 153 102.5 256t265.5 103q144 0 222.5 -74.5t78.5 -198.5q0 -154 -102 -257.5t-266 -103.5zM633 654h-152l-55 69l-79 -69
h-150l161 144h167z" />
    <glyph glyph-name="otilde.sc" horiz-adv-x="716" 
d="M458 318q0 41 -24 68t-68 27q-52 0 -83.5 -39t-31.5 -96q0 -41 24.5 -68t66.5 -27q55 0 85.5 38t30.5 97zM321 -20q-143 0 -222 75.5t-79 199.5q0 153 102.5 256t265.5 103q144 0 222.5 -74.5t78.5 -198.5q0 -154 -102 -257.5t-266 -103.5zM617 791q-15 -61 -52 -100
t-87 -39q-39 0 -77 23q-38 22 -59 22q-31 0 -44 -36h-79q14 59 50.5 97t86.5 38q32 0 78 -24q41 -21 62 -21q27 0 43 40h78z" />
    <glyph glyph-name="odieresis.sc" horiz-adv-x="716" 
d="M458 318q0 41 -24 68t-68 27q-52 0 -83.5 -39t-31.5 -96q0 -41 24.5 -68t66.5 -27q55 0 85.5 38t30.5 97zM321 -20q-143 0 -222 75.5t-79 199.5q0 153 102.5 256t265.5 103q144 0 222.5 -74.5t78.5 -198.5q0 -154 -102 -257.5t-266 -103.5zM295 653q-41 0 -67 24t-26 58
q0 45 30 76.5t77 31.5q40 0 66 -24.5t26 -57.5q0 -45 -30 -76.5t-76 -31.5zM546 653q-41 0 -67 24t-26 58q0 45 30 76.5t77 31.5q40 0 66 -24.5t26 -57.5q0 -45 -30 -76.5t-76 -31.5z" />
    <glyph glyph-name="omacron.sc" horiz-adv-x="716" 
d="M458 318q0 41 -24 68t-68 27q-52 0 -83.5 -39t-31.5 -96q0 -41 24.5 -68t66.5 -27q55 0 85.5 38t30.5 97zM321 -20q-143 0 -222 75.5t-79 199.5q0 153 102.5 256t265.5 103q144 0 222.5 -74.5t78.5 -198.5q0 -154 -102 -257.5t-266 -103.5zM596 681h-358l16 95h358z" />
    <glyph glyph-name="obreve.sc" horiz-adv-x="716" 
d="M458 318q0 41 -24 68t-68 27q-52 0 -83.5 -39t-31.5 -96q0 -41 24.5 -68t66.5 -27q55 0 85.5 38t30.5 97zM321 -20q-143 0 -222 75.5t-79 199.5q0 153 102.5 256t265.5 103q144 0 222.5 -74.5t78.5 -198.5q0 -154 -102 -257.5t-266 -103.5zM607 798q-28 -144 -193 -144
t-165 144h107q0 -41 62 -41q76 0 82 41h107z" />
    <glyph glyph-name="ohungarumlaut.sc" horiz-adv-x="716" 
d="M458 318q0 41 -24 68t-68 27q-52 0 -83.5 -39t-31.5 -96q0 -41 24.5 -68t66.5 -27q55 0 85.5 38t30.5 97zM321 -20q-143 0 -222 75.5t-79 199.5q0 153 102.5 256t265.5 103q144 0 222.5 -74.5t78.5 -198.5q0 -154 -102 -257.5t-266 -103.5zM781 798l-178 -144h-164
l135 144h207zM541 798l-178 -144h-165l135 144h208z" />
    <glyph glyph-name="oslash.sc" horiz-adv-x="716" 
d="M321 -20q-103 0 -178 43l-79 -75l-78 78l77 73q-43 66 -43 156q0 153 102.5 256t265.5 103q102 0 175 -41l79 74l78 -78l-75 -71q44 -65 44 -157q0 -154 -102 -257.5t-266 -103.5zM479 321q0 8 -2 24l-184 -175q17 -8 44 -8q66 0 104 45.5t38 113.5zM230 274q0 -16 1 -23
l184 174q-21 8 -45 8q-62 0 -101 -46t-39 -113z" />
    <glyph glyph-name="oe.sc" horiz-adv-x="916" 
d="M822 0h-460q-147 0 -230 68.5t-83 188.5q0 149 104.5 243t271.5 94h481l-30 -166h-209l-9 -52h197l-28 -155h-197l-9 -54h231zM288 272q0 -41 24.5 -62t68.5 -21h27l39 217h-35q-53 0 -88.5 -40t-35.5 -94z" />
    <glyph glyph-name="racute.sc" horiz-adv-x="649" 
d="M607 0h-256l-70 195h-27l-33 -195h-221l105 594h279q113 0 173 -44.5t60 -129.5q0 -68 -33 -115t-90 -68zM299 438l-16 -95h42q28 0 46 15t18 36q0 44 -43 44h-47zM583 798l-178 -144h-165l135 144h208z" />
    <glyph glyph-name="rcaron.sc" horiz-adv-x="649" 
d="M607 0h-256l-70 195h-27l-33 -195h-221l105 594h279q113 0 173 -44.5t60 -129.5q0 -68 -33 -115t-90 -68zM299 438l-16 -95h42q28 0 46 15t18 36q0 44 -43 44h-47zM599 798l-158 -144h-167l-111 144h150l55 -70l79 70h152z" />
    <glyph glyph-name="rcommaaccent.sc" horiz-adv-x="649" 
d="M607 0h-256l-70 195h-27l-33 -195h-221l105 594h279q113 0 173 -44.5t60 -129.5q0 -68 -33 -115t-90 -68zM299 438l-16 -95h42q28 0 46 15t18 36q0 44 -43 44h-47zM379 -45l-137 -195h-161l113 195h185z" />
    <glyph glyph-name="sacute.sc" horiz-adv-x="550" 
d="M-35 61l123 154q27 -28 63 -44t68 -16q44 0 44 27q0 23 -59 40q-80 24 -119 63t-39 108q0 71 42 122.5t102.5 75t129.5 23.5q67 0 129.5 -20t100.5 -55l-124 -149q-18 21 -48.5 34.5t-61.5 13.5q-49 0 -49 -27q0 -11 9.5 -17.5t37.5 -13.5q87 -23 132.5 -65t45.5 -117
q0 -57 -25.5 -101t-67.5 -68.5t-88.5 -36.5t-95.5 -12q-157 0 -250 81zM548 798l-178 -144h-165l135 144h208z" />
    <glyph glyph-name="scircumflex.sc" horiz-adv-x="550" 
d="M-35 61l123 154q27 -28 63 -44t68 -16q44 0 44 27q0 23 -59 40q-80 24 -119 63t-39 108q0 71 42 122.5t102.5 75t129.5 23.5q67 0 129.5 -20t100.5 -55l-124 -149q-18 21 -48.5 34.5t-61.5 13.5q-49 0 -49 -27q0 -11 9.5 -17.5t37.5 -13.5q87 -23 132.5 -65t45.5 -117
q0 -57 -25.5 -101t-67.5 -68.5t-88.5 -36.5t-95.5 -12q-157 0 -250 81zM560 654h-152l-55 69l-79 -69h-150l161 144h167z" />
    <glyph glyph-name="scaron.sc" horiz-adv-x="550" 
d="M-35 61l123 154q27 -28 63 -44t68 -16q44 0 44 27q0 23 -59 40q-80 24 -119 63t-39 108q0 71 42 122.5t102.5 75t129.5 23.5q67 0 129.5 -20t100.5 -55l-124 -149q-18 21 -48.5 34.5t-61.5 13.5q-49 0 -49 -27q0 -11 9.5 -17.5t37.5 -13.5q87 -23 132.5 -65t45.5 -117
q0 -57 -25.5 -101t-67.5 -68.5t-88.5 -36.5t-95.5 -12q-157 0 -250 81zM581 798l-158 -144h-167l-111 144h150l55 -70l79 70h152z" />
    <glyph glyph-name="scedilla.sc" horiz-adv-x="550" 
d="M329 -131q0 -56 -48 -82.5t-116 -26.5q-75 0 -136 23l41 76q35 -16 85 -16q39 0 39 22q0 19 -34 19q-24 0 -43 -6l-36 34l73 72q-118 16 -189 77l123 154q27 -28 63 -44t68 -16q44 0 44 27q0 23 -59 40q-80 24 -119 63t-39 108q0 71 42 122.5t102.5 75t129.5 23.5
q67 0 129.5 -20t100.5 -55l-124 -149q-18 21 -48.5 34.5t-61.5 13.5q-49 0 -49 -27q0 -11 9.5 -17.5t37.5 -13.5q87 -23 132.5 -65t45.5 -117q0 -96 -66 -149t-160 -65l-41 -38q6 1 17 1q31 0 59 -18t28 -60z" />
    <glyph glyph-name="scommaaccent.sc" horiz-adv-x="550" 
d="M-35 61l123 154q27 -28 63 -44t68 -16q44 0 44 27q0 23 -59 40q-80 24 -119 63t-39 108q0 71 42 122.5t102.5 75t129.5 23.5q67 0 129.5 -20t100.5 -55l-124 -149q-18 21 -48.5 34.5t-61.5 13.5q-49 0 -49 -27q0 -11 9.5 -17.5t37.5 -13.5q87 -23 132.5 -65t45.5 -117
q0 -57 -25.5 -101t-67.5 -68.5t-88.5 -36.5t-95.5 -12q-157 0 -250 81zM324 -45l-137 -195h-161l113 195h185z" />
    <glyph glyph-name="tcaron.sc" horiz-adv-x="524" 
d="M521 418h-132l-74 -418h-229l74 418h-136l31 176h496zM548 798l-158 -144h-167l-111 144h150l55 -70l79 70h152z" />
    <glyph glyph-name="tcommaaccent.sc" horiz-adv-x="524" 
d="M521 418h-132l-74 -418h-229l74 418h-136l31 176h496zM297 -45l-137 -195h-161l113 195h185z" />
    <glyph glyph-name="tbar.sc" horiz-adv-x="524" 
d="M41 235l17 100h87l15 83h-136l31 176h496l-30 -176h-132l-15 -83h82l-17 -100h-83l-41 -235h-229l41 235h-86z" />
    <glyph glyph-name="thorn.sc" horiz-adv-x="631" 
d="M248 112l-20 -112h-228l104 594h228l-12 -66h75q110 0 166 -47t56 -133q0 -112 -73.5 -174t-221.5 -62h-74zM277 276h39q37 0 55.5 14.5t18.5 36.5q0 44 -58 44h-39z" />
    <glyph glyph-name="ugrave.sc" horiz-adv-x="674" 
d="M597 214q-19 -110 -96 -172t-210 -62q-117 0 -191 50.5t-74 138.5q0 30 5 57l63 368h226l-61 -349q-2 -16 -2 -26q0 -46 50 -46q54 0 68 75l63 346h224zM143 798h208l126 -144h-165z" />
    <glyph glyph-name="uacute.sc" horiz-adv-x="674" 
d="M597 214q-19 -110 -96 -172t-210 -62q-117 0 -191 50.5t-74 138.5q0 30 5 57l63 368h226l-61 -349q-2 -16 -2 -26q0 -46 50 -46q54 0 68 75l63 346h224zM624 798l-178 -144h-165l135 144h208z" />
    <glyph glyph-name="ucircumflex.sc" horiz-adv-x="674" 
d="M597 214q-19 -110 -96 -172t-210 -62q-117 0 -191 50.5t-74 138.5q0 30 5 57l63 368h226l-61 -349q-2 -16 -2 -26q0 -46 50 -46q54 0 68 75l63 346h224zM611 654h-152l-55 69l-79 -69h-150l161 144h167z" />
    <glyph glyph-name="utilde.sc" horiz-adv-x="674" 
d="M597 214q-19 -110 -96 -172t-210 -62q-117 0 -191 50.5t-74 138.5q0 30 5 57l63 368h226l-61 -349q-2 -16 -2 -26q0 -46 50 -46q54 0 68 75l63 346h224zM598 791q-15 -61 -52 -100t-87 -39q-39 0 -77 23q-38 22 -59 22q-31 0 -44 -36h-79q14 59 50.5 97t86.5 38
q32 0 78 -24q41 -21 62 -21q27 0 43 40h78z" />
    <glyph glyph-name="udieresis.sc" horiz-adv-x="674" 
d="M597 214q-19 -110 -96 -172t-210 -62q-117 0 -191 50.5t-74 138.5q0 30 5 57l63 368h226l-61 -349q-2 -16 -2 -26q0 -46 50 -46q54 0 68 75l63 346h224zM274 653q-41 0 -67 24t-26 58q0 45 30 76.5t77 31.5q40 0 66 -24.5t26 -57.5q0 -45 -30 -76.5t-76 -31.5zM525 653
q-41 0 -67 24t-26 58q0 45 30 76.5t77 31.5q40 0 66 -24.5t26 -57.5q0 -45 -30 -76.5t-76 -31.5z" />
    <glyph glyph-name="umacron.sc" horiz-adv-x="674" 
d="M597 214q-19 -110 -96 -172t-210 -62q-117 0 -191 50.5t-74 138.5q0 30 5 57l63 368h226l-61 -349q-2 -16 -2 -26q0 -46 50 -46q54 0 68 75l63 346h224zM573 681h-358l16 95h358z" />
    <glyph glyph-name="ubreve.sc" horiz-adv-x="674" 
d="M597 214q-19 -110 -96 -172t-210 -62q-117 0 -191 50.5t-74 138.5q0 30 5 57l63 368h226l-61 -349q-2 -16 -2 -26q0 -46 50 -46q54 0 68 75l63 346h224zM581 798q-28 -144 -193 -144t-165 144h107q0 -41 62 -41q76 0 82 41h107z" />
    <glyph glyph-name="uring.sc" horiz-adv-x="674" 
d="M597 214q-19 -110 -96 -172t-210 -62q-117 0 -191 50.5t-74 138.5q0 30 5 57l63 368h226l-61 -349q-2 -16 -2 -26q0 -46 50 -46q54 0 68 75l63 346h224zM389 635q-44 0 -71.5 26t-27.5 66q0 55 36 93.5t90 38.5q44 0 72 -25.5t28 -66.5q0 -55 -36 -93.5t-91 -38.5z
M465 762q0 22 -14.5 37t-38.5 15q-30 0 -50.5 -24t-20.5 -57q0 -23 14 -37.5t38 -14.5q31 0 51.5 23.5t20.5 57.5z" />
    <glyph glyph-name="uhungarumlaut.sc" horiz-adv-x="674" 
d="M597 214q-19 -110 -96 -172t-210 -62q-117 0 -191 50.5t-74 138.5q0 30 5 57l63 368h226l-61 -349q-2 -16 -2 -26q0 -46 50 -46q54 0 68 75l63 346h224zM765 798l-178 -144h-164l135 144h207zM525 798l-178 -144h-165l135 144h208z" />
    <glyph glyph-name="uogonek.sc" horiz-adv-x="674" 
d="M385 -197q-64 -43 -139 -43q-110 0 -110 87q0 66 110 135q-100 10 -160 59t-60 128q0 30 5 57l63 368h226l-61 -349q-2 -16 -2 -26q0 -46 50 -46q54 0 68 75l63 346h224l-65 -380q-30 -179 -202 -222q-64 -41 -91.5 -66t-27.5 -43q0 -7 6.5 -12t14.5 -5q27 0 60 18z" />
    <glyph glyph-name="wacute.sc" horiz-adv-x="947" 
d="M1004 594l-289 -594h-227l-24 310h-2l-144 -310h-225l-65 594h234l11 -315h4l127 315h217l18 -315h3l123 315h239zM771 798l-178 -144h-165l135 144h208z" />
    <glyph glyph-name="wcircumflex.sc" horiz-adv-x="947" 
d="M1004 594l-289 -594h-227l-24 310h-2l-144 -310h-225l-65 594h234l11 -315h4l127 315h217l18 -315h3l123 315h239zM746 654h-152l-55 69l-79 -69h-150l161 144h167z" />
    <glyph glyph-name="wdieresis.sc" horiz-adv-x="947" 
d="M1004 594l-289 -594h-227l-24 310h-2l-144 -310h-225l-65 594h234l11 -315h4l127 315h217l18 -315h3l123 315h239zM409 653q-41 0 -67 24t-26 58q0 45 30 76.5t77 31.5q40 0 66 -24.5t26 -57.5q0 -45 -30 -76.5t-76 -31.5zM660 653q-41 0 -67 24t-26 58q0 45 30 76.5
t77 31.5q40 0 66 -24.5t26 -57.5q0 -45 -30 -76.5t-76 -31.5z" />
    <glyph glyph-name="wgrave.sc" horiz-adv-x="947" 
d="M1004 594l-289 -594h-227l-24 310h-2l-144 -310h-225l-65 594h234l11 -315h4l127 315h217l18 -315h3l123 315h239zM285 798h208l126 -144h-165z" />
    <glyph glyph-name="yacute.sc" horiz-adv-x="602" 
d="M389 208l-37 -208h-231l37 208l-137 386h244l42 -198l119 198h257zM587 798l-178 -144h-165l135 144h208z" />
    <glyph glyph-name="ycircumflex.sc" horiz-adv-x="602" 
d="M389 208l-37 -208h-231l37 208l-137 386h244l42 -198l119 198h257zM580 654h-152l-55 69l-79 -69h-150l161 144h167z" />
    <glyph glyph-name="ydieresis.sc" horiz-adv-x="602" 
d="M389 208l-37 -208h-231l37 208l-137 386h244l42 -198l119 198h257zM236 653q-41 0 -67 24t-26 58q0 45 30 76.5t77 31.5q40 0 66 -24.5t26 -57.5q0 -45 -30 -76.5t-76 -31.5zM487 653q-41 0 -67 24t-26 58q0 45 30 76.5t77 31.5q40 0 66 -24.5t26 -57.5q0 -45 -30 -76.5
t-76 -31.5z" />
    <glyph glyph-name="ygrave.sc" horiz-adv-x="602" 
d="M389 208l-37 -208h-231l37 208l-137 386h244l42 -198l119 198h257zM110 798h208l126 -144h-165z" />
    <glyph glyph-name="zacute.sc" horiz-adv-x="599" 
d="M497 0h-521l30 165l261 253h-205l31 176h498l-27 -153l-271 -264h237zM575 798l-178 -144h-165l135 144h208z" />
    <glyph glyph-name="zcaron.sc" horiz-adv-x="599" 
d="M497 0h-521l30 165l261 253h-205l31 176h498l-27 -153l-271 -264h237zM596 798l-158 -144h-167l-111 144h150l55 -70l79 70h152z" />
    <glyph glyph-name="zdotaccent.sc" horiz-adv-x="599" 
d="M497 0h-521l30 165l261 253h-205l31 176h498l-27 -153l-271 -264h237zM358 646q-44 0 -72 26t-28 62q0 49 32 82.5t82 33.5q43 0 71 -26t28 -62q0 -49 -32 -82.5t-81 -33.5z" />
    <glyph glyph-name="ij.sc" horiz-adv-x="892" 
d="M231 0h-231l105 594h231zM557 -20q-103 0 -161.5 45t-74.5 117l198 69q3 -34 32 -34q26 0 33 42l65 375h231l-67 -377q-41 -237 -256 -237z" />
    <glyph glyph-name="germandbls.sc" horiz-adv-x="1100" 
d="M-35 61l123 154q27 -28 63 -44t68 -16q44 0 44 27q0 23 -59 40q-80 24 -119 63t-39 108q0 71 42 122.5t102.5 75t129.5 23.5q67 0 129.5 -20t100.5 -55l-124 -149q-18 21 -48.5 34.5t-61.5 13.5q-49 0 -49 -27q0 -11 9.5 -17.5t37.5 -13.5q87 -23 132.5 -65t45.5 -117
q0 -57 -25.5 -101t-67.5 -68.5t-88.5 -36.5t-95.5 -12q-157 0 -250 81zM515 61l123 154q27 -28 63 -44t68 -16q44 0 44 27q0 23 -59 40q-80 24 -119 63t-39 108q0 71 42 122.5t102.5 75t129.5 23.5q67 0 129.5 -20t100.5 -55l-124 -149q-18 21 -48.5 34.5t-61.5 13.5
q-49 0 -49 -27q0 -11 9.5 -17.5t37.5 -13.5q87 -23 132.5 -65t45.5 -117q0 -57 -25.5 -101t-67.5 -68.5t-88.5 -36.5t-95.5 -12q-157 0 -250 81z" />
    <glyph glyph-name="eng.sc" horiz-adv-x="704" 
d="M686 594l-105 -594q-10 -55 -26 -95.5t-45.5 -77.5t-80 -56.5t-119.5 -19.5q-54 0 -92 12l38 182q18 -5 36 -5q54 0 67 60l-97 256h-3l-40 -256h-219l105 594h224l95 -270h4l41 270h217z" />
    <glyph glyph-name="grave.sc" 
d="M3 798h208l126 -144h-165z" />
    <glyph glyph-name="acute.sc" 
d="M533 798l-178 -144h-165l135 144h208z" />
    <glyph glyph-name="circumflex.sc" 
d="M438 654h-152l-55 69l-79 -69h-150l161 144h167z" />
    <glyph glyph-name="caron.sc" 
d="M463 798l-158 -144h-167l-111 144h150l55 -70l79 70h152z" />
    <glyph glyph-name="tilde.sc" 
d="M431 791q-15 -61 -52 -100t-87 -39q-39 0 -77 23q-38 22 -59 22q-31 0 -44 -36h-79q14 59 50.5 97t86.5 38q32 0 78 -24q41 -21 62 -21q27 0 43 40h78z" />
    <glyph glyph-name="dieresis.sc" 
d="M164 653q-41 0 -67 24t-26 58q0 45 30 76.5t77 31.5q40 0 66 -24.5t26 -57.5q0 -45 -30 -76.5t-76 -31.5zM415 653q-41 0 -67 24t-26 58q0 45 30 76.5t77 31.5q40 0 66 -24.5t26 -57.5q0 -45 -30 -76.5t-76 -31.5z" />
    <glyph glyph-name="macron.sc" 
d="M404 681h-358l16 95h358z" />
    <glyph glyph-name="breve.sc" 
d="M424 798q-28 -144 -193 -144t-165 144h107q0 -41 62 -41q76 0 82 41h107z" />
    <glyph glyph-name="ring.sc" 
d="M223 635q-44 0 -71.5 26t-27.5 66q0 55 36 93.5t90 38.5q44 0 72 -25.5t28 -66.5q0 -55 -36 -93.5t-91 -38.5zM299 762q0 22 -14.5 37t-38.5 15q-30 0 -50.5 -24t-20.5 -57q0 -23 14 -37.5t38 -14.5q31 0 51.5 23.5t20.5 57.5z" />
    <glyph glyph-name="hungarumlaut.sc" 
d="M573 798l-178 -144h-164l135 144h207zM333 798l-178 -144h-165l135 144h208z" />
    <glyph glyph-name="dotaccent.sc" 
d="M224 646q-44 0 -72 26t-28 62q0 49 32 82.5t82 33.5q43 0 71 -26t28 -62q0 -49 -32 -82.5t-81 -33.5z" />
    <glyph glyph-name="exclamdown.sc" horiz-adv-x="420" 
d="M91 338h231l-60 -338h-231zM231 607q52 0 83 -29t31 -71q0 -56 -36.5 -94t-94.5 -38q-50 0 -81.5 29t-31.5 71q0 56 36 94t94 38z" />
    <glyph glyph-name="questiondown.sc" horiz-adv-x="550" 
d="M122 290q55 26 58 45l2 11h205l-4 -28q-10 -67 -70 -97l-22 -11q-42 -20 -42 -42q0 -24 23 -24q29 0 40 41l200 -33q-22 -75 -90.5 -123.5t-173.5 -48.5q-113 0 -172 44t-59 114q0 52 24 88t81 64zM305 607q52 0 83 -28.5t31 -70.5q0 -56 -36.5 -93.5t-94.5 -37.5
q-50 0 -81.5 28.5t-31.5 70.5q0 56 36 93.5t94 37.5z" />
    <glyph glyph-name="Euro.sc" horiz-adv-x="640" 
d="M119 282q0 15 6 35h-77l53 100h50q82 197 320 197q80 0 139 -22l-70 -146q-37 16 -81 16q-65 0 -90 -45h156l-48 -100h-146q-6 -20 -6 -35h140l-47 -100h-86q12 -40 77 -40q55 0 104 28l16 -157q-62 -33 -153 -33q-118 0 -182 55.5t-79 146.5h-91l50 100h45z" />
    <glyph glyph-name="cent.sc" horiz-adv-x="640" 
d="M467 535q85 -13 126 -63l-127 -139q-19 28 -67 28q-49 0 -80 -32.5t-31 -79.5q0 -32 22 -54.5t63 -22.5q47 0 77 30l89 -151q-75 -58 -167 -65l-11 -59h-106l12 63q-89 17 -141.5 77.5t-52.5 151.5q0 124 81 216t209 105l11 59h106z" />
    <glyph glyph-name="sterling.sc" horiz-adv-x="640" 
d="M597 550l-110 -128q-20 29 -58 29q-23 0 -37.5 -15t-17.5 -36l-3 -18h125l-25 -138h-122l-14 -77h211l-30 -167h-485l30 167h77l14 77h-77l24 138h75l7 37q17 91 79.5 143t165.5 52t171 -64z" />
    <glyph glyph-name="florin.sc" horiz-adv-x="640" 
d="M659 579l-98 -154q-17 20 -48 20q-37 0 -54 -45l-15 -41h141l-25 -138h-161l-53 -148q-31 -87 -83 -123t-141 -36q-84 0 -144 35l78 158q21 -20 52 -20q38 0 53 41l34 93h-116l25 138h135l27 72q36 97 96.5 140t151.5 43q93 0 145 -35z" />
    <glyph glyph-name="yen.sc" horiz-adv-x="640" 
d="M668 594l-188 -227h82l-18 -99h-138l-10 -59h138l-18 -99h-139l-19 -110h-207l19 110h-136l18 99h137l9 59h-136l18 99h92l-105 227h212l53 -165l113 165h223z" />
    <glyph glyph-name="perthousand.sc" horiz-adv-x="1200" 
d="M206 283q-69 0 -114 39t-45 104q0 78 52 130.5t134 52.5q69 0 115 -39.5t46 -104.5q0 -77 -53.5 -129.5t-134.5 -52.5zM273 450q0 20 -13 35t-36 15q-24 0 -40 -18t-16 -41q0 -19 13 -33t34 -14q24 0 41 16.5t17 39.5zM612 -14q-69 0 -114 39t-45 104q0 78 52 130.5
t134 52.5q69 0 115 -39.5t46 -104.5q0 -79 -53 -130.5t-135 -51.5zM679 153q0 20 -13 35t-36 15q-24 0 -40 -18t-16 -41q0 -19 13 -33t34 -14q24 0 41 16.5t17 39.5zM989 -14q-69 0 -114 39t-45 104q0 78 52 130.5t134 52.5q69 0 115 -39.5t46 -104.5q0 -79 -53 -130.5
t-135 -51.5zM1056 153q0 20 -13 35t-36 15q-24 0 -40 -18t-16 -41q0 -19 13 -33t34 -14q24 0 41 16.5t17 39.5zM691 569l-461 -608l-81 57l461 609z" />
    <glyph glyph-name="zero.onum" horiz-adv-x="720" 
d="M457 318q0 41 -24 68t-68 27q-52 0 -83.5 -39t-31.5 -96q0 -41 24.5 -68t66.5 -27q55 0 85.5 38t30.5 97zM320 -20q-143 0 -222 75.5t-79 199.5q0 153 102.5 256t265.5 103q144 0 222.5 -74.5t78.5 -198.5q0 -154 -102 -257.5t-266 -103.5z" />
    <glyph glyph-name="one.onum" horiz-adv-x="550" 
d="M372 0h-231l66 367l-124 -66l-70 172l238 121h225z" />
    <glyph glyph-name="two.onum" horiz-adv-x="660" 
d="M32 169l54 23q173 74 233.5 110.5t60.5 74.5q0 49 -54 49q-60 0 -84 -61l-185 59q33 81 111 135.5t190 54.5q45 0 85.5 -8.5t81 -28.5t65 -61t24.5 -99q0 -46 -17 -83t-49 -63.5t-60.5 -43t-69.5 -33.5l-40 -17v-2h211l-31 -175h-556z" />
    <glyph glyph-name="three.onum" horiz-adv-x="600" 
d="M551 400q-109 -60 -207 -106l-1 -3q14 2 24 2q68 0 116 -50t48 -127q0 -148 -100 -217t-271 -69q-74 0 -164 16l45 199q58 -11 110 -11q136 0 136 61q0 54 -110 54q-54 0 -120 -14l-11 158q107 43 235 109l1 4h-213l33 188h483z" />
    <glyph glyph-name="four.onum" horiz-adv-x="700" 
d="M575 614l-324 -428h113l29 165h212l-29 -165h88l-33 -186h-83l-30 -170h-216l30 170h-351l34 194l306 420h254z" />
    <glyph glyph-name="five.onum" horiz-adv-x="600" 
d="M148 -170q-78 0 -162 15l40 198q48 -8 103 -8q153 0 153 66q0 63 -101 63q-58 0 -146 -17l93 447h456l-34 -198h-243l-20 -75q13 3 33 3q94 0 151 -52.5t57 -145.5q0 -141 -98.5 -218.5t-281.5 -77.5z" />
    <glyph glyph-name="six.onum" horiz-adv-x="700" 
d="M452 480q86 0 144 -51t58 -152q0 -123 -92 -209t-246 -86q-42 0 -80.5 7t-76.5 25t-65.5 46.5t-44.5 74.5t-17 106q0 77 36.5 152.5t102 141.5t125 113.5t136.5 97.5l222 -92q-149 -94 -249 -178l1 -2q30 6 46 6zM260 236q0 -31 21.5 -50t50.5 -19q42 0 66 26t24 68
q0 31 -20.5 50t-48.5 19q-43 0 -68 -26.5t-25 -67.5z" />
    <glyph glyph-name="seven.onum" horiz-adv-x="620" 
d="M592 425q-238 -356 -381 -603l-237 48q189 290 353 526h-287l35 198h547z" />
    <glyph glyph-name="eight.onum" horiz-adv-x="700" 
d="M255 215q0 -28 17 -43.5t40 -15.5q38 0 58 19.5t20 49.5q0 24 -17 42t-42 18q-33 0 -54.5 -20t-21.5 -50zM505 371v-3q42 -17 74.5 -58t32.5 -93q0 -115 -82 -175t-225 -60q-48 0 -93 10t-86.5 32t-66 62.5t-24.5 94.5q0 77 48.5 128.5t111.5 67.5v4q-41 18 -64 52.5
t-23 78.5q0 69 44.5 119t109 72.5t138.5 22.5q106 0 178 -45.5t72 -135.5q0 -72 -43 -115.5t-102 -58.5zM311 495q0 -22 14.5 -38t40.5 -16q30 0 48.5 18t18.5 45q0 26 -14.5 41t-39.5 15q-31 0 -49.5 -18t-18.5 -47z" />
    <glyph glyph-name="nine.onum" horiz-adv-x="700" 
d="M241 118q-89 0 -146.5 50t-57.5 151q0 123 92 209t246 86q42 0 80.5 -7t76.5 -25t65.5 -46.5t44.5 -74.5t17 -106q0 -77 -37 -153t-105.5 -145t-137.5 -123t-160 -113l-200 113q181 110 269 188l-1 2q-30 -6 -46 -6zM431 360q0 31 -21.5 50t-50.5 19q-42 0 -66 -26
t-24 -68q0 -31 20.5 -50t48.5 -19q43 0 68 26.5t25 67.5z" />
    <glyph glyph-name="napostrophe.sc" horiz-adv-x="895" 
d="M772 0h-222l-97 256h-3l-40 -256h-219l105 594h224l95 -270h4l41 270h217zM277 594l-131 -182h-161l107 182h185z" />
    <glyph glyph-name="ordfeminine.sc" horiz-adv-x="390" 
d="M400 430h-129l-5 43h-93l-23 -43h-143l183 291h159zM260 550l-9 82l-44 -82h53z" />
    <glyph glyph-name="fi.sc" horiz-adv-x="865" 
d="M498 428h-199l-12 -66h187l-28 -162h-186l-36 -200h-224l105 594h422zM742 0h-231l105 594h231z" />
    <glyph glyph-name="fl.sc" horiz-adv-x="1009" 
d="M498 428h-199l-12 -66h187l-28 -162h-186l-36 -200h-224l105 594h422zM938 0h-427l105 594h231l-73 -417h196z" />
    </font>
</defs>
</svg>
